%TF.GenerationSoftware,KiCad,Pcbnew,8.0.1*%
%TF.CreationDate,2024-05-14T10:47:47-06:00*%
%TF.ProjectId,Badge Balam,42616467-6520-4426-916c-616d2e6b6963,rev?*%
%TF.SameCoordinates,Original*%
%TF.FileFunction,Paste,Top*%
%TF.FilePolarity,Positive*%
%FSLAX46Y46*%
G04 Gerber Fmt 4.6, Leading zero omitted, Abs format (unit mm)*
G04 Created by KiCad (PCBNEW 8.0.1) date 2024-05-14 10:47:47*
%MOMM*%
%LPD*%
G01*
G04 APERTURE LIST*
%ADD10C,0.000000*%
G04 APERTURE END LIST*
D10*
%TO.C,G\u002A\u002A\u002A*%
G36*
X152320680Y-57776160D02*
G01*
X152320680Y-55715585D01*
X153312550Y-55715585D01*
X153312550Y-60287267D01*
X152271783Y-60287267D01*
X151653612Y-58209230D01*
X151653612Y-60287267D01*
X150658250Y-60287267D01*
X150658250Y-55715585D01*
X151653612Y-55715585D01*
X152320680Y-57776160D01*
G37*
G36*
X150459179Y-60287267D02*
G01*
X149243789Y-60287267D01*
X149180924Y-59466530D01*
X148754838Y-59466530D01*
X148684988Y-60287268D01*
X147455628Y-60287268D01*
X147672430Y-58656270D01*
X148737375Y-58656270D01*
X149145998Y-58656270D01*
X149100924Y-58245137D01*
X149055194Y-57787511D01*
X149009463Y-57284045D01*
X148964388Y-56735395D01*
X148881768Y-57348383D01*
X148816830Y-57872640D01*
X148768917Y-58308493D01*
X148737375Y-58656270D01*
X147672430Y-58656270D01*
X148063324Y-55715585D01*
X149778141Y-55715585D01*
X150459179Y-60287267D01*
G37*
G36*
X144887090Y-62093716D02*
G01*
X144917870Y-62096226D01*
X144932321Y-62098126D01*
X144946163Y-62100464D01*
X144959412Y-62103246D01*
X144972078Y-62106478D01*
X144984177Y-62110165D01*
X144995722Y-62114313D01*
X145006725Y-62118928D01*
X145017201Y-62124016D01*
X145027163Y-62129582D01*
X145036624Y-62135632D01*
X145045598Y-62142171D01*
X145054098Y-62149207D01*
X145062137Y-62156744D01*
X145069729Y-62164788D01*
X145076888Y-62173344D01*
X145083627Y-62182420D01*
X145089959Y-62192019D01*
X145095898Y-62202149D01*
X145101457Y-62212815D01*
X145106649Y-62224023D01*
X145111488Y-62235778D01*
X145115988Y-62248086D01*
X145124023Y-62274384D01*
X145130861Y-62302964D01*
X145136608Y-62333872D01*
X146596474Y-68952160D01*
X146638657Y-69162638D01*
X146682476Y-69373443D01*
X146729570Y-69590142D01*
X146781575Y-69818300D01*
X146767605Y-69804330D01*
X140474120Y-69804330D01*
X140828036Y-68117451D01*
X142842037Y-68117451D01*
X144399691Y-68117451D01*
X143676744Y-63695947D01*
X143620863Y-63695947D01*
X142842037Y-68117451D01*
X140828036Y-68117451D01*
X141283071Y-65948610D01*
X142105119Y-62092890D01*
X144853716Y-62092890D01*
X144887090Y-62093716D01*
G37*
G36*
X166357034Y-62602797D02*
G01*
X166398947Y-67366566D01*
X164883203Y-69933553D01*
X164883203Y-65864791D01*
X163451279Y-67422445D01*
X163454768Y-67422447D01*
X163412858Y-67436416D01*
X161809801Y-65920671D01*
X161809801Y-67282747D01*
X161851713Y-69762421D01*
X161851333Y-69780877D01*
X161850144Y-69798254D01*
X161848076Y-69814535D01*
X161846689Y-69822261D01*
X161845055Y-69829707D01*
X161843166Y-69836871D01*
X161841012Y-69843753D01*
X161838584Y-69850349D01*
X161835874Y-69856658D01*
X161832872Y-69862677D01*
X161829569Y-69868406D01*
X161825957Y-69873842D01*
X161822026Y-69878984D01*
X161817768Y-69883828D01*
X161813174Y-69888374D01*
X161808234Y-69892619D01*
X161802940Y-69896562D01*
X161797283Y-69900200D01*
X161791253Y-69903532D01*
X161784843Y-69906556D01*
X161778042Y-69909270D01*
X161770842Y-69911671D01*
X161763235Y-69913759D01*
X161755210Y-69915531D01*
X161746759Y-69916985D01*
X161737874Y-69918119D01*
X161728545Y-69918931D01*
X161718763Y-69919420D01*
X161708519Y-69919584D01*
X160304536Y-69919584D01*
X160304536Y-62166235D01*
X163381427Y-65155815D01*
X164863992Y-63633521D01*
X165607239Y-62869591D01*
X166357034Y-62092892D01*
X166357034Y-62602797D01*
G37*
G36*
X143121436Y-55715585D02*
G01*
X143121436Y-60287267D01*
X141979388Y-60287267D01*
X141979388Y-57835533D01*
X141978024Y-57597170D01*
X141973713Y-57411194D01*
X141970350Y-57337851D01*
X141966128Y-57277606D01*
X141961005Y-57230457D01*
X141954942Y-57196405D01*
X141951339Y-57183473D01*
X141947076Y-57170873D01*
X141942149Y-57158611D01*
X141936551Y-57146692D01*
X141930278Y-57135120D01*
X141923325Y-57123902D01*
X141915685Y-57113041D01*
X141907356Y-57102544D01*
X141898330Y-57092415D01*
X141888604Y-57082660D01*
X141878172Y-57073283D01*
X141867028Y-57064290D01*
X141855168Y-57055686D01*
X141842587Y-57047476D01*
X141829280Y-57039665D01*
X141815241Y-57032258D01*
X141799730Y-57025299D01*
X141782014Y-57018827D01*
X141762099Y-57012835D01*
X141739989Y-57007319D01*
X141715689Y-57002274D01*
X141689204Y-56997694D01*
X141660540Y-56993575D01*
X141629702Y-56989911D01*
X141596695Y-56986698D01*
X141561523Y-56983929D01*
X141524193Y-56981600D01*
X141484709Y-56979707D01*
X141399299Y-56977203D01*
X141305336Y-56976378D01*
X141193576Y-56976378D01*
X141193576Y-56442025D01*
X141295486Y-56418287D01*
X141394285Y-56391602D01*
X141489974Y-56361971D01*
X141582553Y-56329392D01*
X141672021Y-56293867D01*
X141758379Y-56255395D01*
X141841626Y-56213976D01*
X141921762Y-56169610D01*
X141998788Y-56122298D01*
X142072704Y-56072039D01*
X142143509Y-56018832D01*
X142211203Y-55962680D01*
X142275787Y-55903580D01*
X142337260Y-55841534D01*
X142395623Y-55776540D01*
X142450876Y-55708600D01*
X143121435Y-55708600D01*
X143121436Y-55715585D01*
G37*
G36*
X147251589Y-62176764D02*
G01*
X147268936Y-62192392D01*
X147290170Y-62212071D01*
X147313533Y-62234534D01*
X147325463Y-62246412D01*
X147337265Y-62258511D01*
X147348718Y-62270671D01*
X147359604Y-62282733D01*
X147369703Y-62294540D01*
X147378793Y-62305932D01*
X147708561Y-62659330D01*
X148036692Y-63016656D01*
X148361549Y-63376602D01*
X148681495Y-63737857D01*
X148691802Y-63751628D01*
X148701741Y-63766657D01*
X148711270Y-63782811D01*
X148720349Y-63799958D01*
X148728937Y-63817965D01*
X148736993Y-63836698D01*
X148744476Y-63856024D01*
X148751345Y-63875811D01*
X148757559Y-63895925D01*
X148763078Y-63916234D01*
X148767859Y-63936604D01*
X148771863Y-63956902D01*
X148775049Y-63976996D01*
X148777375Y-63996752D01*
X148778801Y-64016038D01*
X148779285Y-64034720D01*
X148779285Y-68229211D01*
X151629164Y-68229211D01*
X151650308Y-68229856D01*
X151671770Y-68231755D01*
X151693456Y-68234851D01*
X151715276Y-68239088D01*
X151737136Y-68244410D01*
X151758946Y-68250759D01*
X151780612Y-68258081D01*
X151802042Y-68266319D01*
X151823146Y-68275416D01*
X151843830Y-68285316D01*
X151864002Y-68295963D01*
X151883571Y-68307301D01*
X151902443Y-68319273D01*
X151920528Y-68331824D01*
X151937733Y-68344896D01*
X151953966Y-68358433D01*
X152283734Y-68672049D01*
X152611866Y-68991886D01*
X152936723Y-69313687D01*
X153256670Y-69633196D01*
X153264379Y-69641062D01*
X153271848Y-69648974D01*
X153286411Y-69665120D01*
X153316479Y-69699991D01*
X153333376Y-69719452D01*
X153352441Y-69740755D01*
X153363005Y-69752212D01*
X153374372Y-69764268D01*
X153386629Y-69776968D01*
X153399864Y-69790359D01*
X147235600Y-69790359D01*
X147235600Y-62162740D01*
X147251589Y-62176764D01*
G37*
G36*
X158030625Y-62079334D02*
G01*
X158050083Y-62080561D01*
X158068377Y-62082574D01*
X158085546Y-62085344D01*
X158101634Y-62088847D01*
X158116682Y-62093054D01*
X158130730Y-62097939D01*
X158143821Y-62103475D01*
X158155996Y-62109636D01*
X158167298Y-62116393D01*
X158177766Y-62123721D01*
X158187443Y-62131593D01*
X158196371Y-62139981D01*
X158204591Y-62148859D01*
X158212145Y-62158200D01*
X158219074Y-62167978D01*
X158225420Y-62178164D01*
X158231224Y-62188733D01*
X158236527Y-62199658D01*
X158241373Y-62210911D01*
X158249854Y-62234296D01*
X158257000Y-62258674D01*
X158263144Y-62283829D01*
X158268617Y-62309547D01*
X158278883Y-62361811D01*
X158919320Y-65197285D01*
X159567615Y-68030139D01*
X159761449Y-68898025D01*
X159965759Y-69786865D01*
X159965762Y-69790359D01*
X153700218Y-69790359D01*
X153771704Y-69431286D01*
X153839917Y-69076143D01*
X153969139Y-68372404D01*
X154005378Y-68190793D01*
X156008758Y-68190793D01*
X157552443Y-68190793D01*
X156829495Y-63769289D01*
X156787586Y-63769289D01*
X156008758Y-68190793D01*
X154005378Y-68190793D01*
X155188020Y-62264022D01*
X155193601Y-62236044D01*
X155199924Y-62210945D01*
X155203391Y-62199430D01*
X155207075Y-62188579D01*
X155210989Y-62178374D01*
X155215142Y-62168796D01*
X155219546Y-62159828D01*
X155224212Y-62151449D01*
X155229150Y-62143642D01*
X155234371Y-62136388D01*
X155239887Y-62129669D01*
X155245708Y-62123466D01*
X155251844Y-62117761D01*
X155258307Y-62112534D01*
X155265108Y-62107768D01*
X155272258Y-62103444D01*
X155279766Y-62099543D01*
X155287646Y-62096047D01*
X155295906Y-62092937D01*
X155304558Y-62090195D01*
X155313613Y-62087802D01*
X155323082Y-62085740D01*
X155343305Y-62082533D01*
X155365313Y-62080426D01*
X155389194Y-62079271D01*
X155415034Y-62078919D01*
X158009959Y-62078919D01*
X158030625Y-62079334D01*
G37*
G36*
X153179835Y-55034547D02*
G01*
X153163258Y-55069868D01*
X153146267Y-55103797D01*
X153128857Y-55136335D01*
X153111022Y-55167481D01*
X153092757Y-55197235D01*
X153074057Y-55225598D01*
X153054918Y-55252570D01*
X153035333Y-55278149D01*
X153015298Y-55302338D01*
X152994808Y-55325134D01*
X152973857Y-55346540D01*
X152952440Y-55366553D01*
X152930554Y-55385175D01*
X152908191Y-55402406D01*
X152885347Y-55418245D01*
X152862018Y-55432692D01*
X152838608Y-55446610D01*
X152815530Y-55459555D01*
X152792791Y-55471538D01*
X152770394Y-55482570D01*
X152748345Y-55492660D01*
X152726649Y-55501819D01*
X152705311Y-55510058D01*
X152684337Y-55517386D01*
X152663730Y-55523813D01*
X152643498Y-55529350D01*
X152623643Y-55534007D01*
X152604173Y-55537795D01*
X152585091Y-55540723D01*
X152566404Y-55542802D01*
X152548115Y-55544041D01*
X152530230Y-55544452D01*
X152505222Y-55544084D01*
X152479964Y-55542979D01*
X152454450Y-55541137D01*
X152428675Y-55538559D01*
X152402634Y-55535244D01*
X152376321Y-55531192D01*
X152349733Y-55526403D01*
X152322863Y-55520878D01*
X152295707Y-55514616D01*
X152268259Y-55507617D01*
X152240514Y-55499882D01*
X152212468Y-55491410D01*
X152184114Y-55482201D01*
X152155449Y-55472256D01*
X152126466Y-55461574D01*
X152097161Y-55450155D01*
X151887610Y-55369827D01*
X151839322Y-55350332D01*
X151794022Y-55333702D01*
X151751750Y-55319855D01*
X151712549Y-55308709D01*
X151676457Y-55300182D01*
X151659591Y-55296875D01*
X151643517Y-55294193D01*
X151628242Y-55292124D01*
X151613769Y-55290660D01*
X151600105Y-55289788D01*
X151587255Y-55289500D01*
X151574229Y-55289776D01*
X151561347Y-55290605D01*
X151548608Y-55291986D01*
X151536013Y-55293920D01*
X151523561Y-55296406D01*
X151511251Y-55299445D01*
X151499086Y-55303037D01*
X151487063Y-55307181D01*
X151475184Y-55311877D01*
X151463448Y-55317126D01*
X151451855Y-55322928D01*
X151440406Y-55329282D01*
X151429099Y-55336188D01*
X151417936Y-55343647D01*
X151406916Y-55351659D01*
X151396040Y-55360223D01*
X151374717Y-55379009D01*
X151353966Y-55400005D01*
X151333789Y-55423211D01*
X151314184Y-55448627D01*
X151295153Y-55476253D01*
X151276694Y-55506089D01*
X151258809Y-55538136D01*
X151241496Y-55572392D01*
X150794457Y-55275530D01*
X150833420Y-55209515D01*
X150873032Y-55147685D01*
X150913288Y-55090051D01*
X150954184Y-55036621D01*
X150995715Y-54987407D01*
X151037875Y-54942419D01*
X151080658Y-54901667D01*
X151124061Y-54865161D01*
X151168078Y-54832912D01*
X151212704Y-54804929D01*
X151257933Y-54781223D01*
X151303761Y-54761805D01*
X151350183Y-54746684D01*
X151397192Y-54735870D01*
X151444785Y-54729375D01*
X151492957Y-54727207D01*
X151518619Y-54727575D01*
X151544533Y-54728674D01*
X151570702Y-54730500D01*
X151597132Y-54733046D01*
X151623828Y-54736310D01*
X151650795Y-54740284D01*
X151678038Y-54744964D01*
X151705563Y-54750345D01*
X151733374Y-54756422D01*
X151761477Y-54763190D01*
X151789877Y-54770643D01*
X151818578Y-54778776D01*
X151876907Y-54797064D01*
X151936504Y-54818012D01*
X152111129Y-54884370D01*
X152164001Y-54903865D01*
X152212576Y-54920495D01*
X152256812Y-54934343D01*
X152296669Y-54945489D01*
X152332106Y-54954015D01*
X152363081Y-54960004D01*
X152389555Y-54963538D01*
X152401091Y-54964409D01*
X152411485Y-54964697D01*
X152440300Y-54963714D01*
X152454220Y-54962484D01*
X152467816Y-54960762D01*
X152481089Y-54958545D01*
X152494042Y-54955834D01*
X152506675Y-54952628D01*
X152518989Y-54948927D01*
X152530986Y-54944729D01*
X152542667Y-54940034D01*
X152554034Y-54934842D01*
X152565087Y-54929152D01*
X152575828Y-54922963D01*
X152586259Y-54916274D01*
X152596379Y-54909085D01*
X152606192Y-54901396D01*
X152615698Y-54893205D01*
X152624898Y-54884512D01*
X152633793Y-54875317D01*
X152642386Y-54865618D01*
X152650677Y-54855416D01*
X152658667Y-54844708D01*
X152666357Y-54833496D01*
X152673750Y-54821778D01*
X152687647Y-54796821D01*
X152700367Y-54769834D01*
X152711921Y-54740810D01*
X152722318Y-54709745D01*
X153179835Y-55034547D01*
G37*
G36*
X138926206Y-62114163D02*
G01*
X139005750Y-62122874D01*
X139085097Y-62136331D01*
X139164100Y-62154377D01*
X139242609Y-62176859D01*
X139320475Y-62203622D01*
X139397550Y-62234510D01*
X139473684Y-62269370D01*
X139548728Y-62308047D01*
X139622534Y-62350385D01*
X139694952Y-62396230D01*
X139765833Y-62445428D01*
X139902389Y-62553260D01*
X140031010Y-62672645D01*
X140150505Y-62802343D01*
X140259680Y-62941117D01*
X140357345Y-63087729D01*
X140401488Y-63163587D01*
X140442307Y-63240940D01*
X140479651Y-63319634D01*
X140513374Y-63399513D01*
X140543324Y-63480423D01*
X140569353Y-63562209D01*
X140591313Y-63644717D01*
X140609054Y-63727791D01*
X140622427Y-63811277D01*
X140631284Y-63895020D01*
X140638719Y-64048052D01*
X140638705Y-64198076D01*
X140631161Y-64345112D01*
X140616004Y-64489181D01*
X140593153Y-64630304D01*
X140562525Y-64768499D01*
X140524040Y-64903789D01*
X140477614Y-65036194D01*
X140423166Y-65165734D01*
X140360615Y-65292429D01*
X140289878Y-65416300D01*
X140210874Y-65537368D01*
X140123521Y-65655652D01*
X140027736Y-65771174D01*
X139923439Y-65883954D01*
X139815786Y-65988904D01*
X139871836Y-66035141D01*
X139943044Y-66099573D01*
X140010158Y-66166327D01*
X140073139Y-66235378D01*
X140131945Y-66306700D01*
X140186536Y-66380269D01*
X140236870Y-66456057D01*
X140282907Y-66534041D01*
X140324606Y-66614194D01*
X140361925Y-66696490D01*
X140394824Y-66780904D01*
X140423262Y-66867411D01*
X140447198Y-66955985D01*
X140466591Y-67046600D01*
X140481400Y-67139230D01*
X140491584Y-67233851D01*
X140498678Y-67375978D01*
X140501023Y-67512982D01*
X140498700Y-67644958D01*
X140491789Y-67772002D01*
X140480371Y-67894209D01*
X140464526Y-68011674D01*
X140444335Y-68124493D01*
X140419879Y-68232760D01*
X140391238Y-68336571D01*
X140358492Y-68436021D01*
X140321723Y-68531206D01*
X140281011Y-68622221D01*
X140236436Y-68709161D01*
X140188079Y-68792121D01*
X140136021Y-68871197D01*
X140080342Y-68946485D01*
X140021123Y-69018078D01*
X139958444Y-69086073D01*
X139892386Y-69150565D01*
X139823029Y-69211648D01*
X139750455Y-69269420D01*
X139674743Y-69323974D01*
X139595975Y-69375406D01*
X139514230Y-69423811D01*
X139429589Y-69469285D01*
X139342134Y-69511922D01*
X139159100Y-69589070D01*
X138965773Y-69656017D01*
X138762797Y-69713525D01*
X138686357Y-69729160D01*
X138597230Y-69744303D01*
X138497462Y-69758464D01*
X138389099Y-69771152D01*
X138274187Y-69781875D01*
X138154774Y-69790142D01*
X138032905Y-69795463D01*
X137910626Y-69797345D01*
X137720749Y-69604671D01*
X137533654Y-69409132D01*
X137349507Y-69210810D01*
X137168470Y-69009787D01*
X136990707Y-68806144D01*
X136816382Y-68599964D01*
X136645659Y-68391328D01*
X136478701Y-68180318D01*
X137924596Y-68180318D01*
X137983382Y-68180891D01*
X138041922Y-68182283D01*
X138158594Y-68185557D01*
X138216888Y-68186457D01*
X138275265Y-68186212D01*
X138333805Y-68184329D01*
X138392591Y-68180318D01*
X138479818Y-68167341D01*
X138521087Y-68158973D01*
X138560804Y-68149350D01*
X138598975Y-68138468D01*
X138635610Y-68126324D01*
X138670714Y-68112917D01*
X138704297Y-68098244D01*
X138736365Y-68082303D01*
X138766926Y-68065089D01*
X138795989Y-68046602D01*
X138823560Y-68026839D01*
X138849648Y-68005797D01*
X138874259Y-67983473D01*
X138897403Y-67959865D01*
X138919086Y-67934970D01*
X138939315Y-67908786D01*
X138958100Y-67881310D01*
X138975447Y-67852540D01*
X138991364Y-67822473D01*
X139005859Y-67791107D01*
X139018939Y-67758438D01*
X139030612Y-67724465D01*
X139040887Y-67689185D01*
X139049769Y-67652595D01*
X139057268Y-67614693D01*
X139063390Y-67575477D01*
X139068144Y-67534942D01*
X139073578Y-67449912D01*
X139073629Y-67359581D01*
X139071495Y-67322558D01*
X139067732Y-67286163D01*
X139062367Y-67250434D01*
X139055429Y-67215406D01*
X139046947Y-67181115D01*
X139036947Y-67147596D01*
X139025459Y-67114885D01*
X139012510Y-67083018D01*
X138998128Y-67052032D01*
X138982343Y-67021961D01*
X138965181Y-66992842D01*
X138946671Y-66964710D01*
X138926841Y-66937601D01*
X138905719Y-66911552D01*
X138883334Y-66886597D01*
X138859713Y-66862773D01*
X138834885Y-66840115D01*
X138808877Y-66818660D01*
X138781719Y-66798442D01*
X138753437Y-66779499D01*
X138724061Y-66761865D01*
X138693618Y-66745576D01*
X138662136Y-66730669D01*
X138629644Y-66717179D01*
X138596170Y-66705142D01*
X138561742Y-66694594D01*
X138526388Y-66685570D01*
X138490136Y-66678107D01*
X138453014Y-66672240D01*
X138415050Y-66668005D01*
X138376273Y-66665437D01*
X138336711Y-66664574D01*
X138197434Y-66660562D01*
X138057420Y-66658680D01*
X137776165Y-66659335D01*
X137215619Y-66664574D01*
X136719684Y-66664574D01*
X136719684Y-65330438D01*
X136717890Y-65302303D01*
X136717780Y-65276761D01*
X136718371Y-65264930D01*
X136719400Y-65253706D01*
X136720872Y-65243077D01*
X136722794Y-65233030D01*
X136725171Y-65223550D01*
X136728010Y-65214625D01*
X136731315Y-65206241D01*
X136735093Y-65198385D01*
X136739349Y-65191042D01*
X136744089Y-65184201D01*
X136749319Y-65177846D01*
X136755045Y-65171966D01*
X136761272Y-65166546D01*
X136768006Y-65161573D01*
X136775253Y-65157033D01*
X136783019Y-65152914D01*
X136791309Y-65149201D01*
X136800129Y-65145882D01*
X136809486Y-65142942D01*
X136819383Y-65140369D01*
X136829829Y-65138149D01*
X136840827Y-65136269D01*
X136864506Y-65133473D01*
X136890467Y-65131874D01*
X136918756Y-65131365D01*
X137098893Y-65140588D01*
X137278047Y-65147518D01*
X137634719Y-65155813D01*
X137991391Y-65158869D01*
X138350681Y-65159305D01*
X138391553Y-65159871D01*
X138431640Y-65158961D01*
X138470913Y-65156593D01*
X138509344Y-65152784D01*
X138546906Y-65147553D01*
X138583570Y-65140918D01*
X138619308Y-65132897D01*
X138654092Y-65123507D01*
X138687894Y-65112766D01*
X138720685Y-65100693D01*
X138752438Y-65087305D01*
X138783124Y-65072620D01*
X138812715Y-65056656D01*
X138841183Y-65039431D01*
X138868500Y-65020963D01*
X138894638Y-65001269D01*
X138919568Y-64980368D01*
X138943263Y-64958278D01*
X138965695Y-64935016D01*
X138986834Y-64910601D01*
X139006654Y-64885049D01*
X139025126Y-64858380D01*
X139042221Y-64830611D01*
X139057912Y-64801760D01*
X139072171Y-64771845D01*
X139084969Y-64740883D01*
X139096278Y-64708894D01*
X139106071Y-64675894D01*
X139114318Y-64641901D01*
X139120992Y-64606934D01*
X139126065Y-64571010D01*
X139129509Y-64534147D01*
X139131381Y-64485343D01*
X139131756Y-64437816D01*
X139130633Y-64391578D01*
X139128008Y-64346637D01*
X139123879Y-64303003D01*
X139118243Y-64260686D01*
X139111098Y-64219695D01*
X139102442Y-64180041D01*
X139092271Y-64141731D01*
X139080583Y-64104777D01*
X139067376Y-64069187D01*
X139052646Y-64034972D01*
X139036393Y-64002141D01*
X139018612Y-63970703D01*
X138999301Y-63940668D01*
X138978458Y-63912046D01*
X138956080Y-63884846D01*
X138932165Y-63859078D01*
X138906711Y-63834751D01*
X138879713Y-63811875D01*
X138851171Y-63790460D01*
X138821081Y-63770515D01*
X138789441Y-63752050D01*
X138756248Y-63735074D01*
X138721500Y-63719598D01*
X138685194Y-63705629D01*
X138647328Y-63693179D01*
X138607898Y-63682257D01*
X138566904Y-63672872D01*
X138524341Y-63665034D01*
X138480208Y-63658753D01*
X138434501Y-63654037D01*
X135968796Y-63654037D01*
X135968796Y-67453878D01*
X135951327Y-67427533D01*
X135933162Y-67400944D01*
X135895890Y-67347356D01*
X135877357Y-67320521D01*
X135859274Y-67293768D01*
X135841927Y-67267179D01*
X135825604Y-67240835D01*
X134477499Y-64974202D01*
X134446285Y-64921269D01*
X134431087Y-64894516D01*
X134416380Y-64867681D01*
X134402329Y-64840846D01*
X134389095Y-64814093D01*
X134376844Y-64787503D01*
X134365739Y-64761159D01*
X134365739Y-62337364D01*
X134363796Y-62306613D01*
X134363290Y-62278476D01*
X134364350Y-62252867D01*
X134365507Y-62240982D01*
X134367103Y-62229697D01*
X134369155Y-62219001D01*
X134371678Y-62208881D01*
X134374688Y-62199329D01*
X134378202Y-62190332D01*
X134382234Y-62181880D01*
X134386802Y-62173961D01*
X134391922Y-62166566D01*
X134397608Y-62159684D01*
X134403878Y-62153302D01*
X134410747Y-62147411D01*
X134418231Y-62142000D01*
X134426346Y-62137058D01*
X134435109Y-62132573D01*
X134444534Y-62128535D01*
X134454639Y-62124934D01*
X134465439Y-62121757D01*
X134476950Y-62118996D01*
X134489188Y-62116637D01*
X134502169Y-62114672D01*
X134515910Y-62113088D01*
X134545732Y-62111022D01*
X134578781Y-62110352D01*
X138846617Y-62110352D01*
X138926206Y-62114163D01*
G37*
G36*
X144935464Y-55628804D02*
G01*
X144981631Y-55630394D01*
X145027142Y-55633038D01*
X145071999Y-55636731D01*
X145116201Y-55641468D01*
X145159748Y-55647243D01*
X145202640Y-55654051D01*
X145244878Y-55661888D01*
X145286460Y-55670748D01*
X145327388Y-55680626D01*
X145367661Y-55691517D01*
X145407279Y-55703416D01*
X145446242Y-55716318D01*
X145484550Y-55730217D01*
X145522203Y-55745109D01*
X145559202Y-55760988D01*
X145595915Y-55777603D01*
X145631405Y-55794705D01*
X145665678Y-55812288D01*
X145698738Y-55830347D01*
X145730591Y-55848876D01*
X145761242Y-55867870D01*
X145790695Y-55887326D01*
X145818957Y-55907236D01*
X145846031Y-55927597D01*
X145871924Y-55948403D01*
X145896640Y-55969648D01*
X145920185Y-55991329D01*
X145942563Y-56013439D01*
X145963780Y-56035974D01*
X145983841Y-56058929D01*
X146002750Y-56082298D01*
X146020717Y-56106076D01*
X146037948Y-56130258D01*
X146054441Y-56154840D01*
X146070199Y-56179815D01*
X146085219Y-56205179D01*
X146099503Y-56230927D01*
X146113050Y-56257053D01*
X146125860Y-56283553D01*
X146137934Y-56310421D01*
X146149271Y-56337653D01*
X146159871Y-56365242D01*
X146169735Y-56393185D01*
X146178862Y-56421475D01*
X146187252Y-56450108D01*
X146194905Y-56479079D01*
X146201822Y-56508383D01*
X146208166Y-56538995D01*
X146214100Y-56571889D01*
X146224742Y-56644481D01*
X146233746Y-56726077D01*
X146241113Y-56816596D01*
X146246843Y-56915955D01*
X146250936Y-57024072D01*
X146253392Y-57140866D01*
X146254210Y-57266255D01*
X146257701Y-57262762D01*
X146257701Y-58788985D01*
X146256876Y-58914230D01*
X146254372Y-59030677D01*
X146250150Y-59138364D01*
X146244168Y-59237334D01*
X146236385Y-59327628D01*
X146226760Y-59409285D01*
X146215252Y-59482348D01*
X146201821Y-59546857D01*
X146194167Y-59576242D01*
X146185607Y-59605452D01*
X146176136Y-59634478D01*
X146165750Y-59663310D01*
X146154443Y-59691938D01*
X146142210Y-59720350D01*
X146129045Y-59748537D01*
X146114945Y-59776489D01*
X146099903Y-59804196D01*
X146083915Y-59831646D01*
X146066975Y-59858831D01*
X146049078Y-59885739D01*
X146030220Y-59912361D01*
X146010395Y-59938686D01*
X145989598Y-59964704D01*
X145967823Y-59990405D01*
X145945272Y-60015533D01*
X145922148Y-60039832D01*
X145898451Y-60063292D01*
X145874181Y-60085903D01*
X145849338Y-60107655D01*
X145823922Y-60128536D01*
X145797933Y-60148538D01*
X145771371Y-60167650D01*
X145744236Y-60185861D01*
X145716528Y-60203161D01*
X145688247Y-60219541D01*
X145659393Y-60234989D01*
X145629966Y-60249497D01*
X145599966Y-60263052D01*
X145569393Y-60275646D01*
X145538247Y-60287268D01*
X145506570Y-60298072D01*
X145474407Y-60308216D01*
X145441762Y-60317695D01*
X145408642Y-60326504D01*
X145375052Y-60334637D01*
X145340996Y-60342090D01*
X145306479Y-60348858D01*
X145271507Y-60354935D01*
X145236085Y-60360316D01*
X145200218Y-60364996D01*
X145163910Y-60368970D01*
X145127168Y-60372234D01*
X145089997Y-60374780D01*
X145052400Y-60376606D01*
X145014384Y-60377705D01*
X144975954Y-60378073D01*
X144875927Y-60376599D01*
X144780156Y-60372179D01*
X144688641Y-60364812D01*
X144601383Y-60354498D01*
X144518382Y-60341238D01*
X144439637Y-60325030D01*
X144365148Y-60305876D01*
X144329500Y-60295194D01*
X144294916Y-60283775D01*
X144261313Y-60271578D01*
X144228606Y-60258557D01*
X144196789Y-60244707D01*
X144165857Y-60230023D01*
X144135805Y-60214501D01*
X144106628Y-60198134D01*
X144078320Y-60180918D01*
X144050877Y-60162847D01*
X144024294Y-60143917D01*
X143998565Y-60124123D01*
X143973685Y-60103459D01*
X143949649Y-60081920D01*
X143926453Y-60059501D01*
X143904090Y-60036196D01*
X143882556Y-60012002D01*
X143861845Y-59986913D01*
X143841913Y-59961907D01*
X143822718Y-59936667D01*
X143804260Y-59911201D01*
X143786538Y-59885521D01*
X143769553Y-59859636D01*
X143753305Y-59833556D01*
X143737794Y-59807293D01*
X143723019Y-59780855D01*
X143708981Y-59754254D01*
X143695679Y-59727499D01*
X143683115Y-59700601D01*
X143671286Y-59673570D01*
X143660195Y-59646416D01*
X143649840Y-59619150D01*
X143640222Y-59591781D01*
X143631341Y-59564320D01*
X143623113Y-59535754D01*
X143615454Y-59505070D01*
X143608357Y-59472279D01*
X143601818Y-59437390D01*
X143595832Y-59400413D01*
X143590392Y-59361359D01*
X143581136Y-59277062D01*
X143574008Y-59184579D01*
X143570285Y-59110295D01*
X144707031Y-59110295D01*
X144707679Y-59204913D01*
X144709596Y-59289668D01*
X144712740Y-59364518D01*
X144717072Y-59429422D01*
X144722550Y-59484340D01*
X144729132Y-59529231D01*
X144736779Y-59564054D01*
X144740988Y-59577677D01*
X144745448Y-59588767D01*
X144747832Y-59593914D01*
X144750400Y-59598878D01*
X144753150Y-59603660D01*
X144756083Y-59608263D01*
X144759197Y-59612685D01*
X144762493Y-59616931D01*
X144765968Y-59620999D01*
X144769623Y-59624893D01*
X144773458Y-59628612D01*
X144777471Y-59632159D01*
X144781661Y-59635535D01*
X144786029Y-59638740D01*
X144790573Y-59641777D01*
X144795293Y-59644646D01*
X144800188Y-59647348D01*
X144805258Y-59649886D01*
X144810502Y-59652260D01*
X144815919Y-59654472D01*
X144821509Y-59656522D01*
X144827271Y-59658413D01*
X144833204Y-59660145D01*
X144839308Y-59661719D01*
X144845582Y-59663138D01*
X144852025Y-59664402D01*
X144858638Y-59665512D01*
X144865418Y-59666470D01*
X144872366Y-59667278D01*
X144879481Y-59667935D01*
X144894209Y-59668807D01*
X144909597Y-59669095D01*
X144924986Y-59668726D01*
X144939720Y-59667621D01*
X144953800Y-59665780D01*
X144967224Y-59663201D01*
X144979993Y-59659886D01*
X144992108Y-59655834D01*
X145003568Y-59651046D01*
X145014372Y-59645520D01*
X145024522Y-59639258D01*
X145034018Y-59632260D01*
X145042858Y-59624524D01*
X145051044Y-59616052D01*
X145058574Y-59606844D01*
X145065450Y-59596898D01*
X145071671Y-59586216D01*
X145077237Y-59574797D01*
X145082273Y-59562029D01*
X145086910Y-59547307D01*
X145091158Y-59530641D01*
X145095027Y-59512041D01*
X145098528Y-59491517D01*
X145101671Y-59469081D01*
X145104466Y-59444740D01*
X145106924Y-59418508D01*
X145109054Y-59390392D01*
X145110866Y-59360404D01*
X145113581Y-59294851D01*
X145115150Y-59221932D01*
X145115655Y-59141727D01*
X145115655Y-56875095D01*
X145115654Y-56878587D01*
X145115156Y-56791316D01*
X145113634Y-56712803D01*
X145111049Y-56642966D01*
X145107359Y-56581725D01*
X145102522Y-56528996D01*
X145096499Y-56484699D01*
X145089248Y-56448751D01*
X145085149Y-56433882D01*
X145080728Y-56421070D01*
X145078344Y-56415278D01*
X145075777Y-56409690D01*
X145073026Y-56404304D01*
X145070094Y-56399119D01*
X145066980Y-56394133D01*
X145063684Y-56389346D01*
X145060209Y-56384755D01*
X145056554Y-56380360D01*
X145052719Y-56376160D01*
X145048707Y-56372153D01*
X145044516Y-56368337D01*
X145040149Y-56364712D01*
X145035604Y-56361277D01*
X145030884Y-56358029D01*
X145025989Y-56354969D01*
X145020919Y-56352093D01*
X145015675Y-56349402D01*
X145010258Y-56346894D01*
X145004669Y-56344567D01*
X144998907Y-56342421D01*
X144992974Y-56340453D01*
X144986870Y-56338664D01*
X144980596Y-56337051D01*
X144974152Y-56335613D01*
X144967540Y-56334349D01*
X144960759Y-56333258D01*
X144953811Y-56332338D01*
X144946696Y-56331588D01*
X144931968Y-56330594D01*
X144916580Y-56330265D01*
X144901191Y-56330634D01*
X144886457Y-56331745D01*
X144872378Y-56333603D01*
X144858954Y-56336213D01*
X144846184Y-56339580D01*
X144834070Y-56343710D01*
X144822610Y-56348607D01*
X144811805Y-56354276D01*
X144801655Y-56360723D01*
X144792160Y-56367953D01*
X144783320Y-56375970D01*
X144775134Y-56384781D01*
X144767604Y-56394389D01*
X144760728Y-56404801D01*
X144754507Y-56416021D01*
X144748940Y-56428055D01*
X144743865Y-56441479D01*
X144739118Y-56456868D01*
X144734698Y-56474222D01*
X144730605Y-56493540D01*
X144726839Y-56514822D01*
X144723402Y-56538069D01*
X144720291Y-56563280D01*
X144717508Y-56590456D01*
X144715052Y-56619597D01*
X144712924Y-56650702D01*
X144709650Y-56718806D01*
X144707686Y-56794768D01*
X144707031Y-56878588D01*
X144707031Y-59110295D01*
X143570285Y-59110295D01*
X143568967Y-59083992D01*
X143565972Y-58975384D01*
X143564983Y-58858835D01*
X143564983Y-57262763D01*
X143566627Y-57110511D01*
X143571586Y-56968083D01*
X143579901Y-56835477D01*
X143591614Y-56712694D01*
X143606764Y-56599733D01*
X143625393Y-56496596D01*
X143647542Y-56403280D01*
X143659949Y-56360306D01*
X143673252Y-56319788D01*
X143687823Y-56280988D01*
X143704036Y-56243171D01*
X143721897Y-56206336D01*
X143741410Y-56170483D01*
X143762581Y-56135613D01*
X143785414Y-56101725D01*
X143809915Y-56068819D01*
X143836089Y-56036895D01*
X143863942Y-56005954D01*
X143893477Y-55975995D01*
X143924701Y-55947018D01*
X143957618Y-55919023D01*
X143992234Y-55892011D01*
X144028553Y-55865981D01*
X144066581Y-55840933D01*
X144106323Y-55816868D01*
X144147454Y-55794030D01*
X144189644Y-55772666D01*
X144232888Y-55752775D01*
X144277182Y-55734357D01*
X144322518Y-55717413D01*
X144368894Y-55701943D01*
X144416302Y-55687945D01*
X144464739Y-55675421D01*
X144514200Y-55664371D01*
X144564678Y-55654794D01*
X144616170Y-55646690D01*
X144668669Y-55640060D01*
X144722171Y-55634903D01*
X144776671Y-55631219D01*
X144832163Y-55629009D01*
X144888643Y-55628273D01*
X144935464Y-55628804D01*
G37*
G36*
X155223194Y-55623095D02*
G01*
X155268778Y-55625362D01*
X155313317Y-55628545D01*
X155356875Y-55632649D01*
X155399511Y-55637679D01*
X155441288Y-55643640D01*
X155482267Y-55650537D01*
X155522509Y-55658376D01*
X155562076Y-55667161D01*
X155601029Y-55676897D01*
X155639429Y-55687590D01*
X155677339Y-55699245D01*
X155714818Y-55711867D01*
X155751929Y-55725461D01*
X155788734Y-55740032D01*
X155824954Y-55755545D01*
X155860274Y-55771963D01*
X155894694Y-55789292D01*
X155928214Y-55807536D01*
X155960834Y-55826701D01*
X155992553Y-55846792D01*
X156023371Y-55867815D01*
X156053289Y-55889773D01*
X156082307Y-55912673D01*
X156110425Y-55936520D01*
X156137642Y-55961318D01*
X156163958Y-55987072D01*
X156189375Y-56013789D01*
X156213891Y-56041472D01*
X156237506Y-56070127D01*
X156260221Y-56099760D01*
X156281913Y-56130046D01*
X156302464Y-56160660D01*
X156321880Y-56191602D01*
X156340165Y-56222871D01*
X156357325Y-56254467D01*
X156373364Y-56286390D01*
X156388288Y-56318641D01*
X156402102Y-56351220D01*
X156414811Y-56384126D01*
X156426420Y-56417359D01*
X156436934Y-56450920D01*
X156446359Y-56484808D01*
X156454699Y-56519024D01*
X156461960Y-56553567D01*
X156468146Y-56588437D01*
X156473263Y-56623635D01*
X156480780Y-56700913D01*
X156487559Y-56791329D01*
X156493521Y-56894924D01*
X156498582Y-57011739D01*
X156502661Y-57141814D01*
X156505676Y-57285191D01*
X156507545Y-57441910D01*
X156508187Y-57612012D01*
X156508187Y-58394333D01*
X156506222Y-58714551D01*
X156500329Y-58983692D01*
X156490507Y-59201755D01*
X156484122Y-59291632D01*
X156476756Y-59368740D01*
X156472255Y-59404552D01*
X156466619Y-59439954D01*
X156459858Y-59474947D01*
X156451981Y-59509531D01*
X156442999Y-59543706D01*
X156432922Y-59577471D01*
X156421760Y-59610827D01*
X156409525Y-59643774D01*
X156396225Y-59676312D01*
X156381871Y-59708440D01*
X156366474Y-59740159D01*
X156350043Y-59771469D01*
X156332589Y-59802369D01*
X156314123Y-59832860D01*
X156294653Y-59862942D01*
X156274191Y-59892615D01*
X156252131Y-59921672D01*
X156229170Y-59949907D01*
X156205309Y-59977312D01*
X156180548Y-60003883D01*
X156154886Y-60029616D01*
X156128324Y-60054504D01*
X156100861Y-60078543D01*
X156072498Y-60101728D01*
X156043235Y-60124053D01*
X156013071Y-60145514D01*
X155982007Y-60166105D01*
X155950043Y-60185821D01*
X155917178Y-60204657D01*
X155883412Y-60222608D01*
X155848747Y-60239669D01*
X155813180Y-60255834D01*
X155776180Y-60271060D01*
X155738515Y-60285303D01*
X155700174Y-60298563D01*
X155661148Y-60310842D01*
X155621426Y-60322138D01*
X155580998Y-60332451D01*
X155539853Y-60341783D01*
X155497983Y-60350132D01*
X155455375Y-60357499D01*
X155412021Y-60363884D01*
X155367909Y-60369286D01*
X155323030Y-60373707D01*
X155277373Y-60377144D01*
X155230929Y-60379600D01*
X155183686Y-60381073D01*
X155135635Y-60381565D01*
X155041091Y-60379757D01*
X154995507Y-60377490D01*
X154950968Y-60374307D01*
X154907410Y-60370203D01*
X154864774Y-60365173D01*
X154822997Y-60359212D01*
X154782018Y-60352315D01*
X154741776Y-60344476D01*
X154702209Y-60335691D01*
X154663256Y-60325955D01*
X154624856Y-60315262D01*
X154586946Y-60303607D01*
X154549467Y-60290985D01*
X154512356Y-60277391D01*
X154475551Y-60262820D01*
X154439331Y-60247307D01*
X154404011Y-60230889D01*
X154369591Y-60213561D01*
X154336071Y-60195316D01*
X154303452Y-60176151D01*
X154271733Y-60156060D01*
X154240914Y-60135037D01*
X154210996Y-60113079D01*
X154181978Y-60090179D01*
X154153860Y-60066332D01*
X154126643Y-60041534D01*
X154100327Y-60015780D01*
X154074910Y-59989063D01*
X154050395Y-59961380D01*
X154026779Y-59932725D01*
X154004064Y-59903092D01*
X153982372Y-59872806D01*
X153961821Y-59842192D01*
X153942405Y-59811250D01*
X153924120Y-59779982D01*
X153906960Y-59748385D01*
X153890921Y-59716462D01*
X153875997Y-59684211D01*
X153862183Y-59651632D01*
X153849474Y-59618726D01*
X153837865Y-59585493D01*
X153827351Y-59551932D01*
X153817926Y-59518044D01*
X153809586Y-59483828D01*
X153802325Y-59449285D01*
X153796139Y-59414415D01*
X153791022Y-59379217D01*
X153783505Y-59301939D01*
X153776726Y-59211523D01*
X153770764Y-59107928D01*
X153767235Y-59026475D01*
X154947039Y-59026475D01*
X154947530Y-59121264D01*
X154949003Y-59206557D01*
X154951459Y-59282355D01*
X154954897Y-59348658D01*
X154959317Y-59405466D01*
X154964719Y-59452778D01*
X154971103Y-59490595D01*
X154978470Y-59518917D01*
X154980526Y-59524719D01*
X154982765Y-59530336D01*
X154985186Y-59535769D01*
X154987787Y-59541018D01*
X154990568Y-59546083D01*
X154993526Y-59550964D01*
X154996661Y-59555660D01*
X154999970Y-59560173D01*
X155003454Y-59564501D01*
X155007111Y-59568645D01*
X155010938Y-59572604D01*
X155014936Y-59576380D01*
X155019103Y-59579971D01*
X155023437Y-59583379D01*
X155027938Y-59586602D01*
X155032604Y-59589641D01*
X155037433Y-59592495D01*
X155042425Y-59595166D01*
X155047578Y-59597652D01*
X155052890Y-59599954D01*
X155058362Y-59602072D01*
X155063990Y-59604006D01*
X155069775Y-59605756D01*
X155075715Y-59607321D01*
X155081807Y-59608703D01*
X155088053Y-59609900D01*
X155094449Y-59610913D01*
X155100994Y-59611742D01*
X155107688Y-59612386D01*
X155114530Y-59612847D01*
X155128648Y-59613215D01*
X155142806Y-59612805D01*
X155156451Y-59611571D01*
X155169565Y-59609509D01*
X155182127Y-59606612D01*
X155194115Y-59602877D01*
X155205510Y-59598297D01*
X155216291Y-59592868D01*
X155221445Y-59589833D01*
X155226437Y-59586585D01*
X155231266Y-59583121D01*
X155235929Y-59579442D01*
X155240423Y-59575547D01*
X155244746Y-59571435D01*
X155248894Y-59567105D01*
X155252866Y-59562557D01*
X155256659Y-59557791D01*
X155260271Y-59552806D01*
X155263698Y-59547600D01*
X155266939Y-59542174D01*
X155269990Y-59536526D01*
X155272850Y-59530657D01*
X155275515Y-59524565D01*
X155277983Y-59518250D01*
X155282318Y-59504947D01*
X155286164Y-59490664D01*
X155289835Y-59474013D01*
X155293323Y-59454998D01*
X155296616Y-59433624D01*
X155299704Y-59409897D01*
X155302578Y-59383822D01*
X155307639Y-59324647D01*
X155311718Y-59256141D01*
X155314733Y-59178344D01*
X155316603Y-59091298D01*
X155317244Y-58995043D01*
X155317244Y-56892558D01*
X155320736Y-56889065D01*
X155320238Y-56812776D01*
X155318717Y-56743690D01*
X155316132Y-56681807D01*
X155312442Y-56627127D01*
X155307606Y-56579651D01*
X155301583Y-56539378D01*
X155294332Y-56506309D01*
X155290234Y-56492475D01*
X155285813Y-56480442D01*
X155283449Y-56474968D01*
X155280943Y-56469677D01*
X155278293Y-56464570D01*
X155275499Y-56459644D01*
X155272563Y-56454900D01*
X155269483Y-56450337D01*
X155266260Y-56445955D01*
X155262893Y-56441752D01*
X155259384Y-56437728D01*
X155255731Y-56433883D01*
X155251935Y-56430215D01*
X155247996Y-56426725D01*
X155243913Y-56423411D01*
X155239687Y-56420273D01*
X155235318Y-56417310D01*
X155230806Y-56414521D01*
X155226150Y-56411907D01*
X155221351Y-56409466D01*
X155216409Y-56407198D01*
X155211324Y-56405101D01*
X155206095Y-56403176D01*
X155200724Y-56401422D01*
X155195208Y-56399838D01*
X155189550Y-56398423D01*
X155183749Y-56397177D01*
X155177804Y-56396100D01*
X155171716Y-56395190D01*
X155165484Y-56394446D01*
X155159110Y-56393869D01*
X155152592Y-56393458D01*
X155139127Y-56393130D01*
X155127542Y-56393416D01*
X155116357Y-56394276D01*
X155105561Y-56395708D01*
X155095143Y-56397714D01*
X155085094Y-56400292D01*
X155075403Y-56403444D01*
X155066059Y-56407168D01*
X155057054Y-56411465D01*
X155048375Y-56416336D01*
X155040014Y-56421779D01*
X155031960Y-56427796D01*
X155024203Y-56434385D01*
X155016732Y-56441547D01*
X155009537Y-56449283D01*
X155002608Y-56457591D01*
X154995935Y-56466472D01*
X154990206Y-56476706D01*
X154984810Y-56489078D01*
X154979751Y-56503599D01*
X154975035Y-56520279D01*
X154970667Y-56539128D01*
X154966651Y-56560156D01*
X154962994Y-56583374D01*
X154959700Y-56608792D01*
X154956775Y-56636420D01*
X154954222Y-56666268D01*
X154952049Y-56698347D01*
X154950259Y-56732666D01*
X154948858Y-56769237D01*
X154947851Y-56808069D01*
X154947242Y-56849172D01*
X154947039Y-56892557D01*
X154947039Y-59026475D01*
X153767235Y-59026475D01*
X153765703Y-58991113D01*
X153761624Y-58861038D01*
X153758609Y-58717661D01*
X153756740Y-58560942D01*
X153756099Y-58390840D01*
X153756099Y-57608520D01*
X153758063Y-57288301D01*
X153763956Y-57019161D01*
X153773778Y-56801098D01*
X153780163Y-56711220D01*
X153787529Y-56634112D01*
X153792030Y-56598301D01*
X153797666Y-56562898D01*
X153804428Y-56527905D01*
X153812304Y-56493321D01*
X153821286Y-56459146D01*
X153831363Y-56425381D01*
X153842525Y-56392025D01*
X153854761Y-56359078D01*
X153868061Y-56326541D01*
X153882414Y-56294412D01*
X153897812Y-56262693D01*
X153914243Y-56231384D01*
X153931697Y-56200483D01*
X153950164Y-56169992D01*
X153969634Y-56139910D01*
X153990096Y-56110237D01*
X154012156Y-56081180D01*
X154035117Y-56052945D01*
X154058977Y-56025540D01*
X154083739Y-55998969D01*
X154109400Y-55973236D01*
X154135962Y-55948348D01*
X154163424Y-55924309D01*
X154191787Y-55901124D01*
X154221050Y-55878799D01*
X154251214Y-55857338D01*
X154282278Y-55836747D01*
X154314242Y-55817031D01*
X154347107Y-55798195D01*
X154380873Y-55780244D01*
X154415538Y-55763183D01*
X154451105Y-55747018D01*
X154488105Y-55731792D01*
X154525770Y-55717550D01*
X154564111Y-55704289D01*
X154603137Y-55692011D01*
X154642859Y-55680715D01*
X154683287Y-55670401D01*
X154724432Y-55661069D01*
X154766302Y-55652720D01*
X154808910Y-55645353D01*
X154852264Y-55638968D01*
X154896376Y-55633566D01*
X154941255Y-55629146D01*
X154986912Y-55625708D01*
X155033356Y-55623252D01*
X155080599Y-55621779D01*
X155128650Y-55621287D01*
X155223194Y-55623095D01*
G37*
G36*
X158199806Y-55614875D02*
G01*
X158255946Y-55616600D01*
X158311084Y-55619482D01*
X158365209Y-55623524D01*
X158418311Y-55628733D01*
X158470380Y-55635113D01*
X158521405Y-55642671D01*
X158571376Y-55651409D01*
X158620283Y-55661335D01*
X158668115Y-55672453D01*
X158714863Y-55684768D01*
X158760517Y-55698285D01*
X158805065Y-55713010D01*
X158848498Y-55728947D01*
X158890805Y-55746102D01*
X158931976Y-55764479D01*
X158971757Y-55783756D01*
X159009890Y-55803606D01*
X159046365Y-55824029D01*
X159081173Y-55845025D01*
X159114302Y-55866594D01*
X159145743Y-55888736D01*
X159175486Y-55911451D01*
X159203520Y-55934739D01*
X159229834Y-55958599D01*
X159254420Y-55983033D01*
X159277266Y-56008040D01*
X159298362Y-56033620D01*
X159317699Y-56059773D01*
X159335265Y-56086499D01*
X159351051Y-56113797D01*
X159365046Y-56141669D01*
X159377733Y-56171095D01*
X159389602Y-56203054D01*
X159400653Y-56237540D01*
X159410885Y-56274548D01*
X159420298Y-56314073D01*
X159428893Y-56356110D01*
X159436670Y-56400654D01*
X159443628Y-56447700D01*
X159449767Y-56497242D01*
X159455088Y-56549275D01*
X159459590Y-56603795D01*
X159463274Y-56660797D01*
X159466139Y-56720274D01*
X159468185Y-56782222D01*
X159469413Y-56846637D01*
X159469823Y-56913512D01*
X159469823Y-57095122D01*
X159473320Y-57098615D01*
X158369688Y-57098615D01*
X158369688Y-56759842D01*
X158369034Y-56703526D01*
X158367069Y-56652448D01*
X158363795Y-56606609D01*
X158359210Y-56566009D01*
X158356427Y-56547673D01*
X158353317Y-56530647D01*
X158349878Y-56514931D01*
X158346113Y-56500524D01*
X158342020Y-56487427D01*
X158337599Y-56475640D01*
X158332852Y-56465163D01*
X158327776Y-56455995D01*
X158325096Y-56452117D01*
X158322293Y-56448343D01*
X158319371Y-56444674D01*
X158316330Y-56441111D01*
X158313171Y-56437655D01*
X158309895Y-56434308D01*
X158306505Y-56431071D01*
X158303001Y-56427946D01*
X158299384Y-56424933D01*
X158295656Y-56422033D01*
X158291818Y-56419249D01*
X158287871Y-56416582D01*
X158283817Y-56414031D01*
X158279657Y-56411600D01*
X158275391Y-56409289D01*
X158271023Y-56407100D01*
X158266551Y-56405033D01*
X158261979Y-56403091D01*
X158252537Y-56399583D01*
X158242706Y-56396587D01*
X158232496Y-56394112D01*
X158221918Y-56392170D01*
X158210982Y-56390770D01*
X158199698Y-56389922D01*
X158188077Y-56389637D01*
X158174569Y-56389966D01*
X158161542Y-56390954D01*
X158148985Y-56392607D01*
X158136889Y-56394931D01*
X158125243Y-56397929D01*
X158114038Y-56401609D01*
X158103262Y-56405973D01*
X158092905Y-56411029D01*
X158082958Y-56416780D01*
X158073410Y-56423232D01*
X158064250Y-56430390D01*
X158055469Y-56438260D01*
X158047057Y-56446845D01*
X158039003Y-56456152D01*
X158031296Y-56466185D01*
X158023928Y-56476950D01*
X158016969Y-56488411D01*
X158010496Y-56500531D01*
X158004505Y-56513317D01*
X157998989Y-56526773D01*
X157993944Y-56540904D01*
X157989364Y-56555715D01*
X157985245Y-56571212D01*
X157981581Y-56587400D01*
X157978367Y-56604284D01*
X157975599Y-56621868D01*
X157973270Y-56640159D01*
X157971376Y-56659160D01*
X157969912Y-56678878D01*
X157968873Y-56699317D01*
X157968253Y-56720483D01*
X157968047Y-56742380D01*
X157969030Y-56798205D01*
X157970257Y-56824767D01*
X157971976Y-56850429D01*
X157974186Y-56875190D01*
X157976888Y-56899051D01*
X157980080Y-56922012D01*
X157983763Y-56944072D01*
X157987938Y-56965231D01*
X157992604Y-56985490D01*
X157997761Y-57004849D01*
X158003409Y-57023308D01*
X158009548Y-57040866D01*
X158016178Y-57057523D01*
X158023299Y-57073280D01*
X158030912Y-57088137D01*
X158038975Y-57102748D01*
X158048756Y-57117762D01*
X158060257Y-57133176D01*
X158073477Y-57148983D01*
X158088415Y-57165179D01*
X158105073Y-57181759D01*
X158123450Y-57198718D01*
X158143545Y-57216050D01*
X158165360Y-57233750D01*
X158188893Y-57251814D01*
X158214145Y-57270236D01*
X158241117Y-57289010D01*
X158269807Y-57308133D01*
X158300216Y-57327599D01*
X158332344Y-57347402D01*
X158366191Y-57367537D01*
X158555939Y-57482783D01*
X158727065Y-57592749D01*
X158879609Y-57697394D01*
X159013613Y-57796678D01*
X159073676Y-57844297D01*
X159129118Y-57890560D01*
X159179946Y-57935462D01*
X159226165Y-57978998D01*
X159267779Y-58021163D01*
X159304794Y-58061951D01*
X159337214Y-58101359D01*
X159365046Y-58139380D01*
X159389807Y-58178793D01*
X159413007Y-58221071D01*
X159434641Y-58266215D01*
X159454705Y-58314223D01*
X159473193Y-58365096D01*
X159490100Y-58418834D01*
X159505422Y-58475437D01*
X159519152Y-58534905D01*
X159531286Y-58597238D01*
X159541819Y-58662436D01*
X159550745Y-58730499D01*
X159558060Y-58801427D01*
X159563758Y-58875219D01*
X159567835Y-58951877D01*
X159570285Y-59031400D01*
X159571102Y-59113787D01*
X159569301Y-59231652D01*
X159563899Y-59341618D01*
X159554895Y-59443644D01*
X159549042Y-59491667D01*
X159542289Y-59537689D01*
X159534636Y-59581706D01*
X159526082Y-59623713D01*
X159516627Y-59663703D01*
X159506273Y-59701673D01*
X159495017Y-59737617D01*
X159482862Y-59771530D01*
X159469806Y-59803407D01*
X159455849Y-59833242D01*
X159440623Y-59861769D01*
X159423755Y-59889722D01*
X159405240Y-59917103D01*
X159385072Y-59943911D01*
X159363246Y-59970145D01*
X159339758Y-59995807D01*
X159314602Y-60020896D01*
X159287773Y-60045412D01*
X159259267Y-60069354D01*
X159229077Y-60092724D01*
X159197198Y-60115521D01*
X159163627Y-60137744D01*
X159128356Y-60159395D01*
X159091383Y-60180473D01*
X159052700Y-60200978D01*
X159012304Y-60220910D01*
X158970679Y-60239941D01*
X158928307Y-60257745D01*
X158885177Y-60274320D01*
X158841281Y-60289668D01*
X158796606Y-60303788D01*
X158751144Y-60316681D01*
X158704884Y-60328345D01*
X158657815Y-60338781D01*
X158609928Y-60347990D01*
X158561212Y-60355971D01*
X158511657Y-60362724D01*
X158461253Y-60368249D01*
X158409989Y-60372547D01*
X158357856Y-60375616D01*
X158304842Y-60377458D01*
X158250939Y-60378072D01*
X158191880Y-60377375D01*
X158133891Y-60375282D01*
X158076977Y-60371787D01*
X158021142Y-60366885D01*
X157966392Y-60360571D01*
X157912731Y-60352840D01*
X157860165Y-60343687D01*
X157808699Y-60333106D01*
X157758338Y-60321093D01*
X157709088Y-60307642D01*
X157660953Y-60292749D01*
X157613938Y-60276408D01*
X157568049Y-60258613D01*
X157523290Y-60239361D01*
X157479667Y-60218646D01*
X157437185Y-60196462D01*
X157396137Y-60173788D01*
X157356817Y-60150295D01*
X157319237Y-60125984D01*
X157283407Y-60100855D01*
X157249336Y-60074906D01*
X157217036Y-60048140D01*
X157186515Y-60020554D01*
X157157786Y-59992151D01*
X157130857Y-59962928D01*
X157105740Y-59932887D01*
X157082443Y-59902028D01*
X157060978Y-59870350D01*
X157041355Y-59837853D01*
X157023584Y-59804538D01*
X157007676Y-59770404D01*
X156993639Y-59735452D01*
X156980952Y-59699805D01*
X156969083Y-59662280D01*
X156958033Y-59622883D01*
X156947801Y-59581618D01*
X156938387Y-59538492D01*
X156929792Y-59493508D01*
X156922016Y-59446672D01*
X156915058Y-59397989D01*
X156908918Y-59347465D01*
X156903598Y-59295104D01*
X156899095Y-59240911D01*
X156895412Y-59184892D01*
X156890500Y-59067395D01*
X156888863Y-58942654D01*
X156888863Y-58642300D01*
X157992494Y-58642300D01*
X157992494Y-59197607D01*
X157993156Y-59258992D01*
X157995168Y-59314769D01*
X157998572Y-59364899D01*
X158003408Y-59409340D01*
X158006376Y-59429414D01*
X158009718Y-59448051D01*
X158013438Y-59465245D01*
X158017542Y-59480991D01*
X158022034Y-59495284D01*
X158026921Y-59508119D01*
X158032206Y-59519491D01*
X158037896Y-59529395D01*
X158040914Y-59533907D01*
X158044075Y-59538276D01*
X158047378Y-59542502D01*
X158050822Y-59546584D01*
X158054407Y-59550523D01*
X158058131Y-59554320D01*
X158061996Y-59557972D01*
X158065999Y-59561482D01*
X158070140Y-59564848D01*
X158074419Y-59568071D01*
X158078834Y-59571151D01*
X158083386Y-59574088D01*
X158088074Y-59576881D01*
X158092896Y-59579531D01*
X158097853Y-59582038D01*
X158102943Y-59584401D01*
X158108166Y-59586622D01*
X158113522Y-59588699D01*
X158119009Y-59590633D01*
X158124628Y-59592423D01*
X158136256Y-59595575D01*
X158148401Y-59598153D01*
X158161057Y-59600159D01*
X158174220Y-59601591D01*
X158187884Y-59602451D01*
X158202045Y-59602737D01*
X158216247Y-59602369D01*
X158230039Y-59601264D01*
X158243423Y-59599422D01*
X158256397Y-59596843D01*
X158268961Y-59593528D01*
X158281117Y-59589476D01*
X158292863Y-59584688D01*
X158304200Y-59579163D01*
X158315127Y-59572901D01*
X158325646Y-59565902D01*
X158335755Y-59558167D01*
X158345455Y-59549695D01*
X158354745Y-59540486D01*
X158363627Y-59530540D01*
X158372099Y-59519858D01*
X158380162Y-59508439D01*
X158387160Y-59496324D01*
X158393743Y-59483548D01*
X158399907Y-59470108D01*
X158405646Y-59455997D01*
X158410956Y-59441211D01*
X158415831Y-59425745D01*
X158420265Y-59409593D01*
X158424255Y-59392750D01*
X158427794Y-59375212D01*
X158430878Y-59356973D01*
X158433502Y-59338027D01*
X158435660Y-59318371D01*
X158437347Y-59297998D01*
X158438559Y-59276904D01*
X158439290Y-59255084D01*
X158439534Y-59232532D01*
X158439085Y-59183175D01*
X158437740Y-59135956D01*
X158435506Y-59090886D01*
X158432386Y-59047975D01*
X158428386Y-59007233D01*
X158423511Y-58968671D01*
X158417767Y-58932298D01*
X158411158Y-58898125D01*
X158403689Y-58866162D01*
X158395366Y-58836420D01*
X158386194Y-58808908D01*
X158376178Y-58783636D01*
X158365323Y-58760616D01*
X158353633Y-58739857D01*
X158341115Y-58721370D01*
X158327774Y-58705164D01*
X158312098Y-58688832D01*
X158293886Y-58671263D01*
X158273135Y-58652444D01*
X158249847Y-58632368D01*
X158224022Y-58611022D01*
X158195659Y-58588398D01*
X158131321Y-58539271D01*
X158056833Y-58484905D01*
X157972194Y-58425219D01*
X157877406Y-58360130D01*
X157772467Y-58289557D01*
X157665892Y-58218677D01*
X157568811Y-58152749D01*
X157481225Y-58091814D01*
X157403135Y-58035914D01*
X157334540Y-57985088D01*
X157275440Y-57939379D01*
X157225836Y-57898826D01*
X157185727Y-57863472D01*
X157168211Y-57846691D01*
X157151028Y-57829092D01*
X157134182Y-57810675D01*
X157117679Y-57791439D01*
X157101524Y-57771384D01*
X157085721Y-57750511D01*
X157070277Y-57728819D01*
X157055196Y-57706309D01*
X157040483Y-57682980D01*
X157026144Y-57658833D01*
X157012183Y-57633867D01*
X156998606Y-57608083D01*
X156985418Y-57581480D01*
X156972624Y-57554058D01*
X156960229Y-57525818D01*
X156948238Y-57496759D01*
X156936819Y-57466800D01*
X156926137Y-57435859D01*
X156916192Y-57403935D01*
X156906983Y-57371029D01*
X156898511Y-57337141D01*
X156890776Y-57302271D01*
X156883778Y-57266418D01*
X156877516Y-57229583D01*
X156871991Y-57191766D01*
X156867202Y-57152966D01*
X156863151Y-57113184D01*
X156859836Y-57072420D01*
X156857257Y-57030674D01*
X156855416Y-56987945D01*
X156854311Y-56944235D01*
X156853942Y-56899541D01*
X156856064Y-56772843D01*
X156862401Y-56654739D01*
X156867137Y-56598936D01*
X156872912Y-56545312D01*
X156879720Y-56493878D01*
X156887557Y-56444644D01*
X156896417Y-56397619D01*
X156906295Y-56352815D01*
X156917186Y-56310242D01*
X156929084Y-56269909D01*
X156941986Y-56231828D01*
X156955885Y-56196008D01*
X156970776Y-56162459D01*
X156986655Y-56131192D01*
X157004296Y-56101439D01*
X157023170Y-56072433D01*
X157043282Y-56044184D01*
X157064637Y-56016703D01*
X157087240Y-55989999D01*
X157111096Y-55964084D01*
X157136212Y-55938966D01*
X157162590Y-55914657D01*
X157190238Y-55891166D01*
X157219159Y-55868504D01*
X157249359Y-55846681D01*
X157280844Y-55825707D01*
X157313617Y-55805593D01*
X157347685Y-55786348D01*
X157383053Y-55767984D01*
X157419725Y-55750509D01*
X157457542Y-55734015D01*
X157496342Y-55718586D01*
X157536123Y-55704220D01*
X157576887Y-55690918D01*
X157618634Y-55678681D01*
X157661362Y-55667508D01*
X157705073Y-55657399D01*
X157749766Y-55648354D01*
X157795442Y-55640373D01*
X157842100Y-55633456D01*
X157889739Y-55627603D01*
X157938362Y-55622815D01*
X157987966Y-55619090D01*
X158038553Y-55616430D01*
X158090121Y-55614834D01*
X158142672Y-55614302D01*
X158199806Y-55614875D01*
G37*
G36*
X144639003Y-71015176D02*
G01*
X144657288Y-71016595D01*
X144675687Y-71018867D01*
X144694222Y-71021985D01*
X144712914Y-71025945D01*
X144750851Y-71036364D01*
X144789668Y-71050077D01*
X144829534Y-71067039D01*
X144870618Y-71087204D01*
X144913088Y-71110525D01*
X145232652Y-71293717D01*
X145552216Y-71473308D01*
X145871780Y-71652244D01*
X146191344Y-71833472D01*
X146549598Y-72030199D01*
X146906870Y-72228562D01*
X147263487Y-72430199D01*
X147619776Y-72636747D01*
X147653197Y-72656620D01*
X147686597Y-72678187D01*
X147719875Y-72701339D01*
X147752928Y-72725970D01*
X147785653Y-72751972D01*
X147817948Y-72779237D01*
X147849712Y-72807659D01*
X147880841Y-72837129D01*
X147911233Y-72867541D01*
X147940786Y-72898787D01*
X147969398Y-72930759D01*
X147996966Y-72963350D01*
X148023389Y-72996453D01*
X148048562Y-73029960D01*
X148072386Y-73063764D01*
X148094756Y-73097757D01*
X148913312Y-74423161D01*
X149320133Y-75082916D01*
X149718770Y-75738087D01*
X150291539Y-76674078D01*
X150294398Y-76683665D01*
X150297713Y-76692817D01*
X150301446Y-76701590D01*
X150305564Y-76710041D01*
X150310029Y-76718225D01*
X150314807Y-76726200D01*
X150319860Y-76734021D01*
X150325155Y-76741746D01*
X150336321Y-76757128D01*
X150348019Y-76772796D01*
X150359963Y-76789202D01*
X150365938Y-76797821D01*
X150371866Y-76806794D01*
X150378916Y-76793819D01*
X150386846Y-76779938D01*
X150404609Y-76750422D01*
X150423681Y-76720169D01*
X150442590Y-76691103D01*
X150474022Y-76644227D01*
X150487119Y-76625182D01*
X151108785Y-75622835D01*
X152701363Y-73062833D01*
X152720264Y-73034726D01*
X152740265Y-73006768D01*
X152761320Y-72979025D01*
X152783382Y-72951563D01*
X152806407Y-72924450D01*
X152830347Y-72897750D01*
X152855157Y-72871532D01*
X152880790Y-72845861D01*
X152907201Y-72820803D01*
X152934344Y-72796427D01*
X152962172Y-72772797D01*
X152990640Y-72749980D01*
X153019702Y-72728044D01*
X153049310Y-72707054D01*
X153079421Y-72687077D01*
X153109986Y-72668179D01*
X153445103Y-72471454D01*
X153784476Y-72275710D01*
X154127123Y-72083241D01*
X154472062Y-71896338D01*
X154820220Y-71699885D01*
X155172308Y-71503432D01*
X155883031Y-71110525D01*
X155919150Y-71090427D01*
X155954246Y-71073342D01*
X155988441Y-71059256D01*
X156021859Y-71048152D01*
X156038314Y-71043713D01*
X156054621Y-71040015D01*
X156070795Y-71037054D01*
X156086852Y-71034830D01*
X156102806Y-71033339D01*
X156118673Y-71032581D01*
X156134469Y-71032553D01*
X156150208Y-71033254D01*
X156165907Y-71034681D01*
X156181579Y-71036832D01*
X156197242Y-71039707D01*
X156212910Y-71043302D01*
X156228598Y-71047615D01*
X156244322Y-71052646D01*
X156275938Y-71064850D01*
X156307883Y-71079898D01*
X156340277Y-71097776D01*
X156373244Y-71118467D01*
X156406907Y-71141957D01*
X158048382Y-72371317D01*
X158550647Y-72743105D01*
X159048983Y-73119150D01*
X160049584Y-73880077D01*
X160083447Y-73903559D01*
X160116998Y-73924197D01*
X160150335Y-73941929D01*
X160183554Y-73956694D01*
X160216752Y-73968430D01*
X160233374Y-73973143D01*
X160250027Y-73977076D01*
X160266724Y-73980221D01*
X160283476Y-73982571D01*
X160300296Y-73984117D01*
X160317197Y-73984852D01*
X160334189Y-73984769D01*
X160351285Y-73983860D01*
X160368498Y-73982116D01*
X160385839Y-73979532D01*
X160403322Y-73976097D01*
X160420956Y-73971806D01*
X160438756Y-73966651D01*
X160456733Y-73960623D01*
X160493267Y-73945920D01*
X160530656Y-73927635D01*
X160568996Y-73905708D01*
X160608385Y-73880077D01*
X161642162Y-73206024D01*
X161974552Y-72986651D01*
X162305303Y-72771208D01*
X162632779Y-72555764D01*
X162794778Y-72446815D01*
X162955344Y-72336392D01*
X162995302Y-72310196D01*
X163035331Y-72286603D01*
X163075503Y-72265600D01*
X163115891Y-72247169D01*
X163156564Y-72231297D01*
X163197596Y-72217967D01*
X163239057Y-72207165D01*
X163281020Y-72198874D01*
X163323556Y-72193081D01*
X163366737Y-72189768D01*
X163410633Y-72188921D01*
X163455318Y-72190525D01*
X163500862Y-72194564D01*
X163547337Y-72201023D01*
X163594814Y-72209887D01*
X163643366Y-72221139D01*
X165860667Y-72793473D01*
X168054392Y-73352709D01*
X169598077Y-73747363D01*
X169618418Y-73754477D01*
X169641624Y-73762369D01*
X169689754Y-73778358D01*
X169744761Y-73796256D01*
X169762226Y-73813719D01*
X169758732Y-73827689D01*
X169954312Y-73894045D01*
X169528226Y-74582068D01*
X169096902Y-75263106D01*
X168885824Y-75601661D01*
X168676055Y-75944144D01*
X167855318Y-77271295D01*
X165050841Y-81797573D01*
X165038808Y-81816474D01*
X165027587Y-81836475D01*
X165017175Y-81857530D01*
X165007567Y-81879592D01*
X164998756Y-81902616D01*
X164990738Y-81926556D01*
X164983509Y-81951366D01*
X164977062Y-81977000D01*
X164971393Y-82003411D01*
X164966496Y-82030553D01*
X164962366Y-82058381D01*
X164958999Y-82086849D01*
X164956390Y-82115910D01*
X164954532Y-82145518D01*
X164953421Y-82175628D01*
X164953051Y-82206193D01*
X164953051Y-89275014D01*
X164952278Y-89306133D01*
X164949975Y-89337824D01*
X164946168Y-89369925D01*
X164940882Y-89402272D01*
X164934144Y-89434700D01*
X164925978Y-89467047D01*
X164916410Y-89499147D01*
X164905467Y-89530839D01*
X164893172Y-89561958D01*
X164879553Y-89592340D01*
X164864634Y-89621821D01*
X164848441Y-89650239D01*
X164831000Y-89677429D01*
X164812336Y-89703227D01*
X164792475Y-89727470D01*
X164771442Y-89749994D01*
X161226556Y-93539356D01*
X159913374Y-94950326D01*
X159604398Y-95272891D01*
X159293457Y-95600368D01*
X158985135Y-95931119D01*
X158833388Y-96097210D01*
X158684016Y-96263506D01*
X158663390Y-96288332D01*
X158643429Y-96314284D01*
X158624143Y-96341258D01*
X158605543Y-96369154D01*
X158587639Y-96397868D01*
X158570441Y-96427299D01*
X158553959Y-96457343D01*
X158538204Y-96487899D01*
X158523185Y-96518865D01*
X158508913Y-96550137D01*
X158495399Y-96581614D01*
X158482652Y-96613193D01*
X158470682Y-96644772D01*
X158459501Y-96676249D01*
X158439542Y-96738487D01*
X157421477Y-99577889D01*
X156340548Y-102626842D01*
X156318960Y-102683588D01*
X156296026Y-102737353D01*
X156271629Y-102788262D01*
X156245651Y-102836445D01*
X156217975Y-102882029D01*
X156188482Y-102925142D01*
X156157055Y-102965912D01*
X156123577Y-103004467D01*
X156087930Y-103040934D01*
X156049996Y-103075442D01*
X156009657Y-103108119D01*
X155966797Y-103139092D01*
X155921296Y-103168490D01*
X155873038Y-103196439D01*
X155821905Y-103223069D01*
X155767779Y-103248507D01*
X155061147Y-103560704D01*
X154350259Y-103881087D01*
X152945837Y-104526764D01*
X152358879Y-104788261D01*
X151775851Y-105052380D01*
X150616341Y-105578004D01*
X150604310Y-105586611D01*
X150591799Y-105594143D01*
X150578816Y-105600673D01*
X150565373Y-105606271D01*
X150551480Y-105611010D01*
X150537147Y-105614961D01*
X150522384Y-105618196D01*
X150507201Y-105620786D01*
X150491610Y-105622804D01*
X150475619Y-105624320D01*
X150459239Y-105625406D01*
X150442481Y-105626134D01*
X150407869Y-105626803D01*
X150371866Y-105626898D01*
X150353734Y-105626694D01*
X150336006Y-105626086D01*
X150318678Y-105625079D01*
X150301743Y-105623678D01*
X150285197Y-105621889D01*
X150269035Y-105619715D01*
X150253251Y-105617163D01*
X150237841Y-105614238D01*
X150222799Y-105610944D01*
X150208121Y-105607287D01*
X150193800Y-105603272D01*
X150179833Y-105598904D01*
X150166213Y-105594188D01*
X150152937Y-105589129D01*
X150139998Y-105583733D01*
X150127391Y-105578004D01*
X149491211Y-105292385D01*
X148859614Y-105003490D01*
X147602314Y-104428971D01*
X144913088Y-103213582D01*
X144867768Y-103188510D01*
X144824746Y-103162961D01*
X144783944Y-103136789D01*
X144745285Y-103109844D01*
X144708693Y-103081979D01*
X144674091Y-103053044D01*
X144641403Y-103022891D01*
X144610551Y-102991373D01*
X144581459Y-102958340D01*
X144554050Y-102923644D01*
X144528248Y-102887137D01*
X144503975Y-102848671D01*
X144485284Y-102815438D01*
X145220428Y-102815438D01*
X150061032Y-105029684D01*
X150141109Y-99452163D01*
X150619833Y-99452163D01*
X150717623Y-105047147D01*
X155540765Y-102832905D01*
X150619833Y-99452163D01*
X150141109Y-99452163D01*
X150141360Y-99434695D01*
X145220428Y-102815438D01*
X144485284Y-102815438D01*
X144481155Y-102808097D01*
X144459712Y-102765268D01*
X144439568Y-102720033D01*
X144420646Y-102672246D01*
X144354290Y-102476666D01*
X143324438Y-99530309D01*
X142793959Y-98045178D01*
X142255296Y-96570851D01*
X142235446Y-96521907D01*
X142212731Y-96473320D01*
X142187397Y-96425122D01*
X142159689Y-96377344D01*
X142129853Y-96330017D01*
X142126491Y-96325052D01*
X142709923Y-96325052D01*
X142710939Y-96351247D01*
X142714125Y-96378435D01*
X142719439Y-96406810D01*
X142726840Y-96436566D01*
X142736287Y-96467898D01*
X142747740Y-96501000D01*
X143016607Y-97236935D01*
X143279909Y-97969595D01*
X143798982Y-99438195D01*
X144207603Y-100601196D01*
X144453825Y-101275681D01*
X144700047Y-101963267D01*
X144895627Y-102487145D01*
X144927059Y-102487145D01*
X144939615Y-102477020D01*
X144953512Y-102466399D01*
X144968453Y-102455441D01*
X144984140Y-102444304D01*
X145016569Y-102422127D01*
X145048424Y-102401138D01*
X145077333Y-102382605D01*
X145100921Y-102367796D01*
X145122640Y-102354427D01*
X146369462Y-101502256D01*
X148096939Y-100313062D01*
X149847991Y-99123865D01*
X149889472Y-99093823D01*
X149927561Y-99063776D01*
X149962387Y-99033474D01*
X149994076Y-99002665D01*
X150022757Y-98971098D01*
X150048557Y-98938524D01*
X150071606Y-98904692D01*
X150092030Y-98869350D01*
X150109957Y-98832248D01*
X150125515Y-98793136D01*
X150138833Y-98751762D01*
X150150038Y-98707876D01*
X150159258Y-98661228D01*
X150166621Y-98611566D01*
X150172254Y-98558640D01*
X150176286Y-98502199D01*
X150176289Y-98505694D01*
X150180243Y-98427478D01*
X150180248Y-98406493D01*
X150590649Y-98406493D01*
X150591700Y-98453151D01*
X150594566Y-98500922D01*
X150605860Y-98599987D01*
X150611982Y-98639582D01*
X150618657Y-98677238D01*
X150626028Y-98713063D01*
X150634237Y-98747164D01*
X150643429Y-98779647D01*
X150653746Y-98810622D01*
X150665332Y-98840195D01*
X150678330Y-98868473D01*
X150685403Y-98882160D01*
X150692883Y-98895564D01*
X150700788Y-98908699D01*
X150709135Y-98921576D01*
X150717942Y-98934211D01*
X150727228Y-98946616D01*
X150737011Y-98958806D01*
X150747307Y-98970792D01*
X150758135Y-98982589D01*
X150769514Y-98994210D01*
X150781460Y-99005669D01*
X150793992Y-99016979D01*
X150807128Y-99028154D01*
X150820885Y-99039206D01*
X150850336Y-99060998D01*
X150881769Y-99029567D01*
X154032003Y-101194915D01*
X155359153Y-102113442D01*
X155785239Y-102392847D01*
X155900492Y-102473171D01*
X156260221Y-101470825D01*
X157176128Y-98894670D01*
X158065842Y-96368282D01*
X158065840Y-96371774D01*
X158068603Y-96365323D01*
X158071003Y-96358430D01*
X158073045Y-96351125D01*
X158074734Y-96343438D01*
X158077074Y-96327034D01*
X158078063Y-96309454D01*
X158077742Y-96290933D01*
X158076153Y-96271705D01*
X158073336Y-96252007D01*
X158069332Y-96232073D01*
X158064181Y-96212140D01*
X158057926Y-96192442D01*
X158050607Y-96173214D01*
X158042265Y-96154692D01*
X158032940Y-96137112D01*
X158022674Y-96120709D01*
X158011507Y-96105717D01*
X158005599Y-96098824D01*
X157999481Y-96092372D01*
X155966846Y-93794306D01*
X155786982Y-93591305D01*
X155607119Y-93385684D01*
X155604264Y-93387360D01*
X155601587Y-93389111D01*
X155599082Y-93390926D01*
X155596745Y-93392799D01*
X155594568Y-93394720D01*
X155592547Y-93396681D01*
X155590676Y-93398675D01*
X155588948Y-93400692D01*
X155587359Y-93402724D01*
X155585902Y-93404763D01*
X155584571Y-93406801D01*
X155583362Y-93408830D01*
X155582267Y-93410840D01*
X155581282Y-93412825D01*
X155580401Y-93414774D01*
X155579617Y-93416681D01*
X155578320Y-93420333D01*
X155577346Y-93423714D01*
X155576647Y-93426757D01*
X155576179Y-93429396D01*
X155575895Y-93431564D01*
X155575750Y-93433195D01*
X155575688Y-93434580D01*
X155569379Y-93440470D01*
X155563525Y-93446340D01*
X155558091Y-93452169D01*
X155553040Y-93457936D01*
X155548338Y-93463622D01*
X155543947Y-93469205D01*
X155539833Y-93474665D01*
X155535959Y-93479982D01*
X155522153Y-93499409D01*
X155518945Y-93503703D01*
X155515762Y-93507731D01*
X155512569Y-93511473D01*
X155509329Y-93514907D01*
X155226438Y-93769478D01*
X154943546Y-94021758D01*
X154660653Y-94274691D01*
X154377759Y-94531227D01*
X152789981Y-95950928D01*
X151987416Y-96663725D01*
X151178631Y-97370629D01*
X151103977Y-97437769D01*
X151033405Y-97504530D01*
X150967152Y-97571270D01*
X150905451Y-97638349D01*
X150848540Y-97706123D01*
X150796652Y-97774951D01*
X150750023Y-97845191D01*
X150708889Y-97917202D01*
X150673485Y-97991340D01*
X150644046Y-98067965D01*
X150620807Y-98147435D01*
X150611587Y-98188349D01*
X150604005Y-98230108D01*
X150598091Y-98272757D01*
X150593874Y-98316341D01*
X150591383Y-98360905D01*
X150590649Y-98406493D01*
X150180248Y-98406493D01*
X150180259Y-98352440D01*
X150176243Y-98280317D01*
X150168103Y-98210850D01*
X150155748Y-98143777D01*
X150139085Y-98078838D01*
X150129110Y-98047087D01*
X150118023Y-98015771D01*
X150105813Y-97984858D01*
X150092468Y-97954316D01*
X150062330Y-97894211D01*
X150027516Y-97835196D01*
X149987934Y-97777010D01*
X149943492Y-97719391D01*
X149894097Y-97662080D01*
X149839658Y-97604815D01*
X149780083Y-97547335D01*
X149715279Y-97489379D01*
X149061362Y-96918135D01*
X148407773Y-96340345D01*
X147123843Y-95191313D01*
X146654538Y-94772212D01*
X146187853Y-94353112D01*
X146102198Y-94279619D01*
X146017976Y-94205880D01*
X145853010Y-94057994D01*
X145531263Y-93762878D01*
X145171535Y-93417122D01*
X144563949Y-94109401D01*
X143967495Y-94782690D01*
X142810605Y-96074915D01*
X142828067Y-96074915D01*
X142805141Y-96101877D01*
X142784793Y-96127889D01*
X142766983Y-96153143D01*
X142751669Y-96177834D01*
X142738811Y-96202157D01*
X142728368Y-96226306D01*
X142724039Y-96238376D01*
X142720298Y-96250476D01*
X142717141Y-96262629D01*
X142714561Y-96274860D01*
X142712555Y-96287194D01*
X142711117Y-96299654D01*
X142710241Y-96312265D01*
X142709923Y-96325052D01*
X142126491Y-96325052D01*
X142098134Y-96283170D01*
X142064778Y-96236834D01*
X142030030Y-96191041D01*
X141994137Y-96145821D01*
X141957343Y-96101205D01*
X141882035Y-96013906D01*
X141806074Y-95929391D01*
X141731421Y-95847904D01*
X141256441Y-95337999D01*
X140076795Y-94065310D01*
X138878485Y-92786728D01*
X137667734Y-91508146D01*
X136450761Y-90235456D01*
X136365113Y-90140982D01*
X136286177Y-90047243D01*
X136213789Y-89953915D01*
X136147787Y-89860668D01*
X136088005Y-89767175D01*
X136034280Y-89673110D01*
X135986450Y-89578144D01*
X135944349Y-89481950D01*
X135907814Y-89384201D01*
X135876682Y-89284569D01*
X135850788Y-89182728D01*
X135829969Y-89078348D01*
X135828059Y-89065466D01*
X136314554Y-89065466D01*
X136315519Y-89093354D01*
X136318346Y-89121912D01*
X136322933Y-89150992D01*
X136329178Y-89180445D01*
X136336978Y-89210123D01*
X136346232Y-89239879D01*
X136356835Y-89269562D01*
X136368687Y-89299026D01*
X136381685Y-89328121D01*
X136395727Y-89356699D01*
X136410710Y-89384613D01*
X136426532Y-89411713D01*
X136443090Y-89437851D01*
X136460283Y-89462879D01*
X136478009Y-89486649D01*
X136496163Y-89509012D01*
X137463586Y-90548031D01*
X138431008Y-91576572D01*
X142415951Y-95809484D01*
X142426433Y-95809486D01*
X142457865Y-95792021D01*
X142866486Y-95331012D01*
X144689123Y-93266941D01*
X145300755Y-93266941D01*
X150141360Y-95826944D01*
X150141360Y-95708199D01*
X150616341Y-95708199D01*
X150616537Y-95712175D01*
X150617092Y-95717415D01*
X150619070Y-95730846D01*
X150621867Y-95746815D01*
X150625073Y-95763643D01*
X150631076Y-95793165D01*
X150633804Y-95805989D01*
X155456946Y-93263449D01*
X154440628Y-92100448D01*
X154417279Y-92082957D01*
X154396591Y-92067267D01*
X154377948Y-92053542D01*
X154369202Y-92047468D01*
X154360738Y-92041946D01*
X154352478Y-92036997D01*
X154344347Y-92032642D01*
X154336266Y-92028900D01*
X154328160Y-92025793D01*
X154324073Y-92024484D01*
X154319951Y-92023341D01*
X154315785Y-92022367D01*
X154311564Y-92021564D01*
X154307279Y-92020935D01*
X154302920Y-92020483D01*
X154298479Y-92020210D01*
X154293945Y-92020118D01*
X154196155Y-92037581D01*
X153344476Y-92378318D01*
X152487885Y-92715127D01*
X150766520Y-93382194D01*
X150783981Y-93382194D01*
X150760267Y-93391383D01*
X150738824Y-93400694D01*
X150719550Y-93410251D01*
X150702344Y-93420176D01*
X150694483Y-93425315D01*
X150687101Y-93430592D01*
X150680185Y-93436023D01*
X150673721Y-93441622D01*
X150667698Y-93447406D01*
X150662101Y-93453389D01*
X150656919Y-93459587D01*
X150652139Y-93466015D01*
X150647747Y-93472689D01*
X150643732Y-93479624D01*
X150640079Y-93486835D01*
X150636777Y-93494338D01*
X150633813Y-93502147D01*
X150631174Y-93510279D01*
X150628846Y-93518748D01*
X150626818Y-93527571D01*
X150623609Y-93546336D01*
X150621443Y-93566697D01*
X150620219Y-93588778D01*
X150619833Y-93612700D01*
X150619833Y-94925882D01*
X150616341Y-94922387D01*
X150616341Y-95708199D01*
X150141360Y-95708199D01*
X150141360Y-95303068D01*
X150158822Y-95303068D01*
X150158822Y-93661596D01*
X150155330Y-93665085D01*
X150157815Y-93632552D01*
X150158673Y-93602910D01*
X150158469Y-93589103D01*
X150157832Y-93575938D01*
X150156752Y-93563384D01*
X150155221Y-93551416D01*
X150153230Y-93540005D01*
X150150769Y-93529125D01*
X150147829Y-93518747D01*
X150144403Y-93508845D01*
X150140480Y-93499390D01*
X150136052Y-93490355D01*
X150131110Y-93481713D01*
X150125644Y-93473436D01*
X150119647Y-93465496D01*
X150113108Y-93457867D01*
X150106020Y-93450520D01*
X150098373Y-93443429D01*
X150090158Y-93436565D01*
X150081366Y-93429901D01*
X150071988Y-93423410D01*
X150062015Y-93417064D01*
X150040250Y-93404698D01*
X150015999Y-93392583D01*
X149989189Y-93380498D01*
X149959750Y-93368223D01*
X148909748Y-92956114D01*
X150633802Y-92956114D01*
X150846844Y-92875786D01*
X152464307Y-92248881D01*
X154094868Y-91611501D01*
X154098491Y-91607673D01*
X154102733Y-91602823D01*
X154112604Y-91590544D01*
X154123539Y-91575645D01*
X154129111Y-91567521D01*
X154134597Y-91559110D01*
X154139877Y-91550535D01*
X154144835Y-91541920D01*
X154149354Y-91533387D01*
X154153314Y-91525058D01*
X154156599Y-91517056D01*
X154159092Y-91509505D01*
X154160004Y-91505937D01*
X154160673Y-91502527D01*
X154161086Y-91499292D01*
X154161227Y-91496245D01*
X154164714Y-91496248D01*
X154115820Y-89854775D01*
X154094866Y-89468855D01*
X154087645Y-89285074D01*
X154521153Y-89285074D01*
X154525331Y-89415717D01*
X154534931Y-89547435D01*
X154551071Y-89682306D01*
X154563200Y-89817013D01*
X154571890Y-89951392D01*
X154577716Y-90085280D01*
X154581249Y-90218513D01*
X154583064Y-90350928D01*
X154583828Y-90612646D01*
X154592175Y-90809100D01*
X154598231Y-91005553D01*
X154604943Y-91202006D01*
X154609466Y-91300233D01*
X154615259Y-91398460D01*
X154619101Y-91426152D01*
X154624064Y-91454156D01*
X154630122Y-91482374D01*
X154637249Y-91510711D01*
X154645420Y-91539067D01*
X154654609Y-91567347D01*
X154664791Y-91595454D01*
X154675940Y-91623289D01*
X154688030Y-91650756D01*
X154701035Y-91677757D01*
X154714931Y-91704195D01*
X154729692Y-91729974D01*
X154745291Y-91754996D01*
X154761704Y-91779163D01*
X154778905Y-91802379D01*
X154796868Y-91824546D01*
X154814331Y-91855977D01*
X155262461Y-92371775D01*
X155717141Y-92886264D01*
X156619952Y-93906075D01*
X157063498Y-94415979D01*
X157534113Y-94945528D01*
X157777605Y-95218980D01*
X158030919Y-95498653D01*
X158425571Y-95942199D01*
X158427158Y-95940880D01*
X158428645Y-95939544D01*
X158430037Y-95938196D01*
X158431335Y-95936838D01*
X158432545Y-95935476D01*
X158433667Y-95934112D01*
X158434707Y-95932750D01*
X158435667Y-95931395D01*
X158436550Y-95930050D01*
X158437360Y-95928720D01*
X158438099Y-95927407D01*
X158438771Y-95926116D01*
X158439379Y-95924850D01*
X158439926Y-95923614D01*
X158440416Y-95922411D01*
X158440851Y-95921246D01*
X158441572Y-95919041D01*
X158442113Y-95917030D01*
X158442501Y-95915245D01*
X158442761Y-95913715D01*
X158442919Y-95912472D01*
X158443000Y-95911546D01*
X158443034Y-95910768D01*
X158452935Y-95895138D01*
X158464126Y-95878551D01*
X158476340Y-95861279D01*
X158489310Y-95843592D01*
X158516459Y-95808060D01*
X158543445Y-95774124D01*
X158568138Y-95743953D01*
X158588411Y-95719717D01*
X158607183Y-95697725D01*
X160412805Y-93762880D01*
X164366314Y-89529969D01*
X164381618Y-89513539D01*
X164396082Y-89495774D01*
X164409687Y-89476812D01*
X164422412Y-89456791D01*
X164434237Y-89435849D01*
X164445141Y-89414124D01*
X164455103Y-89391755D01*
X164464104Y-89368879D01*
X164472123Y-89345635D01*
X164479138Y-89322160D01*
X164485131Y-89298594D01*
X164490080Y-89275073D01*
X164493965Y-89251737D01*
X164496765Y-89228722D01*
X164498460Y-89206169D01*
X164499030Y-89184213D01*
X164499030Y-85510101D01*
X164495540Y-85513598D01*
X164495540Y-82248111D01*
X164494955Y-82218256D01*
X164493153Y-82190171D01*
X164490061Y-82163744D01*
X164488009Y-82151116D01*
X164485608Y-82138861D01*
X164482850Y-82126965D01*
X164479724Y-82115412D01*
X164476221Y-82104189D01*
X164472334Y-82093282D01*
X164468054Y-82082677D01*
X164463370Y-82072359D01*
X164458274Y-82062316D01*
X164452758Y-82052532D01*
X164446812Y-82042993D01*
X164440427Y-82033686D01*
X164433594Y-82024596D01*
X164426305Y-82015710D01*
X164418550Y-82007013D01*
X164410321Y-81998491D01*
X164401609Y-81990131D01*
X164392404Y-81981917D01*
X164382697Y-81973837D01*
X164372481Y-81965875D01*
X164350481Y-81950252D01*
X164326332Y-81934937D01*
X164299963Y-81919815D01*
X163730410Y-81596486D01*
X163151364Y-81263662D01*
X162559877Y-80918395D01*
X161953000Y-80557739D01*
X161940755Y-80548937D01*
X161928867Y-80540850D01*
X161917287Y-80533459D01*
X161905962Y-80526744D01*
X161894842Y-80520683D01*
X161883875Y-80515256D01*
X161873010Y-80510444D01*
X161862197Y-80506225D01*
X161851383Y-80502578D01*
X161840519Y-80499485D01*
X161829552Y-80496923D01*
X161818432Y-80494873D01*
X161807107Y-80493314D01*
X161795526Y-80492226D01*
X161783639Y-80491588D01*
X161771393Y-80491380D01*
X161759148Y-80491584D01*
X161747260Y-80492192D01*
X161735679Y-80493199D01*
X161724354Y-80494600D01*
X161713234Y-80496390D01*
X161702267Y-80498564D01*
X161691402Y-80501116D01*
X161680589Y-80504042D01*
X161669775Y-80507336D01*
X161658911Y-80510993D01*
X161647944Y-80515008D01*
X161636823Y-80519376D01*
X161613918Y-80529151D01*
X161589784Y-80540276D01*
X160497506Y-81115666D01*
X160009319Y-81372256D01*
X159546670Y-81612474D01*
X155924949Y-83421588D01*
X155009913Y-86774387D01*
X154913433Y-87151579D01*
X154864047Y-87342138D01*
X154814333Y-87528768D01*
X154692095Y-88021975D01*
X154636297Y-88270011D01*
X154588193Y-88519766D01*
X154567998Y-88645467D01*
X154550894Y-88771813D01*
X154537268Y-88898875D01*
X154527510Y-89026725D01*
X154522009Y-89155434D01*
X154521153Y-89285074D01*
X154087645Y-89285074D01*
X154087336Y-89277204D01*
X154085167Y-89180560D01*
X154084389Y-89082934D01*
X154083807Y-89056356D01*
X154082029Y-89031569D01*
X154080674Y-89019818D01*
X154079002Y-89008481D01*
X154077004Y-88997545D01*
X154074675Y-88986999D01*
X154072009Y-88976831D01*
X154068998Y-88967031D01*
X154065637Y-88957586D01*
X154061919Y-88948486D01*
X154057838Y-88939717D01*
X154053388Y-88931270D01*
X154048561Y-88923133D01*
X154043352Y-88915293D01*
X154037754Y-88907740D01*
X154031761Y-88900462D01*
X154025366Y-88893447D01*
X154018563Y-88886685D01*
X154011346Y-88880162D01*
X154003708Y-88873869D01*
X153995643Y-88867793D01*
X153987144Y-88861923D01*
X153978206Y-88856248D01*
X153968821Y-88850755D01*
X153948686Y-88840272D01*
X153926690Y-88830383D01*
X153902780Y-88820995D01*
X152858960Y-88401457D01*
X152336559Y-88187923D01*
X151817759Y-87968824D01*
X151568809Y-87869125D01*
X151316585Y-87765823D01*
X150815411Y-87560204D01*
X150802436Y-87553702D01*
X150788556Y-87547324D01*
X150774010Y-87541110D01*
X150759040Y-87535100D01*
X150743886Y-87529336D01*
X150728788Y-87523858D01*
X150699722Y-87513926D01*
X150673768Y-87505632D01*
X150652847Y-87499301D01*
X150633802Y-87493845D01*
X150633802Y-92956114D01*
X148909748Y-92956114D01*
X146613934Y-92055044D01*
X146587345Y-92046047D01*
X146562475Y-92038728D01*
X146550633Y-92035710D01*
X146539160Y-92033128D01*
X146528034Y-92030985D01*
X146517236Y-92029287D01*
X146506745Y-92028040D01*
X146496541Y-92027248D01*
X146486602Y-92026916D01*
X146476909Y-92027050D01*
X146467441Y-92027654D01*
X146458178Y-92028735D01*
X146449098Y-92030296D01*
X146440183Y-92032343D01*
X146431411Y-92034881D01*
X146422761Y-92037916D01*
X146414214Y-92041452D01*
X146405749Y-92045494D01*
X146397345Y-92050048D01*
X146388982Y-92055119D01*
X146380640Y-92060711D01*
X146372297Y-92066831D01*
X146363934Y-92073482D01*
X146355530Y-92080671D01*
X146347065Y-92088402D01*
X146338518Y-92096681D01*
X146321096Y-92114900D01*
X146303102Y-92135371D01*
X145795380Y-92714253D01*
X145547249Y-92993872D01*
X145300755Y-93266941D01*
X144689123Y-93266941D01*
X146083079Y-91688336D01*
X146092234Y-91678410D01*
X146101319Y-91667053D01*
X146110260Y-91654386D01*
X146118986Y-91640531D01*
X146127425Y-91625613D01*
X146135507Y-91609753D01*
X146143158Y-91593075D01*
X146150309Y-91575701D01*
X146156886Y-91557754D01*
X146162819Y-91539357D01*
X146168035Y-91520633D01*
X146172464Y-91501704D01*
X146176033Y-91482693D01*
X146178671Y-91463723D01*
X146180306Y-91444916D01*
X146180867Y-91426397D01*
X146182470Y-91384487D01*
X146582503Y-91384487D01*
X146583093Y-91411069D01*
X146584925Y-91435886D01*
X146588098Y-91459055D01*
X146590217Y-91470059D01*
X146592708Y-91480695D01*
X146595583Y-91490978D01*
X146598853Y-91500923D01*
X146602532Y-91510544D01*
X146606630Y-91519856D01*
X146611161Y-91528874D01*
X146616137Y-91537613D01*
X146621569Y-91546087D01*
X146627469Y-91554310D01*
X146633851Y-91562299D01*
X146640726Y-91570067D01*
X146648106Y-91577628D01*
X146656003Y-91584999D01*
X146664430Y-91592193D01*
X146673398Y-91599226D01*
X146682920Y-91606111D01*
X146693008Y-91612864D01*
X146714931Y-91626031D01*
X146739264Y-91638846D01*
X146766103Y-91651425D01*
X146795546Y-91663886D01*
X146795546Y-91646424D01*
X148091263Y-92156328D01*
X148171904Y-92192365D01*
X148253774Y-92227215D01*
X148336461Y-92261001D01*
X148419559Y-92293845D01*
X148585343Y-92357201D01*
X148747854Y-92418265D01*
X148996803Y-92507162D01*
X149249027Y-92600314D01*
X149501251Y-92696740D01*
X149750201Y-92795457D01*
X150127391Y-92942140D01*
X150127391Y-87493845D01*
X150127391Y-87462409D01*
X150123897Y-87462411D01*
X149764169Y-87609095D01*
X146778082Y-88855918D01*
X146771804Y-88860106D01*
X146764856Y-88866013D01*
X146757386Y-88873475D01*
X146749542Y-88882329D01*
X146741474Y-88892410D01*
X146733328Y-88903556D01*
X146725254Y-88915602D01*
X146717401Y-88928386D01*
X146709915Y-88941742D01*
X146702947Y-88955507D01*
X146696643Y-88969518D01*
X146691153Y-88983611D01*
X146686624Y-88997622D01*
X146683206Y-89011388D01*
X146681046Y-89024744D01*
X146680485Y-89031217D01*
X146680293Y-89037527D01*
X146659393Y-89312070D01*
X146644058Y-89588905D01*
X146638581Y-89727261D01*
X146634618Y-89865086D01*
X146632210Y-90002009D01*
X146631398Y-90137664D01*
X146582503Y-91384487D01*
X146182470Y-91384487D01*
X146226271Y-90238945D01*
X146245698Y-89671087D01*
X146261196Y-89114362D01*
X146260384Y-89017213D01*
X146257976Y-88924566D01*
X146254013Y-88836012D01*
X146248535Y-88751141D01*
X146241584Y-88669545D01*
X146233201Y-88590814D01*
X146223426Y-88514538D01*
X146212301Y-88440309D01*
X146193181Y-88341966D01*
X146172628Y-88243583D01*
X146150847Y-88145445D01*
X146128044Y-88047839D01*
X146080185Y-87855370D01*
X146030690Y-87668467D01*
X145955601Y-87359380D01*
X145917730Y-87200908D01*
X145880513Y-87039815D01*
X145884004Y-87039815D01*
X145863049Y-86969967D01*
X145860273Y-86954401D01*
X145857210Y-86939081D01*
X145853901Y-86923925D01*
X145850388Y-86908850D01*
X145835109Y-86847730D01*
X145833064Y-86839259D01*
X145830866Y-86830875D01*
X145828524Y-86822583D01*
X145826050Y-86814388D01*
X145820742Y-86798310D01*
X145815026Y-86782683D01*
X145808982Y-86767546D01*
X145802693Y-86752942D01*
X145796241Y-86738911D01*
X145789706Y-86725493D01*
X144872360Y-83636542D01*
X145450605Y-83636542D01*
X145450711Y-83651574D01*
X145451435Y-83667180D01*
X145454711Y-83700218D01*
X145460381Y-83735865D01*
X145468395Y-83774330D01*
X145714616Y-84781482D01*
X145960838Y-85775534D01*
X145991513Y-85892847D01*
X146020920Y-86011388D01*
X146077400Y-86250515D01*
X146133225Y-86489642D01*
X146191342Y-86725495D01*
X146274780Y-87032508D01*
X146353307Y-87340175D01*
X146502175Y-87954853D01*
X146617428Y-88415864D01*
X146619104Y-88414278D01*
X146620855Y-88412790D01*
X146622670Y-88411399D01*
X146624542Y-88410100D01*
X146626463Y-88408891D01*
X146628425Y-88407768D01*
X146630418Y-88406728D01*
X146632435Y-88405769D01*
X146634467Y-88404886D01*
X146636506Y-88404076D01*
X146640572Y-88402665D01*
X146644567Y-88401509D01*
X146648424Y-88400584D01*
X146652076Y-88399864D01*
X146655456Y-88399322D01*
X146658500Y-88398934D01*
X146661139Y-88398674D01*
X146664938Y-88398436D01*
X146666323Y-88398401D01*
X147553418Y-88021210D01*
X148158603Y-87764893D01*
X148767062Y-87513487D01*
X149980705Y-87018860D01*
X149980705Y-87018868D01*
X150001345Y-87009672D01*
X150020098Y-87000307D01*
X150037040Y-86990604D01*
X150052247Y-86980395D01*
X150065797Y-86969511D01*
X150071974Y-86963763D01*
X150077765Y-86957783D01*
X150083181Y-86951549D01*
X150088230Y-86945041D01*
X150092922Y-86938238D01*
X150097267Y-86931118D01*
X150101275Y-86923661D01*
X150104954Y-86915844D01*
X150108315Y-86907648D01*
X150111367Y-86899051D01*
X150116583Y-86880570D01*
X150120678Y-86860231D01*
X150123730Y-86837867D01*
X150125814Y-86813307D01*
X150127009Y-86786384D01*
X150127390Y-86756929D01*
X150127390Y-80917468D01*
X150095958Y-80917468D01*
X150080857Y-80927054D01*
X150065685Y-80936206D01*
X150035166Y-80953429D01*
X150004483Y-80969589D01*
X149973719Y-80985135D01*
X149912273Y-81016186D01*
X149881754Y-81032591D01*
X149866582Y-81041211D01*
X149851482Y-81050184D01*
X148653555Y-81724235D01*
X147919311Y-82142790D01*
X147172298Y-82560690D01*
X145667468Y-83397144D01*
X145650005Y-83379681D01*
X145617500Y-83397888D01*
X145588054Y-83415977D01*
X145561616Y-83434158D01*
X145538136Y-83452641D01*
X145527488Y-83462061D01*
X145517561Y-83471636D01*
X145508347Y-83481391D01*
X145499841Y-83491352D01*
X145492035Y-83501546D01*
X145484924Y-83511999D01*
X145478502Y-83522737D01*
X145472760Y-83533787D01*
X145467694Y-83545174D01*
X145463298Y-83556925D01*
X145459563Y-83569066D01*
X145456485Y-83581624D01*
X145454056Y-83594624D01*
X145452271Y-83608093D01*
X145451123Y-83622057D01*
X145450605Y-83636542D01*
X144872360Y-83636542D01*
X144829268Y-83491437D01*
X141794286Y-81891871D01*
X141788963Y-81886672D01*
X141783467Y-81881544D01*
X141771912Y-81871462D01*
X141759538Y-81861544D01*
X141746264Y-81851707D01*
X141732007Y-81841871D01*
X141716687Y-81831953D01*
X141700220Y-81821871D01*
X141682526Y-81811544D01*
X141116304Y-81526795D01*
X140518650Y-81215198D01*
X139171418Y-80498362D01*
X139159177Y-80489755D01*
X139147319Y-80482223D01*
X139135819Y-80475694D01*
X139124652Y-80470095D01*
X139113791Y-80465356D01*
X139103212Y-80461405D01*
X139092889Y-80458170D01*
X139082796Y-80455580D01*
X139072908Y-80453562D01*
X139063199Y-80452046D01*
X139053643Y-80450960D01*
X139044215Y-80450232D01*
X139034890Y-80449790D01*
X139025641Y-80449564D01*
X139007271Y-80449468D01*
X138995025Y-80449868D01*
X138983137Y-80451030D01*
X138971556Y-80452898D01*
X138960231Y-80455416D01*
X138949111Y-80458528D01*
X138938144Y-80462176D01*
X138927279Y-80466306D01*
X138916466Y-80470860D01*
X138905652Y-80475783D01*
X138894788Y-80481017D01*
X138872701Y-80492197D01*
X138849795Y-80503951D01*
X138825661Y-80515827D01*
X138234501Y-80866659D01*
X137645632Y-81208651D01*
X136478701Y-81877900D01*
X136527596Y-81829007D01*
X136498153Y-81844707D01*
X136471314Y-81860480D01*
X136446981Y-81876478D01*
X136425059Y-81892854D01*
X136405448Y-81909762D01*
X136388053Y-81927356D01*
X136380156Y-81936458D01*
X136372776Y-81945789D01*
X136365901Y-81955368D01*
X136359519Y-81965214D01*
X136353619Y-81975347D01*
X136348187Y-81985786D01*
X136343211Y-81996549D01*
X136338680Y-82007656D01*
X136330903Y-82030980D01*
X136324758Y-82055910D01*
X136320148Y-82082600D01*
X136316975Y-82111203D01*
X136315143Y-82141872D01*
X136314554Y-82174762D01*
X136314554Y-89065466D01*
X135828059Y-89065466D01*
X135814062Y-88971104D01*
X135802903Y-88860667D01*
X135796327Y-88746711D01*
X135794171Y-88628907D01*
X135809451Y-86605439D01*
X135811634Y-84595068D01*
X135811634Y-82349390D01*
X135810848Y-82294709D01*
X135808462Y-82240672D01*
X135804428Y-82187270D01*
X135798701Y-82134492D01*
X135791234Y-82082328D01*
X135781982Y-82030767D01*
X135770898Y-81979800D01*
X135757937Y-81929417D01*
X135743052Y-81879606D01*
X135726197Y-81830358D01*
X135707327Y-81781662D01*
X135686395Y-81733509D01*
X135663355Y-81685888D01*
X135638162Y-81638789D01*
X135610768Y-81592201D01*
X135581129Y-81546115D01*
X132069770Y-75911995D01*
X132624705Y-75911995D01*
X136132943Y-81567068D01*
X136593953Y-81305129D01*
X138727871Y-80058306D01*
X138733803Y-80055073D01*
X138739808Y-80050619D01*
X138745874Y-80044946D01*
X138751991Y-80038061D01*
X138758149Y-80029969D01*
X138764337Y-80020674D01*
X138770546Y-80010182D01*
X138776766Y-79998499D01*
X138782985Y-79985628D01*
X138789194Y-79971575D01*
X138795091Y-79957065D01*
X139283106Y-79957065D01*
X139283426Y-79969554D01*
X139284314Y-79981534D01*
X139285777Y-79993031D01*
X139287826Y-80004073D01*
X139290471Y-80014687D01*
X139293721Y-80024899D01*
X139297585Y-80034736D01*
X139302073Y-80044226D01*
X139307195Y-80053394D01*
X139312960Y-80062268D01*
X139319379Y-80070875D01*
X139326460Y-80079241D01*
X139334213Y-80087394D01*
X139342647Y-80095361D01*
X139351773Y-80103167D01*
X139361600Y-80110840D01*
X139372137Y-80118407D01*
X139383395Y-80125895D01*
X139395382Y-80133330D01*
X139421583Y-80148151D01*
X139450818Y-80163085D01*
X140931638Y-80934927D01*
X142401981Y-81706770D01*
X143484655Y-82279539D01*
X143595426Y-82340344D01*
X143707465Y-82399922D01*
X143933878Y-82517030D01*
X144160946Y-82634138D01*
X144273804Y-82693715D01*
X144385721Y-82754521D01*
X144368258Y-82754521D01*
X144612734Y-82887234D01*
X140495076Y-74997677D01*
X140492421Y-75009722D01*
X140489714Y-75021026D01*
X140484271Y-75041714D01*
X140474121Y-75077567D01*
X140469905Y-75093958D01*
X140468120Y-75102039D01*
X140466590Y-75110145D01*
X140465347Y-75118354D01*
X140464421Y-75126741D01*
X140463843Y-75135385D01*
X140463644Y-75144360D01*
X140152811Y-76422616D01*
X140156303Y-76422618D01*
X139736766Y-78113425D01*
X139523233Y-78966196D01*
X139304133Y-79817329D01*
X139295919Y-79853135D01*
X139289665Y-79886046D01*
X139287297Y-79901483D01*
X139285447Y-79916277D01*
X139284126Y-79930453D01*
X139283342Y-79944041D01*
X139283106Y-79957065D01*
X138795091Y-79957065D01*
X138795383Y-79956346D01*
X138801541Y-79939945D01*
X138807658Y-79922378D01*
X138813724Y-79903649D01*
X138819728Y-79883764D01*
X138825661Y-79862728D01*
X139220313Y-78270149D01*
X139712755Y-76286408D01*
X139717907Y-76262282D01*
X139719921Y-76250765D01*
X139721555Y-76239593D01*
X139722805Y-76228751D01*
X139723668Y-76218225D01*
X139724139Y-76207999D01*
X139724215Y-76198058D01*
X139723892Y-76188389D01*
X139723166Y-76178977D01*
X139722034Y-76169806D01*
X139720491Y-76160862D01*
X139718533Y-76152131D01*
X139716157Y-76143597D01*
X139713360Y-76135246D01*
X139710136Y-76127063D01*
X139706483Y-76119033D01*
X139702396Y-76111143D01*
X139697871Y-76103376D01*
X139692905Y-76095719D01*
X139687495Y-76088157D01*
X139681635Y-76080674D01*
X139675322Y-76073257D01*
X139668553Y-76065890D01*
X139661324Y-76058559D01*
X139653630Y-76051249D01*
X139645468Y-76043945D01*
X139636834Y-76036633D01*
X139618136Y-76021926D01*
X139597503Y-76007009D01*
X139486732Y-75927868D01*
X139374693Y-75849955D01*
X139148280Y-75696177D01*
X138921213Y-75542398D01*
X138808355Y-75464485D01*
X138696438Y-75385344D01*
X138128471Y-74992438D01*
X137840394Y-74795985D01*
X137547406Y-74599531D01*
X137530784Y-74590579D01*
X137512495Y-74582103D01*
X137492752Y-74574169D01*
X137471772Y-74566844D01*
X137449768Y-74560194D01*
X137426956Y-74554286D01*
X137403550Y-74549187D01*
X137379766Y-74544962D01*
X137355818Y-74541678D01*
X137331922Y-74539402D01*
X137308291Y-74538201D01*
X137285141Y-74538140D01*
X137262687Y-74539287D01*
X137241144Y-74541708D01*
X137220726Y-74545469D01*
X137201649Y-74550637D01*
X133345929Y-75664744D01*
X133277798Y-75683864D01*
X133209503Y-75704416D01*
X133140881Y-75726197D01*
X133071768Y-75749000D01*
X132787129Y-75846354D01*
X132804591Y-75846354D01*
X132791616Y-75849977D01*
X132777736Y-75854219D01*
X132748220Y-75864090D01*
X132717968Y-75875024D01*
X132688902Y-75886081D01*
X132662947Y-75896320D01*
X132642026Y-75904798D01*
X132624705Y-75911995D01*
X132069770Y-75911995D01*
X131889557Y-75622835D01*
X131019924Y-74211866D01*
X131013646Y-74201769D01*
X131006698Y-74190024D01*
X130991384Y-74162862D01*
X130975170Y-74132916D01*
X130961544Y-74107089D01*
X131494904Y-74107089D01*
X132347074Y-75486627D01*
X132354059Y-75486625D01*
X132371521Y-75486625D01*
X133485629Y-75158331D01*
X135325303Y-74606952D01*
X137191171Y-74058193D01*
X137200339Y-74055119D01*
X137209506Y-74052429D01*
X137218674Y-74050097D01*
X137227842Y-74048098D01*
X137237010Y-74046406D01*
X137246178Y-74044995D01*
X137255345Y-74043839D01*
X137264513Y-74042914D01*
X137282849Y-74041652D01*
X137301185Y-74041004D01*
X137319520Y-74040766D01*
X137337856Y-74040731D01*
X137362535Y-74041101D01*
X137386805Y-74042212D01*
X137410666Y-74044070D01*
X137434118Y-74046680D01*
X137457160Y-74050047D01*
X137479793Y-74054176D01*
X137502017Y-74059073D01*
X137523831Y-74064742D01*
X137545236Y-74071189D01*
X137566232Y-74078419D01*
X137586819Y-74086436D01*
X137606996Y-74095247D01*
X137626765Y-74104855D01*
X137646123Y-74115267D01*
X137665073Y-74126487D01*
X137683613Y-74138520D01*
X138469425Y-74679857D01*
X138512645Y-74705519D01*
X138555865Y-74732572D01*
X138599085Y-74760772D01*
X138642304Y-74789871D01*
X138728744Y-74849790D01*
X138815183Y-74910363D01*
X139201105Y-75170990D01*
X139392756Y-75300813D01*
X139587026Y-75434238D01*
X139866426Y-75629818D01*
X139915321Y-75416775D01*
X139961105Y-75223542D01*
X140006562Y-75036529D01*
X140030293Y-74945253D01*
X140055293Y-74855410D01*
X140082012Y-74766958D01*
X140110900Y-74679857D01*
X140093438Y-74648425D01*
X140104111Y-74616107D01*
X140108601Y-74600727D01*
X140112517Y-74585840D01*
X140115853Y-74571426D01*
X140118601Y-74557466D01*
X140120754Y-74543939D01*
X140122306Y-74530826D01*
X140123248Y-74518107D01*
X140123575Y-74505762D01*
X140123279Y-74493771D01*
X140122353Y-74482115D01*
X140120791Y-74470774D01*
X140118584Y-74459727D01*
X140115726Y-74448955D01*
X140112210Y-74438439D01*
X140108029Y-74428157D01*
X140103176Y-74418092D01*
X140097644Y-74408221D01*
X140097146Y-74407445D01*
X140729074Y-74407445D01*
X144287931Y-81228296D01*
X141975896Y-73467961D01*
X141975896Y-73467962D01*
X140729074Y-74407445D01*
X140097146Y-74407445D01*
X140091426Y-74398527D01*
X140084514Y-74388989D01*
X140076903Y-74379587D01*
X140068583Y-74370302D01*
X140059550Y-74361113D01*
X140049795Y-74352000D01*
X140039312Y-74342945D01*
X140028094Y-74333927D01*
X140016133Y-74324926D01*
X140003422Y-74315922D01*
X139989955Y-74306897D01*
X139960723Y-74288698D01*
X138829153Y-73551780D01*
X138517666Y-73342503D01*
X138202250Y-73134864D01*
X137884214Y-72930498D01*
X137564869Y-72731044D01*
X137543128Y-72719018D01*
X137519951Y-72707851D01*
X137495535Y-72697585D01*
X137470080Y-72688261D01*
X137443787Y-72679918D01*
X137416854Y-72672599D01*
X137389481Y-72666344D01*
X137361867Y-72661194D01*
X137334213Y-72657190D01*
X137306717Y-72654373D01*
X137279580Y-72652783D01*
X137253000Y-72652463D01*
X137227177Y-72653452D01*
X137202311Y-72655791D01*
X137178601Y-72659522D01*
X137156247Y-72664686D01*
X135328359Y-73118712D01*
X133513569Y-73583214D01*
X132856979Y-73747363D01*
X132733834Y-73778386D01*
X132610485Y-73810882D01*
X132362354Y-73878331D01*
X132110948Y-73945780D01*
X131983506Y-73978276D01*
X131854631Y-74009299D01*
X131494904Y-74107089D01*
X130961544Y-74107089D01*
X130959242Y-74102725D01*
X130932994Y-74051756D01*
X130922134Y-74030255D01*
X130806882Y-73817213D01*
X131494904Y-73635602D01*
X132724264Y-73324771D01*
X133314497Y-73178086D01*
X135236245Y-72694375D01*
X136210215Y-72449245D01*
X137184186Y-72210663D01*
X137215505Y-72204927D01*
X137247781Y-72200792D01*
X137280824Y-72198223D01*
X137314446Y-72197184D01*
X137348456Y-72197638D01*
X137382665Y-72199551D01*
X137416885Y-72202886D01*
X137450926Y-72207607D01*
X137484598Y-72213679D01*
X137517713Y-72221065D01*
X137550081Y-72229731D01*
X137581513Y-72239640D01*
X137611819Y-72250756D01*
X137640810Y-72263043D01*
X137668297Y-72276467D01*
X137694091Y-72290990D01*
X138273410Y-72665234D01*
X138855347Y-73045370D01*
X140006126Y-73799750D01*
X140121379Y-73880077D01*
X140160767Y-73905861D01*
X140199107Y-73928208D01*
X140236496Y-73947117D01*
X140254863Y-73955282D01*
X140273030Y-73962587D01*
X140291006Y-73969033D01*
X140308806Y-73974620D01*
X140326441Y-73979347D01*
X140343923Y-73983215D01*
X140361265Y-73986223D01*
X140378477Y-73988372D01*
X140395574Y-73989661D01*
X140412566Y-73990091D01*
X140429466Y-73989661D01*
X140446286Y-73988372D01*
X140463038Y-73986223D01*
X140479735Y-73983215D01*
X140496388Y-73979347D01*
X140513010Y-73974620D01*
X140529613Y-73969033D01*
X140546209Y-73962587D01*
X140562809Y-73955282D01*
X140579427Y-73947117D01*
X140596075Y-73938092D01*
X140612764Y-73928208D01*
X140646315Y-73905861D01*
X140680179Y-73880077D01*
X141523280Y-73241858D01*
X142369267Y-73241858D01*
X142369960Y-73264405D01*
X142372514Y-73288482D01*
X142376788Y-73314339D01*
X142382637Y-73342227D01*
X142389919Y-73372397D01*
X142398490Y-73405099D01*
X144368259Y-80016401D01*
X144958491Y-81968706D01*
X145080729Y-82363796D01*
X145142176Y-82565434D01*
X145202967Y-82771984D01*
X145300756Y-83082816D01*
X145304019Y-83079961D01*
X145307257Y-83077284D01*
X145310464Y-83074779D01*
X145313635Y-83072442D01*
X145316765Y-83070265D01*
X145319849Y-83068244D01*
X145322882Y-83066373D01*
X145325858Y-83064645D01*
X145328773Y-83063056D01*
X145331622Y-83061599D01*
X145334399Y-83060268D01*
X145337100Y-83059059D01*
X145339718Y-83057964D01*
X145342250Y-83056979D01*
X145347032Y-83055314D01*
X145351404Y-83054017D01*
X145355326Y-83053043D01*
X145358758Y-83052345D01*
X145361657Y-83051876D01*
X145363983Y-83051593D01*
X145365695Y-83051447D01*
X145367114Y-83051385D01*
X145877019Y-82771984D01*
X149200000Y-80900000D01*
X150619833Y-80900000D01*
X150619833Y-81685812D01*
X150619835Y-81689304D01*
X150619835Y-86858203D01*
X150620026Y-86862926D01*
X150620588Y-86867909D01*
X150621501Y-86873124D01*
X150622747Y-86878545D01*
X150624308Y-86884145D01*
X150626166Y-86889897D01*
X150628300Y-86895775D01*
X150630694Y-86901751D01*
X150636184Y-86913892D01*
X150642488Y-86926103D01*
X150649457Y-86938172D01*
X150656943Y-86949883D01*
X150664796Y-86961020D01*
X150672870Y-86971370D01*
X150681016Y-86980717D01*
X150685069Y-86984947D01*
X150689084Y-86988846D01*
X150693044Y-86992387D01*
X150696928Y-86995543D01*
X150700719Y-86998287D01*
X150704398Y-87000592D01*
X150707947Y-87002432D01*
X150711347Y-87003779D01*
X150714579Y-87004608D01*
X150717625Y-87004890D01*
X151428458Y-87308464D01*
X152139946Y-87605163D01*
X153588460Y-88202816D01*
X153588460Y-88185354D01*
X154147258Y-88415859D01*
X155327722Y-83526360D01*
X150619833Y-80900000D01*
X149200000Y-80900000D01*
X150012139Y-80442486D01*
X150016771Y-80438752D01*
X150021491Y-80434142D01*
X150026282Y-80428721D01*
X150031129Y-80422554D01*
X150040931Y-80408244D01*
X150050774Y-80391735D01*
X150060536Y-80373547D01*
X150070092Y-80354204D01*
X150079322Y-80334226D01*
X150088101Y-80314136D01*
X150103817Y-80275705D01*
X150116259Y-80243086D01*
X150124098Y-80221182D01*
X150617140Y-80221182D01*
X150617237Y-80235030D01*
X150617836Y-80248476D01*
X150618939Y-80261539D01*
X150620549Y-80274234D01*
X150622667Y-80286579D01*
X150625297Y-80298591D01*
X150628441Y-80310289D01*
X150632102Y-80321688D01*
X150636282Y-80332807D01*
X150640984Y-80343662D01*
X150646211Y-80354271D01*
X150651964Y-80364651D01*
X150658247Y-80374819D01*
X150665062Y-80384793D01*
X150672411Y-80394589D01*
X150680298Y-80404226D01*
X150688725Y-80413720D01*
X150697693Y-80423089D01*
X150707207Y-80432350D01*
X150727879Y-80450616D01*
X150750761Y-80468657D01*
X150775874Y-80486611D01*
X150803237Y-80504617D01*
X150832872Y-80522811D01*
X151228290Y-80734817D01*
X151625671Y-80951080D01*
X152020433Y-81170617D01*
X152407991Y-81392445D01*
X153064582Y-81752171D01*
X155442973Y-83079322D01*
X155497230Y-82897712D01*
X156134487Y-82897712D01*
X157479100Y-82192230D01*
X159424858Y-81161941D01*
X160401830Y-80650072D01*
X161383713Y-80142132D01*
X161406256Y-80126792D01*
X161425555Y-80112076D01*
X161434049Y-80104892D01*
X161441805Y-80097790D01*
X161448848Y-80090748D01*
X161455201Y-80083740D01*
X161460889Y-80076742D01*
X161465936Y-80069730D01*
X161470366Y-80062680D01*
X161474205Y-80055567D01*
X161477476Y-80048368D01*
X161480203Y-80041057D01*
X161482410Y-80033610D01*
X161484123Y-80026004D01*
X161485365Y-80018213D01*
X161486161Y-80010214D01*
X161486535Y-80001982D01*
X161486511Y-79993494D01*
X161485367Y-79975647D01*
X161482923Y-79956482D01*
X161479375Y-79935801D01*
X161474915Y-79913412D01*
X161464043Y-79862731D01*
X161331330Y-79338855D01*
X160548794Y-76169595D01*
X161020012Y-76169595D01*
X161020285Y-76187095D01*
X161021949Y-76205987D01*
X161024923Y-76226413D01*
X161029125Y-76248517D01*
X161034473Y-76272442D01*
X161256246Y-77168706D01*
X161478018Y-78078066D01*
X161921564Y-79866225D01*
X161928058Y-79881671D01*
X161935697Y-79897787D01*
X161944401Y-79914425D01*
X161954087Y-79931437D01*
X161964674Y-79948673D01*
X161976079Y-79965986D01*
X161988220Y-79983228D01*
X162001017Y-80000250D01*
X162014387Y-80016903D01*
X162028248Y-80033039D01*
X162042518Y-80048511D01*
X162057116Y-80063169D01*
X162071959Y-80076865D01*
X162086966Y-80089451D01*
X162102055Y-80100778D01*
X162117144Y-80110699D01*
X162099679Y-80110699D01*
X162192892Y-80172221D01*
X162288766Y-80233538D01*
X162386685Y-80294446D01*
X162486038Y-80354739D01*
X162686584Y-80472666D01*
X162885493Y-80585681D01*
X163115999Y-80718394D01*
X163636382Y-81023551D01*
X163899848Y-81176620D01*
X164032972Y-81251989D01*
X164167242Y-81326088D01*
X164610788Y-81570562D01*
X164610790Y-81570567D01*
X168120754Y-75926687D01*
X168119027Y-75923831D01*
X168117131Y-75921153D01*
X168115080Y-75918649D01*
X168112889Y-75916311D01*
X168110572Y-75914134D01*
X168108145Y-75912113D01*
X168105622Y-75910242D01*
X168103018Y-75908514D01*
X168100347Y-75906925D01*
X168097625Y-75905467D01*
X168094865Y-75904137D01*
X168092083Y-75902927D01*
X168089294Y-75901833D01*
X168086511Y-75900848D01*
X168081026Y-75899182D01*
X168075745Y-75897885D01*
X168070787Y-75896911D01*
X168066268Y-75896212D01*
X168062308Y-75895744D01*
X168056530Y-75895314D01*
X168054395Y-75895253D01*
X167397806Y-75699674D01*
X165442879Y-75112933D01*
X163461757Y-74536671D01*
X163430326Y-74536671D01*
X163417728Y-74536879D01*
X163404842Y-74537516D01*
X163391711Y-74538604D01*
X163378376Y-74540163D01*
X163364877Y-74542213D01*
X163351255Y-74544774D01*
X163337551Y-74547868D01*
X163323806Y-74551514D01*
X163310061Y-74555733D01*
X163296357Y-74560545D01*
X163282735Y-74565971D01*
X163269235Y-74572032D01*
X163255899Y-74578747D01*
X163242768Y-74586138D01*
X163229883Y-74594224D01*
X163217284Y-74603027D01*
X162134609Y-75339945D01*
X161633436Y-75682647D01*
X161381212Y-75855144D01*
X161132263Y-76027969D01*
X161111826Y-76039616D01*
X161093681Y-76051079D01*
X161077746Y-76062501D01*
X161070582Y-76068242D01*
X161063940Y-76074026D01*
X161057809Y-76079871D01*
X161052180Y-76085796D01*
X161047042Y-76091818D01*
X161042385Y-76097955D01*
X161038198Y-76104225D01*
X161034472Y-76110646D01*
X161031196Y-76117236D01*
X161028360Y-76124012D01*
X161025954Y-76130993D01*
X161023968Y-76138197D01*
X161022390Y-76145641D01*
X161021212Y-76153344D01*
X161020423Y-76161322D01*
X161020012Y-76169595D01*
X160548794Y-76169595D01*
X160493127Y-75944144D01*
X160297549Y-75207227D01*
X160249194Y-75013811D01*
X156134487Y-82897712D01*
X155497230Y-82897712D01*
X155997020Y-81224806D01*
X156480250Y-81224806D01*
X158135693Y-78043138D01*
X159955286Y-74564607D01*
X159955286Y-74582070D01*
X159960818Y-74569859D01*
X159965660Y-74556906D01*
X159969858Y-74543370D01*
X159973386Y-74529681D01*
X160660775Y-74529681D01*
X160680673Y-74639879D01*
X160703394Y-74750527D01*
X160728489Y-74861748D01*
X160755508Y-74973665D01*
X160873818Y-75430746D01*
X160922712Y-75612355D01*
X160954143Y-75612355D01*
X160983639Y-75594020D01*
X161011988Y-75575685D01*
X161039355Y-75557350D01*
X161065903Y-75539014D01*
X161091797Y-75520679D01*
X161117199Y-75502343D01*
X161167186Y-75465672D01*
X161229492Y-75417841D01*
X161293025Y-75371156D01*
X161357377Y-75325454D01*
X161422138Y-75280570D01*
X161551251Y-75192602D01*
X161677090Y-75105944D01*
X162367295Y-74630965D01*
X162716818Y-74391837D01*
X163070597Y-74155984D01*
X163095615Y-74141499D01*
X163122091Y-74128181D01*
X163149847Y-74116049D01*
X163178702Y-74105125D01*
X163208477Y-74095428D01*
X163238995Y-74086980D01*
X163270075Y-74079801D01*
X163301539Y-74073911D01*
X163333208Y-74069330D01*
X163364902Y-74066080D01*
X163396443Y-74064180D01*
X163427651Y-74063652D01*
X163458347Y-74064514D01*
X163488353Y-74066789D01*
X163517489Y-74070497D01*
X163545576Y-74075657D01*
X164324185Y-74286625D01*
X165070052Y-74495630D01*
X165763532Y-74695466D01*
X166384978Y-74878932D01*
X167813411Y-75322479D01*
X167844842Y-75322479D01*
X167918335Y-75341599D01*
X167992074Y-75362152D01*
X168065976Y-75383932D01*
X168139960Y-75406736D01*
X168287844Y-75454594D01*
X168435074Y-75504089D01*
X168438573Y-75497104D01*
X169290744Y-74135028D01*
X168798300Y-74002314D01*
X163549074Y-72675164D01*
X163482715Y-72675164D01*
X163470277Y-72675367D01*
X163457866Y-72675975D01*
X163445505Y-72676982D01*
X163433221Y-72678383D01*
X163421039Y-72680173D01*
X163408985Y-72682346D01*
X163397085Y-72684898D01*
X163385363Y-72687824D01*
X163373846Y-72691118D01*
X163362560Y-72694775D01*
X163351529Y-72698790D01*
X163340779Y-72703158D01*
X163330336Y-72707874D01*
X163320226Y-72712933D01*
X163310474Y-72718330D01*
X163301105Y-72724059D01*
X162057338Y-73533882D01*
X161403859Y-73962205D01*
X160727132Y-74414429D01*
X160723869Y-74416246D01*
X160720631Y-74418409D01*
X160717424Y-74420894D01*
X160714253Y-74423678D01*
X160711123Y-74426739D01*
X160708039Y-74430053D01*
X160702030Y-74437348D01*
X160696266Y-74445380D01*
X160690788Y-74453965D01*
X160685638Y-74462918D01*
X160680857Y-74472055D01*
X160676484Y-74481192D01*
X160672562Y-74490145D01*
X160669131Y-74498730D01*
X160666232Y-74506762D01*
X160663906Y-74514057D01*
X160662194Y-74520432D01*
X160661137Y-74525701D01*
X160660775Y-74529681D01*
X159973386Y-74529681D01*
X159973457Y-74529409D01*
X159976503Y-74515182D01*
X159979043Y-74500848D01*
X159981123Y-74486565D01*
X159982788Y-74472492D01*
X159984085Y-74458787D01*
X159985059Y-74445609D01*
X159986226Y-74421469D01*
X159986655Y-74401339D01*
X159986717Y-74386488D01*
X159750318Y-74202314D01*
X159507371Y-74015847D01*
X159001833Y-73632109D01*
X159005327Y-73628618D01*
X158792284Y-73464470D01*
X156480250Y-81224806D01*
X155997020Y-81224806D01*
X156197354Y-80554245D01*
X158345242Y-73370173D01*
X158327779Y-73387635D01*
X158336196Y-73361046D01*
X158343059Y-73336176D01*
X158345881Y-73324334D01*
X158348284Y-73312860D01*
X158350257Y-73301735D01*
X158351790Y-73290937D01*
X158352873Y-73280446D01*
X158353496Y-73270241D01*
X158353648Y-73260303D01*
X158353318Y-73250609D01*
X158352498Y-73241142D01*
X158351177Y-73231878D01*
X158349343Y-73222799D01*
X158346988Y-73213884D01*
X158344101Y-73205111D01*
X158340672Y-73196462D01*
X158336690Y-73187915D01*
X158332145Y-73179450D01*
X158327027Y-73171046D01*
X158321326Y-73162683D01*
X158315032Y-73154341D01*
X158308134Y-73145998D01*
X158300622Y-73137635D01*
X158292486Y-73129231D01*
X158283715Y-73120766D01*
X158274300Y-73112219D01*
X158264230Y-73103570D01*
X158253495Y-73094798D01*
X158229989Y-73076803D01*
X157712773Y-72700377D01*
X157217166Y-72333774D01*
X156739894Y-71973719D01*
X156277684Y-71616938D01*
X156268320Y-71607978D01*
X156258598Y-71599448D01*
X156248569Y-71591368D01*
X156238284Y-71583759D01*
X156227795Y-71576641D01*
X156217152Y-71570035D01*
X156206406Y-71563960D01*
X156195610Y-71558438D01*
X156184813Y-71553490D01*
X156174068Y-71549134D01*
X156163425Y-71545393D01*
X156152935Y-71542286D01*
X156142650Y-71539833D01*
X156132621Y-71538057D01*
X156122899Y-71536975D01*
X156113534Y-71536610D01*
X156104363Y-71536814D01*
X156095165Y-71537422D01*
X156085917Y-71538429D01*
X156076591Y-71539830D01*
X156067164Y-71541620D01*
X156057608Y-71543793D01*
X156047899Y-71546345D01*
X156038011Y-71549271D01*
X156027918Y-71552565D01*
X156017595Y-71556222D01*
X155996155Y-71564605D01*
X155973488Y-71574380D01*
X155949388Y-71585505D01*
X155334708Y-71928208D01*
X154720028Y-72273529D01*
X153326523Y-73059341D01*
X153308152Y-73069270D01*
X153289735Y-73080657D01*
X153271308Y-73093405D01*
X153252907Y-73107417D01*
X153234567Y-73122595D01*
X153216324Y-73138843D01*
X153198214Y-73156062D01*
X153180273Y-73174156D01*
X153162537Y-73193028D01*
X153145041Y-73212580D01*
X153127822Y-73232716D01*
X153110914Y-73253337D01*
X153094355Y-73274348D01*
X153078179Y-73295650D01*
X153047122Y-73338740D01*
X151842646Y-75285809D01*
X151276588Y-76203028D01*
X150735086Y-77096672D01*
X150722856Y-77121098D01*
X150711082Y-77145887D01*
X150699809Y-77170993D01*
X150689083Y-77196371D01*
X150678951Y-77221974D01*
X150669458Y-77247756D01*
X150660651Y-77273671D01*
X150652576Y-77299672D01*
X150645278Y-77325715D01*
X150638803Y-77351753D01*
X150633199Y-77377739D01*
X150628510Y-77403629D01*
X150624783Y-77429375D01*
X150622064Y-77454931D01*
X150620399Y-77480252D01*
X150619833Y-77505292D01*
X150619833Y-78849905D01*
X150619830Y-78849905D01*
X150619830Y-80177055D01*
X150617541Y-80206915D01*
X150617140Y-80221182D01*
X150124098Y-80221182D01*
X150127391Y-80211981D01*
X150127391Y-77487829D01*
X150127022Y-77466028D01*
X150125911Y-77443894D01*
X150124053Y-77421504D01*
X150121443Y-77398935D01*
X150118076Y-77376264D01*
X150113947Y-77353567D01*
X150109050Y-77330921D01*
X150103380Y-77308403D01*
X150096934Y-77286090D01*
X150089704Y-77264058D01*
X150081686Y-77242384D01*
X150072876Y-77221145D01*
X150063267Y-77200418D01*
X150052855Y-77180279D01*
X150041635Y-77160805D01*
X150029601Y-77142074D01*
X148821632Y-75166190D01*
X147700103Y-73352709D01*
X147684061Y-73327881D01*
X147667375Y-73303221D01*
X147650054Y-73278817D01*
X147632109Y-73254756D01*
X147613550Y-73231125D01*
X147594387Y-73208010D01*
X147574631Y-73185499D01*
X147554292Y-73163678D01*
X147533380Y-73142635D01*
X147511905Y-73122457D01*
X147489877Y-73103230D01*
X147467307Y-73085042D01*
X147444205Y-73067980D01*
X147420581Y-73052130D01*
X147396446Y-73037579D01*
X147371809Y-73024415D01*
X145960839Y-72238602D01*
X145355327Y-71901576D01*
X145058628Y-71734700D01*
X144762911Y-71564549D01*
X144753743Y-71558820D01*
X144744576Y-71553424D01*
X144735408Y-71548365D01*
X144726240Y-71543649D01*
X144717072Y-71539281D01*
X144707904Y-71535266D01*
X144698737Y-71531609D01*
X144689569Y-71528315D01*
X144680401Y-71525390D01*
X144671233Y-71522838D01*
X144662066Y-71520665D01*
X144652898Y-71518875D01*
X144643730Y-71517474D01*
X144634563Y-71516467D01*
X144625395Y-71515859D01*
X144616227Y-71515656D01*
X144607055Y-71515864D01*
X144597858Y-71516501D01*
X144588609Y-71517589D01*
X144579283Y-71519148D01*
X144569855Y-71521198D01*
X144560299Y-71523759D01*
X144550590Y-71526852D01*
X144540701Y-71530498D01*
X144530608Y-71534717D01*
X144520285Y-71539529D01*
X144509706Y-71544956D01*
X144498846Y-71551016D01*
X144487678Y-71557732D01*
X144476178Y-71565123D01*
X144464320Y-71573209D01*
X144452078Y-71582012D01*
X143512596Y-72293609D01*
X143012078Y-72668398D01*
X142499772Y-73041877D01*
X142496280Y-73045371D01*
X142470471Y-73066409D01*
X142447958Y-73086470D01*
X142428596Y-73105804D01*
X142420052Y-73115277D01*
X142412242Y-73124662D01*
X142405148Y-73133991D01*
X142398752Y-73143295D01*
X142393037Y-73152606D01*
X142387985Y-73161954D01*
X142383577Y-73171371D01*
X142379796Y-73180889D01*
X142376624Y-73190538D01*
X142374042Y-73200351D01*
X142372034Y-73210358D01*
X142370581Y-73220591D01*
X142369664Y-73231080D01*
X142369267Y-73241858D01*
X141523280Y-73241858D01*
X142304191Y-72650718D01*
X142808911Y-72278930D01*
X143311340Y-71902886D01*
X143810495Y-71523567D01*
X144305393Y-71141957D01*
X144344794Y-71113095D01*
X144383218Y-71088035D01*
X144420833Y-71066729D01*
X144457809Y-71049133D01*
X144476109Y-71041711D01*
X144494314Y-71035200D01*
X144512442Y-71029592D01*
X144530517Y-71024883D01*
X144548558Y-71021067D01*
X144566587Y-71018138D01*
X144584625Y-71016090D01*
X144602693Y-71014917D01*
X144620812Y-71014615D01*
X144639003Y-71015176D01*
G37*
%TD*%
M02*
