%TF.GenerationSoftware,KiCad,Pcbnew,8.0.1*%
%TF.CreationDate,2024-05-14T10:47:47-06:00*%
%TF.ProjectId,Badge Balam,42616467-6520-4426-916c-616d2e6b6963,rev?*%
%TF.SameCoordinates,Original*%
%TF.FileFunction,Profile,NP*%
%FSLAX46Y46*%
G04 Gerber Fmt 4.6, Leading zero omitted, Abs format (unit mm)*
G04 Created by KiCad (PCBNEW 8.0.1) date 2024-05-14 10:47:47*
%MOMM*%
%LPD*%
G01*
G04 APERTURE LIST*
%ADD10C,0.350000*%
%TA.AperFunction,Profile*%
%ADD11C,0.350000*%
%TD*%
G04 APERTURE END LIST*
D10*
X133857234Y-92044759D02*
X134168315Y-92368811D01*
X134478312Y-92692529D01*
X134787184Y-93015870D01*
X135094890Y-93338790D01*
X135401385Y-93661246D01*
X135706630Y-93983194D01*
X136010582Y-94304591D01*
X136313199Y-94625393D01*
X136614440Y-94945558D01*
X136914262Y-95265041D01*
X137212623Y-95583800D01*
X137509482Y-95901790D01*
X137804797Y-96218969D01*
X138098525Y-96535293D01*
X138390626Y-96850719D01*
X138681057Y-97165204D01*
X154353830Y-107194566D02*
X154759137Y-107006839D01*
X155145211Y-106828928D01*
X155513715Y-106660084D01*
X155866313Y-106499560D01*
X156204667Y-106346611D01*
X156530441Y-106200488D01*
X156922502Y-106026298D01*
X157150903Y-105925737D01*
D11*
X168423255Y-88744702D02*
X168423255Y-82303062D01*
D10*
X141146367Y-103340193D02*
X141188398Y-103459738D01*
X129724498Y-69893828D02*
X129360156Y-70011836D01*
X129014926Y-70168945D01*
X128691579Y-70362785D01*
X128392882Y-70590986D01*
X128121606Y-70851177D01*
X127880521Y-71140990D01*
X127672396Y-71458054D01*
X127500000Y-71800000D01*
X159516995Y-103391870D02*
X159533876Y-103345361D01*
X169414754Y-68330788D02*
X169596861Y-67975955D01*
X169735057Y-67603726D01*
X169828261Y-67218169D01*
X169875391Y-66823351D01*
X169881220Y-66595149D01*
D11*
X132275936Y-82272745D02*
X132275936Y-84022165D01*
X169881220Y-66595149D02*
X169842979Y-62347454D01*
X137538836Y-57962085D02*
X134407933Y-57962085D01*
X172544623Y-75661607D02*
X172975260Y-74965698D01*
D10*
X132767895Y-68212277D02*
X132963232Y-68512345D01*
X167319102Y-91534196D02*
X167568326Y-91245902D01*
X167788119Y-90934587D01*
X167977310Y-90603135D01*
X168134728Y-90254428D01*
X168259202Y-89891349D01*
X168349562Y-89516780D01*
X168404636Y-89133603D01*
X168423255Y-88744702D01*
X145457904Y-50537624D02*
X145468670Y-50749799D01*
D11*
X127956130Y-75325366D02*
X128818438Y-76724419D01*
X166213141Y-57962085D02*
X163160097Y-57962085D01*
D10*
X155457897Y-50537624D02*
X155432083Y-50026400D01*
X155356316Y-49529944D01*
X155233110Y-49050769D01*
X155064978Y-48591389D01*
X154854433Y-48154316D01*
X154603988Y-47742064D01*
X154316156Y-47357146D01*
X153993451Y-47002075D01*
X153638385Y-46679365D01*
X153253473Y-46391529D01*
X152841226Y-46141080D01*
X152404159Y-45930531D01*
X151944783Y-45762396D01*
X151465614Y-45639188D01*
X150969163Y-45563420D01*
X150457944Y-45537606D01*
X152933073Y-107832942D02*
X153269163Y-107680092D01*
X153606416Y-107527405D01*
X153945220Y-107375557D01*
X154285962Y-107225227D01*
X162401573Y-96799680D02*
X162438436Y-96760405D01*
D11*
X138681057Y-97165204D02*
X139130298Y-97645106D01*
D10*
X169016156Y-69420472D02*
X168802560Y-69366320D01*
X170820697Y-69890039D02*
X170589876Y-69822170D01*
X131059128Y-65232614D02*
X131203613Y-65554366D01*
X131372937Y-65863733D01*
X131404671Y-65917155D01*
X150457944Y-45537606D02*
X149946723Y-45563420D01*
X149450269Y-45639188D01*
X148971095Y-45762396D01*
X148511714Y-45930531D01*
X148074640Y-46141080D01*
X147662386Y-46391529D01*
X147277466Y-46679365D01*
X146922392Y-47002075D01*
X146599679Y-47357146D01*
X146311839Y-47742064D01*
X146061387Y-48154316D01*
X145850835Y-48591389D01*
X145682698Y-49050769D01*
X145559488Y-49529944D01*
X145483718Y-50026400D01*
X145457904Y-50537624D01*
D11*
X163160097Y-57962085D02*
X163160097Y-52427259D01*
D10*
X133323374Y-68980146D02*
X132970096Y-69069484D01*
X132616854Y-69158436D01*
X132295917Y-69238227D01*
D11*
X168065913Y-57962085D02*
X166783993Y-57962085D01*
X132295917Y-69238227D02*
X131730921Y-69379820D01*
D10*
X172513962Y-75710527D02*
X172544623Y-75661607D01*
X154285962Y-107225227D02*
X154353830Y-107194566D01*
X171698852Y-77011396D02*
X171898737Y-76684692D01*
X172100335Y-76360961D01*
X172304968Y-76037230D01*
X172513962Y-75710527D01*
X127717730Y-74901619D02*
X127886270Y-75210971D01*
X127956130Y-75325366D01*
X133825195Y-92011341D02*
X133857234Y-92044759D01*
X131042247Y-69554142D02*
X130694958Y-69643559D01*
X130486553Y-69695046D01*
X143436322Y-105879918D02*
X143784169Y-106037595D01*
X144130853Y-106194110D01*
X144476762Y-106349850D01*
X144822284Y-106505203D01*
D11*
X170976416Y-69942404D02*
X170820697Y-69890039D01*
D10*
X132259744Y-88057750D02*
X132259399Y-88098402D01*
X132259399Y-88098402D02*
X132272930Y-88516032D01*
X132313619Y-88922120D01*
X132381610Y-89317024D01*
X132477045Y-89701102D01*
X132600068Y-90074710D01*
X132750820Y-90438207D01*
X132929447Y-90791950D01*
X133136089Y-91136297D01*
X133370892Y-91471606D01*
X133633997Y-91798234D01*
X133825195Y-92011341D01*
D11*
X168802560Y-69366320D02*
X169414754Y-68330788D01*
D10*
X128818438Y-76724419D02*
X129034570Y-77072878D01*
X129250695Y-77421026D01*
X129466813Y-77768879D01*
X129682925Y-78116458D01*
X129899030Y-78463780D01*
X130115130Y-78810864D01*
X130331225Y-79157730D01*
X130547316Y-79504395D01*
X130763402Y-79850879D01*
X130979485Y-80197199D01*
X131195564Y-80543375D01*
X131411642Y-80889426D01*
X131627717Y-81235369D01*
X131843790Y-81581224D01*
X132059863Y-81927010D01*
X132275936Y-82272745D01*
X131730921Y-69379820D02*
X131386713Y-69465043D01*
X131042247Y-69554142D01*
X150341327Y-108616013D02*
X150710460Y-108603585D01*
X151087905Y-108554958D01*
X151468623Y-108464812D01*
X151814714Y-108343213D01*
X152104183Y-108208802D01*
D11*
X170589876Y-69822170D02*
X169016156Y-69420472D01*
X141087112Y-103162082D02*
X141146367Y-103340193D01*
D10*
X161544433Y-97702295D02*
X161796558Y-97432614D01*
X162054499Y-97161357D01*
X162313777Y-96890983D01*
X162365400Y-96837231D01*
X144822284Y-106505203D02*
X145154488Y-106654612D01*
X145487790Y-106804667D01*
X145823289Y-106956144D01*
X146162082Y-107109817D01*
D11*
X130420407Y-69711583D02*
X129724498Y-69893828D01*
X161482680Y-50749799D02*
X155447217Y-50749799D01*
D10*
X157150903Y-105925737D02*
X157556583Y-105721946D01*
X157932934Y-105483650D01*
X158278917Y-105211966D01*
X158593494Y-104908013D01*
X158875627Y-104572908D01*
X159124280Y-104207770D01*
X159338415Y-103813718D01*
X159516995Y-103391870D01*
X139130298Y-97645106D02*
X139257546Y-97992838D01*
X139384253Y-98341114D01*
X139510393Y-98689733D01*
X139635940Y-99038496D01*
X139760870Y-99387202D01*
X139885157Y-99735651D01*
X140008775Y-100083645D01*
X140131700Y-100430982D01*
X140253907Y-100777463D01*
X140375369Y-101122889D01*
X140496063Y-101467059D01*
X140615962Y-101809774D01*
X140735042Y-102150833D01*
X140853277Y-102490038D01*
X140970642Y-102827187D01*
X141087112Y-103162082D01*
X155447217Y-50749799D02*
X155457897Y-50537624D01*
D11*
X137538836Y-52427259D02*
X137538836Y-57962085D01*
D10*
X163160097Y-52427259D02*
X163107291Y-52008037D01*
X162957653Y-51627684D01*
X162724355Y-51299375D01*
X162420566Y-51036284D01*
X162059456Y-50851587D01*
X161654196Y-50758459D01*
X161482680Y-50749799D01*
X131737123Y-59094832D02*
X131511542Y-59368032D01*
X131312179Y-59667272D01*
X131123464Y-60031166D01*
X130993385Y-60368572D01*
X130892794Y-60746911D01*
X130831767Y-61165986D01*
X130820383Y-61625599D01*
X134386401Y-57962085D02*
X134007043Y-57979976D01*
X133655721Y-58030367D01*
X133230343Y-58139596D01*
X132853465Y-58286169D01*
X132524319Y-58458411D01*
X132178841Y-58692023D01*
X131905247Y-58924695D01*
X131737123Y-59094832D01*
X141188398Y-103459738D02*
X141346264Y-103830635D01*
X141532912Y-104179122D01*
X141748119Y-104504944D01*
X141991664Y-104807847D01*
X142263324Y-105087576D01*
X142562877Y-105343877D01*
X142890101Y-105576495D01*
X143244775Y-105785178D01*
X173276361Y-72060104D02*
X173128043Y-71713275D01*
X172943645Y-71388321D01*
X172725650Y-71087670D01*
X172476539Y-70813754D01*
X172198796Y-70569003D01*
X171894905Y-70355847D01*
X171567347Y-70176717D01*
X171218606Y-70034044D01*
X172975260Y-74965698D02*
X173157422Y-74630123D01*
X173299034Y-74279494D01*
X173399725Y-73917391D01*
X173459123Y-73547395D01*
X173476857Y-73173087D01*
X173452556Y-72798049D01*
X173385847Y-72425861D01*
X173276361Y-72060104D01*
X166783993Y-57962085D02*
X166426668Y-57950752D01*
X166213141Y-57962085D01*
D11*
X169842979Y-62347454D02*
X169842979Y-59739129D01*
X168423255Y-82303062D02*
X171698852Y-77011396D01*
X145468670Y-50749799D02*
X139216339Y-50749799D01*
D10*
X130820383Y-63990657D02*
X130839503Y-64348175D01*
X130896495Y-64700788D01*
X130990808Y-65045552D01*
X131059128Y-65232614D01*
X132275936Y-84022165D02*
X132275922Y-84396233D01*
X132275829Y-84772296D01*
X132275575Y-85149969D01*
X132275082Y-85528867D01*
X132274268Y-85908606D01*
X132273054Y-86288800D01*
X132271359Y-86669065D01*
X132269105Y-87049015D01*
X132266209Y-87428265D01*
X132262594Y-87806431D01*
X132259744Y-88057750D01*
X130486553Y-69695046D02*
X130420407Y-69711583D01*
D11*
X134407933Y-57962085D02*
X134386401Y-57962085D01*
D10*
X152104183Y-108208802D02*
X152440669Y-108056888D01*
X152777498Y-107903822D01*
X152933073Y-107832942D01*
X159533876Y-103345361D02*
X159655892Y-102999016D01*
X159779204Y-102649543D01*
X159903638Y-102297431D01*
X160029021Y-101943169D01*
X160155180Y-101587245D01*
X160281940Y-101230149D01*
X160409128Y-100872370D01*
X160536570Y-100514396D01*
X160664093Y-100156717D01*
X160791523Y-99799822D01*
X160918687Y-99444200D01*
X161045410Y-99090339D01*
X161171520Y-98738730D01*
X161296843Y-98389859D01*
X161421205Y-98044218D01*
X161544433Y-97702295D01*
D11*
X162438436Y-96760405D02*
X167319102Y-91534196D01*
D10*
X147162193Y-107566292D02*
X147496950Y-107719702D01*
X147832595Y-107873076D01*
X148169321Y-108025980D01*
X148507324Y-108177981D01*
X148701117Y-108264268D01*
X139216339Y-50749799D02*
X138797100Y-50802610D01*
X138416735Y-50952260D01*
X138088418Y-51185575D01*
X137825323Y-51489378D01*
X137640624Y-51850494D01*
X137547496Y-52255749D01*
X137538836Y-52427259D01*
X146162082Y-107109817D02*
X146505581Y-107265595D01*
X146849256Y-107422741D01*
X147162193Y-107566292D01*
X169842979Y-59739129D02*
X169806874Y-59380990D01*
X169667736Y-58968703D01*
X169437175Y-58608760D01*
X169129148Y-58315118D01*
X168757616Y-58101732D01*
X168336536Y-57982560D01*
X168065913Y-57962085D01*
X132963232Y-68512345D02*
X133168271Y-68799161D01*
X133323374Y-68980146D01*
D11*
X131404671Y-65917155D02*
X132767895Y-68212277D01*
X127623334Y-74726608D02*
X127717730Y-74901619D01*
D10*
X127500000Y-71800000D02*
X127367585Y-72159354D01*
X127277715Y-72527808D01*
X127230236Y-72901737D01*
X127224995Y-73277515D01*
X127261837Y-73651516D01*
X127340610Y-74020116D01*
X127461160Y-74379688D01*
X127623334Y-74726608D01*
D11*
X162365400Y-96837231D02*
X162401573Y-96799680D01*
D10*
X148701117Y-108264268D02*
X149039749Y-108400956D01*
X149390397Y-108504337D01*
X149752215Y-108574235D01*
X150124360Y-108610479D01*
X150341327Y-108616013D01*
D11*
X130820383Y-61625599D02*
X130820383Y-63990657D01*
D10*
X143244775Y-105785178D02*
X143436322Y-105879918D01*
X171218606Y-70034044D02*
X170976416Y-69942404D01*
M02*
