<?xml version="1.0" encoding="UTF-8"?>
<svg id="Capa_1" xmlns="http://www.w3.org/2000/svg" viewBox="0 0 155.27 155.27">
  <defs>
    <style>
      .cls-1 {
        fill: none;
      }

      .cls-2 {
        fill: #010101;
      }

      .cls-3 {
        stroke: #1d1d1b;
        stroke-miterlimit: 10;
      }

      .cls-4 {
        fill: #1d1d1b;
      }

      .cls-5 {
        fill: #fff;
      }
    </style>
  </defs>
  <g>
    <path class="cls-2" d="M144.86,38.82C123.42,1.7,75.95-11.02,38.82,10.41,1.7,31.85-11.02,79.32,10.41,116.45c21.43,37.13,68.91,49.85,106.03,28.41,37.13-21.43,49.85-68.91,28.41-106.03ZM77.63,152.58C36.24,152.58,2.69,119.03,2.69,77.63S36.24,2.69,77.63,2.69s74.94,33.55,74.94,74.94-33.55,74.94-74.94,74.94Z"/>
    <g>
      <path class="cls-4" d="M72.65,148.56l-.02,2.35-1.23-.2v-1.36s-.89-.14-.89-.14l-.42,1.3-1.23-.19.71-2.23,1.4-3.99,1.58.25.09,4.22ZM71.42,148.31v-1.98s-.59,1.89-.59,1.89l.59.09Z"/>
      <path class="cls-4" d="M74.24,144.5l1.22.03.74,3.09.09-3.05,1.16.02-.18,6.5-1.22-.03-.71-2.97-.08,2.95-1.19-.03.18-6.5ZM75.09,144.51l-.64-.33.17-.31c.19-.36.44-.54.74-.55h.03c.19,0,.41.1.69.28.11.07.19.11.25.11.03,0,.06-.01.08-.04l.21-.32.61.43-.19.3c-.18.27-.41.41-.68.41h-.03c-.19,0-.41-.1-.68-.28-.15-.1-.23-.15-.24-.15h0s-.07.05-.12.15l-.2.3Z"/>
      <path class="cls-4" d="M81.78,149.47c.08.93-.4,1.44-1.47,1.54-1.06.1-1.63-.32-1.72-1.25l-.35-3.86c-.08-.93.4-1.44,1.46-1.54,1.06-.1,1.64.32,1.72,1.24l.35,3.86ZM80.2,145.71c-.02-.24-.15-.35-.4-.33h0c-.24.02-.35.16-.32.4l.35,3.86c.02.24.15.35.39.33.24-.02.35-.15.33-.4l-.35-3.86Z"/>
      <path class="cls-4" d="M82.39,145.46c-.2-.91.23-1.48,1.27-1.7,1.04-.22,1.66.12,1.86,1.03l.19.9-1.21.26-.19-.9c-.05-.24-.19-.33-.43-.28h0c-.23.05-.33.2-.27.44l.12.56c.06.26.43.52,1.14.77.75.27,1.19.69,1.31,1.27l.17.78c.2.91-.23,1.48-1.27,1.7-1.04.22-1.66-.12-1.86-1.03l-.19-.9,1.21-.26.19.9c.05.24.2.33.43.28.24-.05.33-.19.28-.43l-.15-.71c-.06-.28-.44-.55-1.14-.8-.75-.27-1.19-.7-1.31-1.29l-.12-.58Z"/>
    </g>
    <g>
      <path class="cls-4" d="M16.45,59.95l-.43,1.59-7.6-2.07.43-1.59,7.6,2.07Z"/>
      <path class="cls-4" d="M15.12,52.69l-3.18-3.66.57-1.45,7.34,2.86-.57,1.47-4.55-1.78,2.59,2.9-.36.93-3.83.37,4.52,1.76-.57,1.45-7.34-2.86.56-1.43,4.83-.56Z"/>
      <path class="cls-4" d="M19.26,45.6l2.43,1.34-.79,1.44-6.89-3.81,1.4-2.54c.9-1.63,2.19-2.25,3.67-1.43,1.46.81,1.7,2.25.79,3.9l-.61,1.1ZM18.58,44.05c.55-1,.44-1.6-.3-2.01-.66-.36-1.25-.14-1.8.85l-.49.89,2.1,1.16.49-.89Z"/>
      <path class="cls-4" d="M21.99,32.07l3.79,2.75c1.88,1.37,1.89,3,.84,4.46s-2.62,1.94-4.49.58l-3.79-2.76.97-1.33,3.79,2.76c1.09.79,1.84.77,2.43-.04s.38-1.54-.71-2.33l-3.79-2.76.97-1.33Z"/>
      <path class="cls-4" d="M30.01,32.82l2.31-2.5.99.91-3.43,3.71-5.79-5.35,1.12-1.21,4.8,4.43Z"/>
      <path class="cls-4" d="M33.83,22.95c-.62-.17-1.11-.09-1.73.45-.56.49-.64,1-.29,1.4.4.47.97.33,1.96-.18,1.54-.8,2.52-.84,3.44.21.85.97.83,2.32-.6,3.56-1.07.93-2.06,1.3-3.2,1.08l.39-1.46c.67.11,1.22-.01,1.85-.56.71-.62.68-1.13.37-1.49-.36-.41-.82-.42-2.03.19-1.47.74-2.56.7-3.42-.28-.82-.94-.82-2.23.63-3.49.97-.85,1.99-1.17,2.99-.89l-.37,1.46Z"/>
      <path class="cls-4" d="M39.44,25.83l-2.12-8.1,1.3-.89,6.77,4.92-1.44.99-1.25-.96-2.24,1.53.44,1.51-1.45.99ZM40.06,21.96l1.51-1.03-2.32-1.78.81,2.81Z"/>
      <path class="cls-4" d="M48.54,11.25l3.57,7.02-1.22.62-5.02-2.92,2.21,4.35-1.39.71-3.57-7.02,1.21-.62,5.06,2.97-2.24-4.41,1.39-.71Z"/>
      <path class="cls-4" d="M54.25,17.37l-2.62-7.43,2.71-.96c1.73-.61,3.24-.17,4.07,2.19l.34.97c.83,2.36-.07,3.66-1.79,4.26l-2.71.96ZM57.21,12.69l-.34-.97c-.45-1.28-1.04-1.82-2.07-1.46l-1.16.41,1.72,4.88,1.16-.41c1.03-.36,1.14-1.17.69-2.45Z"/>
      <path class="cls-4" d="M64.71,14.33c-1.78.38-3.25-.4-3.76-2.75l-.23-1.09c-.51-2.38.52-3.67,2.3-4.05,1.79-.38,3.26.37,3.77,2.75l.23,1.09c.5,2.36-.52,3.67-2.31,4.06ZM62.56,11.23c.32,1.47.94,1.98,1.87,1.78s1.3-.92.99-2.4l-.23-1.09c-.32-1.47-.95-1.98-1.88-1.78-.93.2-1.29.92-.98,2.39l.23,1.09Z"/>
      <path class="cls-4" d="M97.39,7.97l-.34,1.32-3.3-.85-.44,1.71,2.95.76-.34,1.3-2.95-.76-.51,1.99,3.3.85-.34,1.3-4.89-1.26,1.97-7.63,4.89,1.26Z"/>
      <path class="cls-4" d="M99.23,15.52l3.19,1.2-.47,1.26-4.72-1.78,2.77-7.38,1.54.58-2.3,6.11Z"/>
      <path class="cls-4" d="M111.93,19.18l4.16-2.49,1.33.81-4.1,6.73-1.34-.82,2.55-4.17-3.31,2.05-.85-.52.31-3.84-2.53,4.14-1.33-.81,4.1-6.73,1.31.8-.29,4.85Z"/>
      <path class="cls-4" d="M114.51,25.09l7.17-4.31,1.22,1-2.81,7.88-1.35-1.11.57-1.47-2.1-1.72-1.33.84-1.36-1.12ZM118.39,24.6l1.42,1.16,1.05-2.73-2.47,1.57Z"/>
      <path class="cls-4" d="M131.06,29.7l-5.72,5.42-.94-1,1.37-5.64-3.54,3.35-1.07-1.13,5.72-5.42.94.99-1.41,5.7,3.59-3.4,1.07,1.13ZM129.14,26.41c-.15-.16-.37-.24-.64-.24l.02-1.12c.54-.03,1.09.15,1.45.53.37.39.41.91.7,1.22.15.15.36.23.63.21l-.02,1.12c-.53.04-1.09-.13-1.43-.5-.41-.43-.43-.93-.71-1.23Z"/>
      <path class="cls-4" d="M126.32,36.24l8.02-2.39.93,1.27-4.68,6.93-1.04-1.41.91-1.28-1.61-2.18-1.5.49-1.04-1.42ZM130.2,36.72l1.08,1.47,1.69-2.38-2.78.91Z"/>
      <path class="cls-4" d="M141.22,44.78l-6.87,3.85-.67-1.2,2.71-5.14-4.25,2.38-.76-1.36,6.87-3.85.67,1.19-2.76,5.18,4.31-2.42.76,1.36Z"/>
      <path class="cls-4" d="M135.03,49.98l8.36-.4.6,1.45-6.21,5.61-.67-1.62,1.19-1.03-1.03-2.51-1.57.11-.67-1.63ZM138.69,51.38l.7,1.69,2.22-1.9-2.91.21Z"/>
    </g>
    <g>
      <polygon class="cls-4" points="80.69 131.78 80.68 133.01 80.68 134.12 80.68 134.12 80.68 134.63 81.23 135.18 81.02 135.4 82 136.38 82.98 135.4 82.72 135.14 82.98 134.89 82.93 134.85 82.98 134.8 82 133.82 81.79 134.04 81.46 133.71 81.46 132.27 81.46 130.95 81.46 130.95 81.46 130.86 79.56 128.94 79.56 128.57 79.57 120.45 82.58 120.45 82.57 126.97 82.27 126.97 82.27 127.06 82.27 127.06 82.26 128.44 82.26 128.44 82.26 128.95 83.65 128.95 83.65 128.36 83.65 128.36 83.65 126.97 83.35 126.97 83.36 120.47 83.36 119.68 83.36 119.68 83.36 119.08 78.8 119.07 78.8 119.67 78.8 119.67 78.79 124.67 78.78 129.35 78.78 129.35 78.78 129.86 80.69 131.78"/>
      <polygon class="cls-4" points="97.67 126.53 97.67 126.44 96.29 126.44 96.29 126.52 96.29 126.52 96.28 127.91 96.28 127.91 96.28 128.42 96.59 128.42 96.58 131.41 96.58 134.62 94.94 136.25 94.4 136.25 95.23 135.43 95.02 135.22 95.45 134.79 95.45 134.28 95.45 134.28 95.45 134.19 95.45 134.19 95.44 127.19 97.37 125.27 97.37 124.68 97.37 124.68 97.38 121.7 97.38 119.19 97.38 119.19 97.38 119.11 92.82 119.1 92.82 119.69 92.82 119.69 92.81 121.58 92.81 122.6 92.51 122.6 92.51 122.69 92.51 122.69 92.51 124.07 92.51 124.07 92.5 124.58 93.79 124.58 92.81 125.56 92.81 125.65 92.81 125.65 92.79 133.04 88.28 137.54 87.83 137.54 86.26 135.95 86.43 135.78 86.38 135.74 86.43 135.7 85.45 134.72 84.47 135.69 84.52 135.74 84.47 135.78 84.73 136.04 84.47 136.29 85.45 137.27 85.66 137.06 87.51 138.91 88.6 138.91 93.57 133.96 93.57 133.45 93.57 133.45 93.58 126.48 95.51 124.55 95.51 124.04 95.51 124.04 95.52 122.88 95.52 122.67 95.82 122.67 95.82 122.07 95.82 122.07 95.82 120.69 94.44 120.69 94.44 120.77 94.44 120.77 94.44 122.15 94.44 122.15 94.44 122.66 94.74 122.66 94.74 123.63 93.89 124.48 93.89 124.07 93.89 124.07 93.89 122.69 93.89 122.69 93.89 122.6 93.59 122.6 93.59 120.47 96.6 120.48 96.59 124.35 94.67 126.27 94.67 126.36 94.67 126.36 94.67 126.87 94.67 126.87 94.67 133.87 94.47 134.07 94.26 133.85 93.27 134.82 93.32 134.86 93.27 134.9 93.53 135.16 93.27 135.42 94.09 136.25 92.26 136.25 88.82 139.64 87.36 139.64 84.09 136.36 84.09 135.07 84.09 133.87 84.09 133.87 84.09 133.79 83.34 133.02 83.34 130.1 81.43 128.19 81.44 125.03 81.44 122.5 81.75 122.5 81.75 121.99 81.75 121.99 81.75 120.61 81.75 120.61 81.75 120.53 80.37 120.52 80.37 121.12 80.37 121.12 80.37 122.5 80.67 122.5 80.66 125.36 80.66 128.59 80.66 128.59 80.66 129.1 82.56 131.02 82.56 133.43 82.56 133.43 82.56 133.94 83.32 134.7 83.32 135.93 83.31 136.76 83.31 136.76 83.31 137.28 87.03 141.01 89.13 141.02 92.58 137.62 93.14 137.62 92.22 138.54 92.26 138.58 92.22 138.62 92.39 138.79 89.84 141.33 86.25 141.32 79.54 134.59 79.55 133.12 79.55 133.03 79.85 133.03 79.85 132.52 79.85 132.52 79.85 131.14 79.85 131.14 79.85 131.06 78.47 131.05 78.47 131.14 78.47 131.14 78.47 132.52 78.47 132.52 78.47 133.03 78.77 133.03 78.77 135 78.77 135 78.77 135.51 85.93 142.7 90.16 142.7 92.98 139.9 93.19 140.11 94.17 139.14 93.92 138.88 94.17 138.63 94.13 138.58 94.17 138.54 93.26 137.62 95.26 137.62 97.35 135.54 97.35 133.88 97.36 128.42 97.67 128.42 97.67 127.82 97.67 127.82 97.67 127.27 97.67 126.53 97.67 126.53"/>
      <polygon class="cls-4" points="72.24 136.97 72.46 136.76 73.57 137.88 73.57 138.61 73.26 138.6 73.25 139.99 73.25 139.99 73.25 140.07 73.25 140.07 73.25 140.58 74.63 140.6 74.64 139.22 74.64 139.22 74.64 138.7 74.64 138.7 74.64 138.62 74.35 138.61 74.35 137.57 74.35 137.56 74.36 137.06 74.36 137.05 74.36 136.97 73.05 135.66 73.22 135.49 73.18 135.44 73.22 135.4 72.25 134.42 71.27 135.4 71.31 135.44 71.27 135.48 71.52 135.74 71.27 135.99 72.24 136.97"/>
      <path class="cls-4" d="M71.71,118.57v.6h0v2.95s-.37.36-.37.36l-.21-.22-.98.98.04.04-.04.04.25.26-.26.25.83.83h-1.83s-2.18,2.17-2.18,2.17l-4.72-4.74v-1.42s0-1.54,0-1.54h0v-.6s-4.56,0-4.56,0v.09h0v2.81s0,2.55,0,2.55h0v.6s.71.72.71.72l-.21.21.98.98.98-.98-.26-.26.26-.25-.04-.04.04-.04-.98-.98-.21.21-.49-.49v-3.75s3.02,0,3.02,0v.91s0,1.59,0,1.59h0v.6s5.49,5.51,5.49,5.51l2.5-2.49h.56s-.87.86-.87.86l.04.04-.04.04.17.17-2.15,2.15-.23-.24-.19.18-3.09-3.1.17-.17-.04-.04.04-.04-.98-.98-.98.98.04.04-.04.04.25.26-.26.25.98.98.21-.21,3.13,3.14-.24.24.97.98.22-.21,2.78,2.81v2.14h0v.51s1.75,1.76,1.75,1.76v1.48s0,1.57,0,1.57h0v.51s4.56,0,4.56,0v-.51h0v-2.74s0-2.2,0-2.2h0v-.6s-5.75-5.77-5.75-5.77l5.77-5.75v-5.44h0v-.6s-4.56,0-4.56,0ZM72.1,123.84l-.21-.22.59-.59v-.6h0v-1.32s0-1.18,0-1.18h3.01s0,1.39,0,1.39v2.37s-6.4,6.37-6.4,6.37l.04.04-.04.04.25.26-.26.25,6.37,6.4v3.76s-3.02,0-3.02,0v-3.02h0v-.09s-1.75-1.76-1.75-1.76v-2.64s-2.89-2.93-2.89-2.93l2.12-2.11.21.21.98-.98-.25-.26.26-.25-.04-.04.04-.04-.86-.87h1.9s2.21-2.19,2.21-2.19l.02-1.71h.3s.01-1.38.01-1.38h0s0-.51,0-.51h0v-.09s-1.38-.01-1.38-.01v1.38s-.01,0-.01,0v.09s0,0,0,0v.51s.29,0,.29,0v.79s-1.76,1.75-1.76,1.75h-.56s.83-.83.83-.83Z"/>
      <polygon class="cls-4" points="68.47 133.29 68.25 133.5 66.95 132.2 61.44 137.69 61.44 137.78 61.44 137.78 61.43 140.8 58.42 140.79 58.43 137.03 64.83 130.66 64.57 130.4 64.83 130.15 64.79 130.11 64.83 130.06 61.35 126.58 61.36 125.33 61.36 123.99 61.36 123.99 61.36 123.9 60.36 122.9 60.36 122.11 60.66 122.11 60.67 121.6 60.67 121.6 60.67 121.28 60.67 120.73 60.67 120.73 60.67 120.22 60.67 120.22 60.67 120.13 59.29 120.13 59.29 120.22 59.29 120.22 59.28 121.6 59.28 121.6 59.28 122.11 59.59 122.11 59.58 123.22 59.58 123.22 59.58 123.3 59.58 123.3 59.58 123.81 60.58 124.82 60.58 125.63 60.58 126.9 60.58 126.9 60.58 127.49 63.43 130.36 57.66 136.11 57.65 141.57 57.65 141.57 57.65 142.17 62.21 142.17 62.21 141.66 62.21 141.66 62.21 138.61 66.95 133.89 67.7 134.64 67.49 134.86 68.46 135.84 69.44 134.86 69.19 134.61 69.44 134.35 69.4 134.31 69.44 134.27 68.47 133.29"/>
      <polygon class="cls-4" points="65.29 130.72 64.31 131.69 64.35 131.73 64.31 131.78 64.48 131.95 59.55 136.86 59.55 137.46 59.55 137.46 59.55 138.58 59.55 138.67 59.24 138.67 59.24 138.75 59.24 138.75 59.24 140.14 59.24 140.14 59.24 140.65 60.62 140.65 60.62 140.05 60.62 140.05 60.63 138.67 60.32 138.67 60.32 138.36 60.33 137.78 65.07 133.05 65.29 133.27 66.26 132.29 66.01 132.04 66.27 131.78 66.22 131.74 66.27 131.69 65.29 130.72"/>
    </g>
  </g>
  <g>
    <path class="cls-4" d="M44.33,86.75c0-1.17-.12-1.08,1.05-1.08,3.88,0,7.76,0,11.65,0,2.11,0,3.86-1.34,4.44-3.36.27-.92.1-1.86.15-2.79.15-2.59-2-4.81-4.76-4.78-3.96.04-7.91,0-11.87.02-.48,0-.69-.12-.67-.65.03-1.34,0-2.67.01-4.01,0-.89.48-1.47,1.34-1.7.31-.08.62-.07.93-.07,6.87,0,13.73.02,20.6-.01,2.05,0,3.56-.98,4.43-2.87.47-1.02.39-2.11.39-3.19,0-2.84-2.04-4.88-4.88-4.88-3.57,0-7.14,0-10.71,0-3.33,0-6.67.02-10,0-2.3-.01-4.51.38-6.66,1.18-3.2,1.2-5.21,3.48-6.11,6.76-.59,2.16-.62,4.37-.61,6.59.03,7.07,0,14.14.01,21.21,0,2.25,1.48,4.11,3.66,4.61,1.12.25,2.26.19,3.39.08.47-.04.94-.17,1.37-.38,1.95-.93,2.82-2.54,2.85-4.63.03-2.01,0-4.03,0-6.04Z"/>
    <path class="cls-4" d="M76.6,98.43c.75.12,1.5.06,2.25.06,3.09,0,5.06-1.96,5.06-5.03,0-3.22,0-6.44,0-9.66,0-3.37,0-6.74,0-10.1,0-2.08-1.32-3.81-3.29-4.45-1.02-.33-2.07-.24-3.1-.24-2.84,0-4.96,2-4.97,4.83-.04,6.64-.03,13.29,0,19.93.01,2.43,1.68,4.27,4.07,4.67Z"/>
    <path class="cls-4" d="M83.56,62.1c0-2.99-2.37-5.34-5.39-5.34-4.71,0-7.21,5.77-3.85,9.14,3.34,3.34,9.24.93,9.24-3.8Z"/>
    <path class="cls-4" d="M117.23,57.47c-4.65.1-9.3.03-13.95.03-4.74,0-9.49,0-14.23,0-2.18,0-3.9,1.3-4.55,3.38-.3.98-.22,1.99-.2,3,.05,2.76,2.11,4.8,4.88,4.81,2.56,0,5.13.01,7.69,0,.52,0,.71.15.7.69-.02,1.94,0,3.88,0,5.82,0,5.9,0,11.79,0,17.69,0,2.57,1.63,4.5,4.15,4.87.72.1,1.46.02,2.19.05,2.99.12,5.09-2.28,5.06-5.06-.07-7.64-.03-15.27-.03-22.91,0-1.27-.07-1.14,1.11-1.14,2.49,0,4.98.04,7.47-.02,1.86-.04,3.28-.91,4.17-2.59.61-1.14.49-2.38.53-3.6.1-2.9-2.27-5.08-5-5.02Z"/>
  </g>
  <path class="cls-4" d="M130.26,46.54c-8.21-14.57-21.47-24.93-37.36-29.19-15.61-4.18-31.91-1.93-45.89,6.34C17.93,40.9,7.93,79.14,24.71,108.94c7.49,13.3,18.65,22.79,32.34,27.55v-.03s0,0,0,0v-.51s0,0,0,0v-.09s1.24-1.23,1.24-1.23c-13.43-4.52-24.37-13.75-31.7-26.75-16.21-28.78-6.56-65.71,21.51-82.32,13.47-7.97,29.18-10.14,44.23-6.11,15.32,4.1,28.12,14.1,36.04,28.16,16.21,28.78,6.56,65.71-21.51,82.32-2.6,1.54-6.14,3.29-8.91,4.4v.95s0,0,0,0v.51s-.53.52-.53.52c.29.22.68.29,1.05.14,2.94-1.16,6.67-3,9.49-4.67,29.08-17.21,39.08-55.45,22.3-85.25Z"/>
  <path class="cls-4" d="M130.26,46.54c-8.21-14.57-21.47-24.93-37.36-29.19-15.61-4.18-31.91-1.93-45.89,6.34C17.93,40.9,7.93,79.14,24.71,108.94c7.49,13.3,18.65,22.79,32.34,27.55v-.03s0,0,0,0v-.51s0,0,0,0v-.09s1.24-1.23,1.24-1.23c-13.43-4.52-24.37-13.75-31.7-26.75-16.21-28.78-6.56-65.71,21.51-82.32,13.47-7.97,29.18-10.14,44.23-6.11,15.32,4.1,28.12,14.1,36.04,28.16,16.21,28.78,6.56,65.71-21.51,82.32-2.6,1.54-6.14,3.29-8.91,4.4v.95s0,0,0,0l.48.48-.52.52c.29.22.2.32.56.18,2.94-1.16,6.67-3,9.49-4.67,29.08-17.21,39.08-55.45,22.3-85.25Z"/>
  <g>
    <path class="cls-1" d="M88.06,136.63l.53-.53c-.3.06-.59.12-.89.17l.36.36Z"/>
    <path class="cls-1" d="M89.3,56.3c-.09,0-.17,0-.26,0-.05,0-.1,0-.14,0-1.2.03-2.29.38-3.2.99-.14.09-.27.19-.4.3-.5.41-.93.9-1.28,1.47-.37-.71-.87-1.34-1.46-1.86-.09-.08-.19-.16-.29-.24-.25-.19-.51-.37-.78-.52-.11-.06-.23-.13-.35-.18-.89-.44-1.89-.68-2.97-.68-.26,0-.52.02-.78.05-.16.02-.32.04-.48.07-1.56.3-2.93,1.14-3.9,2.4-.08.1-.15.2-.22.3-.15.22-.29.44-.41.68-1.03-1.77-2.92-2.89-5.24-2.89-.84,0-1.68,0-2.51,0-.51,0-1.03,0-1.54,0-1.01,0-2.02,0-3.04,0h-.56s-2.05,0-2.05,0h-1c-.13,0-.27,0-.4,0-.87,0-1.73,0-2.6,0-.03,0-.06,0-.1,0-.13,0-.27,0-.4,0-1.06,0-2.12,0-3.2,0-.13,0-.27,0-.4,0-.9,0-1.8,0-2.69,0-.07,0-.13,0-.2,0-.41,0-.82.01-1.24.04-.9.05-1.79.16-2.66.33-.13.03-.27.05-.4.08-.95.2-1.88.47-2.79.81-.14.05-.27.11-.41.17-.13.06-.27.11-.4.17-1.24.56-2.3,1.29-3.2,2.18-.14.14-.27.28-.4.42-1.12,1.26-1.94,2.8-2.44,4.63,0,.03-.01.06-.02.09-.06.21-.11.42-.16.63-.44,1.96-.48,3.91-.48,6.03,0,.05,0,.11,0,.16,0,.08,0,.16,0,.24,0,.23,0,.46,0,.68,0,.13,0,.27,0,.4,0,1.68,0,3.36,0,5.04,0,.17,0,.33,0,.5,0,2.37,0,4.74,0,7.06,0,.65,0,1.31,0,1.96,0,.17,0,.33,0,.5,0,1.61,0,3.22,0,4.83,0,1.98.91,3.71,2.4,4.79.36.26.75.48,1.17.66.33.14.67.25,1.03.33.68.15,1.36.21,2.01.21.03,0,.06,0,.08,0,.14,0,.27,0,.4-.01.44-.02.87-.05,1.28-.08.61-.06,1.21-.22,1.77-.49.05-.02.1-.05.15-.08.14-.07.27-.14.4-.22,1.92-1.12,2.95-2.97,2.98-5.4.02-1.27.02-2.55.01-3.8,0-.03,0-.07,0-.1,0-.12,0-.24,0-.35,0-.16,0-.32,0-.49,0-.15,0-.31,0-.46,0-.25,0-.49,0-.74.69,0,1.39,0,2.08,0,.19,0,.38,0,.57,0,.5,0,1.01,0,1.51,0,1.08,0,2.16,0,3.24,0,.13,0,.27,0,.4,0,1.07,0,2.13,0,3.2,0,.13,0,.27,0,.4,0,.03,0,.07,0,.1,0,1.13,0,2.19-.32,3.1-.89.14-.09.27-.18.4-.27.98-.74,1.73-1.8,2.09-3.06.23-.78.21-1.54.2-2.2,0-.3-.01-.58,0-.85.09-1.56-.46-3.06-1.56-4.21-.23-.24-.47-.45-.73-.64-.13-.1-.26-.19-.4-.27-.96-.61-2.1-.94-3.28-.93-2.38.02-4.8.02-7.14.02-.76,0-1.52,0-2.28,0-.19,0-.38,0-.57,0-.45,0-.89,0-1.34,0,0-.12,0-.24,0-.37,0-.15,0-.31,0-.46,0-.16,0-.33,0-.49,0-.15,0-.31,0-.46,0-.06,0-.12,0-.18,0-.5,0-1,0-1.5,0-.29.06-.43.4-.54.02,0,.03-.01.05-.02.11-.03.28-.03.46-.03.02,0,.04,0,.06,0h.1c.69,0,1.37,0,2.06,0,.14,0,.29,0,.43,0,.29,0,.58,0,.88,0,.14,0,.29,0,.43,0,.68,0,1.36,0,2.05,0,.16,0,.32,0,.49,0,.13,0,.27,0,.4,0,.84,0,1.68,0,2.53,0-.02-.07-.03-.13-.03-.2,0-.44.4-.79.9-.79s.9.35.9.79c0,.07-.01.14-.03.2,2.04,0,4.08,0,6.13,0,.13,0,.27,0,.4,0,.84,0,1.69,0,2.53,0-.02-.06-.03-.12-.03-.19,0-.44.4-.79.9-.79s.9.35.9.79c0,.03,0,.05,0,.08.65-.12,1.26-.33,1.8-.63.11-.06.23-.13.34-.2.55-.36,1.03-.82,1.44-1.38.07-.1.14-.2.21-.31.19-.29.36-.6.52-.93.01-.02.02-.05.03-.07.22.31.46.6.73.88.59.59,1.27,1.05,2,1.37-.44.14-.85.33-1.24.56-.11.07-.22.14-.33.21-1.57,1.07-2.56,2.84-2.57,4.94,0,1.5-.01,3.01-.02,4.53,0,.17,0,.33,0,.5,0,.78,0,1.57,0,2.36,0,.12,0,.25,0,.37,0,.27,0,.54,0,.81,0,1.37,0,2.75,0,4.15,0,1.48,0,2.98.01,4.5,0,.16,0,.33,0,.5,0,.74,0,1.48,0,2.23,0,.14.01.28.02.41.01.15.03.3.05.45.27,1.92,1.41,3.49,3.11,4.35.13.07.26.13.4.19.47.2.96.34,1.5.43.44.07.86.09,1.26.09.15,0,.29,0,.44,0,.06,0,.12,0,.17,0,.08,0,.15,0,.23,0,.11,0,.22,0,.32,0,.01,0,.02,0,.03,0,1.05,0,2-.2,2.84-.57.14-.06.27-.13.4-.2.47-.26.9-.57,1.28-.94,1.12-1.12,1.72-2.68,1.72-4.51,0-1.48,0-2.96,0-4.44-.3-.13-.5-.4-.5-.71s.21-.58.5-.71c0-1.27,0-2.54,0-3.81v-3.02c0-2.36,0-4.73,0-7.09,0-2.17-1.15-4.06-3-5.09-.13-.07-.26-.14-.4-.21-.23-.11-.47-.21-.73-.29-.05-.02-.1-.03-.15-.04.31-.14.6-.3.87-.47.14-.09.27-.18.4-.28.53-.39,1-.84,1.38-1.35.38,1.03,1.01,1.92,1.84,2.58.06-.01.12-.02.18-.02.46,0,.84.31.89.7.75.38,1.6.6,2.51.64.09,0,.18.01.28.01h.12s.66,0,.66,0c.7,0,1.4,0,2.1,0,.42,0,.84,0,1.26,0,.92,0,1.85,0,2.77,0,.09,0,.18,0,.27,0,0,.94,0,1.87,0,2.8,0,.3,0,.61,0,.91v1.28s0,.32,0,.32v.89s0,4.35,0,4.35c0,2.69,0,5.38,0,8.07,0,.73,0,1.46,0,2.19,0,.12,0,.24,0,.36,0,.28,0,.57,0,.85,0,.12,0,.24,0,.36,0,.21,0,.41,0,.62,0,2.3,1.1,4.2,2.88,5.25.11.07.23.13.35.19.59.3,1.24.51,1.95.61.54.08,1.06.07,1.55.06.06,0,.13,0,.19,0,.13,0,.27,0,.4,0,.06,0,.11,0,.17,0,.09,0,.18,0,.27,0,1.58,0,3.05-.58,4.16-1.66,1.22-1.18,1.9-2.86,1.89-4.62-.05-5.47-.04-11.04-.03-16.43,0-2.14,0-4.27,0-6.41.78,0,1.55,0,2.33,0,1.66,0,3.38.02,5.08-.02,1.46-.03,2.72-.5,3.72-1.35.14-.12.27-.25.4-.38.41-.42.77-.92,1.08-1.49.63-1.19.64-2.41.66-3.48,0-.21,0-.43.01-.64.06-1.68-.55-3.25-1.72-4.44,0,0-.02-.02-.03-.02-.13-.13-.26-.25-.4-.36-.74-.61-1.61-1.04-2.54-1.26-.17-.04-.35-.08-.53-.1-.19-.03-.38-.05-.57-.06-.15,0-.29-.02-.44-.01-.03,0-.07,0-.1,0-2.06.04-4.15.05-6.22.05-.13,0-.27,0-.4,0-1.02,0-2.03,0-3.03,0-1.06,0-2.11,0-3.17,0-.18,0-.36,0-.53,0-.16,0-.31,0-.47,0h-.58s-2.61,0-2.61,0h-.4s-.53,0-.53,0c-.69,0-1.38,0-2.07,0-.18,0-.36,0-.54,0-.17,0-.34,0-.51,0-.18,0-.36,0-.54,0-.87,0-1.74,0-2.6,0-.13,0-.27,0-.4,0-1.07,0-2.13,0-3.2,0Z"/>
    <path class="cls-1" d="M28.44,47.17c0-.17-.12-.32-.29-.39-.15.26-.3.51-.45.77.07.04.15.06.24.06.28,0,.5-.2.5-.44Z"/>
    <path class="cls-1" d="M28.84,47.17c0,.15-.05.3-.14.42l6.63,5.84v6.53c.89-.89,1.96-1.62,3.2-2.18v-4.2l-2.92-2.57c-.14.08-.3.12-.48.12-.5,0-.9-.35-.9-.79s.4-.79.9-.79.9.35.9.79c0,.15-.05.3-.14.42l3.04,2.67v4.17c.14-.06.27-.11.41-.17.91-.34,1.84-.61,2.79-.81v-3.05l-10.11-8.9c-.14.08-.3.12-.48.12-.5,0-.9-.35-.9-.79s.4-.79.9-.79.9.35.9.79c0,.15-.05.3-.14.42l10.23,9v3.11c.88-.17,1.77-.28,2.66-.33.13-.16.31-.27.53-.32v-2.32l-6.52-5.73c-.14.08-.3.12-.48.12-.5,0-.9-.35-.9-.79s.4-.79.9-.79.9.35.9.79c0,.15-.05.3-.14.42l6.63,5.84v2.47c.2.04.38.14.5.28.89,0,1.79,0,2.69,0v-2.61l-3.6-3.16v-3.16l-3.48-3.06h-6.24c-.09.35-.45.62-.88.62-.5,0-.9-.35-.9-.79s.4-.79.9-.79c.43,0,.78.26.88.62h6.4l3.71,3.27v3.16l3.6,3.16v2.76c1.07,0,2.14,0,3.2,0v-11.41c-.4-.08-.7-.4-.7-.77,0-.44.4-.79.9-.79s.9.35.9.79c0,.37-.29.69-.7.77v11.4s.06,0,.1,0c.87,0,1.73,0,2.6,0,.16-.18.42-.31.7-.31s.54.12.7.3h2.05s-2.96-2.61-2.96-2.61v-8.8c-.4-.08-.7-.4-.7-.77,0-.44.4-.79.9-.79s.9.35.9.79c0,.38-.3.69-.7.77v8.65l3.12,2.75c1.01,0,2.02,0,3.04,0l-2.96-2.61v-22.15l-7.99-7.03c-2.07,1.04-4.07,2.2-6,3.48v9.04c.4.08.7.4.7.77,0,.44-.4.79-.9.79s-.9-.35-.9-.79c0-.38.3-.69.7-.77v-8.77c-1.09.74-2.16,1.51-3.2,2.32v.96l-3.04,2.67c.09.12.14.27.14.42,0,.44-.4.79-.9.79s-.87-.34-.9-.76c-.98.95-1.93,1.94-2.85,2.95h2.87c.09-.35.45-.62.88-.62.5,0,.9.35.9.79s-.4.79-.9.79c-.43,0-.78-.26-.88-.62h-3.18c-.81.91-1.58,1.85-2.33,2.81h9.11c.09-.35.45-.62.88-.62.5,0,.9.35.9.79s-.4.79-.9.79c-.43,0-.79-.26-.88-.62h-9.39c-1.34,1.74-2.58,3.56-3.72,5.45.29.13.5.4.5.7ZM50.01,32.02c-.14.08-.3.12-.48.12-.5,0-.9-.35-.9-.79s.4-.79.9-.79.9.35.9.79c0,.15-.05.3-.14.42l3.04,2.67v3.31l-3.04,2.67c.09.12.14.27.14.42,0,.44-.4.79-.9.79s-.9-.35-.9-.79.4-.79.9-.79c.18,0,.34.05.48.12l2.92-2.57v-3.02l-2.92-2.57ZM49.53,43.22c.18,0,.34.05.48.12l3.04-2.67h3.48v-6.08l-6.52-5.73c-.14.08-.3.12-.48.12-.5,0-.9-.35-.9-.79s.4-.79.9-.79.9.35.9.79c0,.15-.05.3-.14.42l6.63,5.84v6.58h-3.71l-2.92,2.57c.09.12.14.27.14.42,0,.44-.4.79-.9.79s-.9-.35-.9-.79.4-.79.9-.79Z"/>
    <ellipse class="cls-1" cx="49.53" cy="28.18" rx=".5" ry=".44"/>
    <ellipse class="cls-1" cx="49.53" cy="31.35" rx=".5" ry=".44"/>
    <ellipse class="cls-1" cx="49.53" cy="40.84" rx=".5" ry=".44"/>
    <path class="cls-1" d="M49.53,44.45c.28,0,.5-.2.5-.44s-.22-.44-.5-.44-.5.2-.5.44.22.44.5.44Z"/>
    <path class="cls-1" d="M31.04,63c0,.24.22.44.5.44s.5-.2.5-.44-.22-.44-.5-.44c0,0,0,0,0,0s0,0,0,0c-.28,0-.5.2-.5.44Z"/>
    <path class="cls-1" d="M26.92,106.65c1.32,2.43,2.8,4.76,4.42,6.97v-3.08l-4.42-3.89Z"/>
    <path class="cls-1" d="M35.64,113.63c0-.24-.22-.44-.5-.44s-.5.2-.5.44.22.44.5.44c0,0,0,0,0,0s0,0,0,0c.28,0,.5-.2.5-.44Z"/>
    <ellipse class="cls-1" cx="27.94" cy="56.67" rx=".5" ry=".44"/>
    <path class="cls-1" d="M21.13,91.21c.03.13.06.25.09.38.01-.04.03-.07.03-.11,0-.1-.05-.2-.12-.27Z"/>
    <path class="cls-1" d="M27.94,63.43c.28,0,.5-.2.5-.44s-.22-.44-.5-.44-.5.2-.5.44.22.44.5.44Z"/>
    <ellipse class="cls-1" cx="103.49" cy="100.97" rx=".5" ry=".44"/>
    <path class="cls-1" d="M96.3,56.23h0c-.1,0-.18.03-.26.07.17,0,.34,0,.51,0-.08-.04-.16-.07-.26-.07,0,0,0,0,0,0Z"/>
    <path class="cls-1" d="M81.91,56.23c-.18,0-.33.09-.42.21.27.16.54.33.78.52.08-.08.13-.18.13-.29,0-.24-.22-.44-.5-.44Z"/>
    <ellipse class="cls-1" cx="96.3" cy="50.34" rx=".5" ry=".44"/>
    <path class="cls-1" d="M103.24,56.3h.04c.16,0,.31,0,.47,0-.08-.04-.16-.07-.26-.07s-.18.03-.26.07Z"/>
    <path class="cls-1" d="M117.65,56.29c.19.01.38.03.57.06-.09-.07-.2-.12-.33-.12-.09,0-.16.02-.23.06Z"/>
    <path class="cls-1" d="M38.74,104.58c.28,0,.5-.2.5-.44s-.22-.44-.5-.44-.5.2-.5.44.22.44.5.44Z"/>
    <path class="cls-1" d="M39.21,33.84l2.92-2.57v-.5c-1.18.94-2.32,1.92-3.43,2.94.01,0,.02,0,.03,0,.18,0,.34.05.48.12Z"/>
    <path class="cls-1" d="M38.74,34.95c.28,0,.5-.2.5-.44s-.22-.44-.5-.44-.5.2-.5.44.22.44.5.44Z"/>
    <path class="cls-1" d="M38.74,38.12c.28,0,.5-.2.5-.44s-.22-.44-.5-.44-.5.2-.5.44.22.44.5.44Z"/>
    <ellipse class="cls-1" cx="42.33" cy="40.84" rx=".5" ry=".44"/>
    <ellipse class="cls-1" cx="45.93" cy="37.68" rx=".5" ry=".44"/>
    <ellipse class="cls-1" cx="78.31" cy="47.17" rx=".5" ry=".44"/>
    <path class="cls-1" d="M38.24,119.96c0,.24.22.44.5.44s.5-.2.5-.44-.22-.44-.5-.44-.5.2-.5.44Z"/>
    <path class="cls-1" d="M85.5,104.58s0,0,0,0c0,0,0,0,0,0,.28,0,.5-.2.5-.44s-.22-.44-.5-.44-.5.2-.5.44.22.44.5.44Z"/>
    <path class="cls-1" d="M71.11,98.25c.28,0,.5-.2.5-.44s-.22-.44-.5-.44-.5.2-.5.44.22.44.5.44Z"/>
    <ellipse class="cls-1" cx="81.91" cy="107.3" rx=".5" ry=".44"/>
    <path class="cls-1" d="M81.41,116.79c0,.24.22.44.5.44s.5-.2.5-.44-.22-.44-.5-.44-.5.2-.5.44Z"/>
    <ellipse class="cls-1" cx="67.52" cy="110.47" rx=".5" ry=".44"/>
    <ellipse class="cls-1" cx="71.11" cy="107.3" rx=".5" ry=".44"/>
    <path class="cls-1" d="M77.99,123.86c-.28-.09-.49-.3-.56-.56h-.37v1.65s-1.17,1.16-1.17,1.16h2.1v-2.25Z"/>
    <path class="cls-1" d="M67.32,113.56l3.71-3.27h2.8c.09-.35.45-.62.88-.62.5,0,.9.35.9.79s-.4.79-.9.79c-.43,0-.79-.26-.88-.62h-2.64l-3.48,3.06v6.18l2.48,2.18.71-.71v-3.59h.01v-4.31h2.92c.09-.35.45-.62.88-.62.5,0,.9.35.9.79s-.4.79-.9.79c-.43,0-.78-.26-.88-.62h-2.52v3.96h5.75s0,2.01,0,2.01h.93v-1.51s1.71,0,1.71,0l-1.6-1.41v-9.39h-6.12c-.09.35-.45.62-.88.62-.5,0-.9-.35-.9-.79s.4-.79.9-.79c.43,0,.79.26.88.62h6.52v9.6l1.77,1.55h3.88s-.01,5.79-.01,5.79l11.95-10.51v-12.66l3.15-2.77c-1.78-1.05-2.88-2.95-2.88-5.25,0-.21,0-.41,0-.62-.02,0-.05,0-.07,0-.5,0-.9-.35-.9-.79s.4-.79.9-.79c.02,0,.05,0,.07,0,0-.73,0-1.46,0-2.19l-3.47,3.05v3.05l3.66,3.22-7.26,6.39v8.65c.41.07.72.39.72.78,0,.44-.4.79-.9.79s-.9-.35-.9-.79c0-.37.29-.68.68-.77v-8.8l.06-.05,7.04-6.19-3.5-3.08v-3.34l3.6-3.16v-11.82c-.4-.08-.7-.4-.7-.77,0-.44.4-.79.9-.79.02,0,.05,0,.07,0v-1.28c0-.3,0-.61,0-.91l-3.46,3.05v8.65c.4.08.7.4.7.77,0,.44-.4.79-.9.79s-.9-.35-.9-.79c0-.38.3-.69.7-.77v-8.8s3.6-3.16,3.6-3.16v-2.54c-.92,0-1.85,0-2.77,0-.16.14-.38.23-.63.23s-.47-.09-.63-.23c-.71,0-1.41,0-2.1,0h-.66s0,15.19,0,15.19l2.92,2.57c.14-.08.3-.12.48-.12.5,0,.9.35.9.79s-.4.79-.9.79-.9-.35-.9-.79c0-.15.05-.3.14-.42l-3.04-2.67v-15.35c-.91-.04-1.76-.26-2.51-.64,0,.03.01.06.01.09,0,.38-.3.69-.7.77v14.98l3.6,3.16v9.64l-.06.05-7.25,6.38h-10c-.09.35-.45.62-.88.62-.5,0-.9-.35-.9-.79s.4-.79.9-.79c.43,0,.79.26.88.62h9.83l7.08-6.23v-9.35l-3.6-3.16v-15.13c-.4-.08-.7-.4-.7-.77s.31-.7.72-.78c-.83-.67-1.46-1.55-1.84-2.58-.38.51-.85.96-1.38,1.35v1.28c1.84,1.03,2.99,2.92,3,5.09,0,2.36,0,4.73,0,7.09v3.02c0,1.27,0,2.54,0,3.81.12-.05.26-.09.4-.09.5,0,.9.35.9.79,0,.38-.3.69-.7.77v8.8l-4,3.52v-2.29c-.84.37-1.79.57-2.84.57-.01,0-.02,0-.03,0-.11,0-.21,0-.32,0v1.46h-4v-2.16c-1.69-.86-2.83-2.43-3.11-4.35l-7.29,6.41v12.57l-4.69,4.13h3.63s0,4.02,0,4.02l.68.68v-4.88c-.4-.08-.7-.4-.7-.77,0-.44.4-.79.9-.79s.9.35.9.79c0,.38-.3.69-.7.77v5.29l1.61,1.61,1.32,1.16,1.77-1.76h.23s-.03-.03-.03-.03l.26-.26-.26-.26.04-.04-.04-.04.91-.91-2.61-2.3v-6.48ZM85.5,103.34c.5,0,.9.35.9.79,0,.38-.3.69-.7.77v14.61l6.8-5.96v-8.65c-.4-.08-.7-.4-.7-.77,0-.44.4-.79.9-.79s.9.35.9.79c0,.38-.3.69-.7.77v8.8l-.06.05-7.54,6.61v-15.46c-.4-.08-.7-.4-.7-.77,0-.44.4-.79.9-.79ZM81.01,107.3c0-.44.4-.79.9-.79s.9.35.9.79c0,.38-.3.69-.7.77v7.95c.4.08.7.4.7.77,0,.44-.4.79-.9.79s-.9-.35-.9-.79c0-.38.3-.69.7-.77v-7.95c-.4-.08-.7-.4-.7-.77ZM66.62,110.47c0-.38.3-.69.7-.77v-8.8l3.04-2.67c-.09-.12-.14-.27-.14-.42,0-.44.4-.79.9-.79s.9.35.9.79-.4.79-.9.79c-.18,0-.34-.05-.48-.12l-2.92,2.57v8.65c.4.08.7.4.7.77,0,.44-.4.79-.9.79s-.9-.35-.9-.79Z"/>
    <path class="cls-1" d="M77.07,120.14v2.81s.37,0,.37,0c.07-.26.28-.47.56-.56v-2.25s-.93,0-.93,0Z"/>
    <path class="cls-1" d="M65.94,136.02c.64.13,1.29.26,1.95.37l-1.15-1.16-.79.79Z"/>
    <polygon class="cls-1" points="56.88 126.2 61.97 130.69 62.3 130.36 59.78 127.82 59.78 126.99 59.15 127.62 57.05 125.51 57.26 125.3 56.88 124.91 56.89 119.98 56.88 119.99 56.88 126.2"/>
    <path class="cls-1" d="M56.81,129.29l3.49,3.07,1.41-1.41-5.23-4.6v-6.5l.06-.05.35-.31v-1.74s1.97,0,1.97,0l4.86-4.27v-12.57l.06-.05,7.58-6.67c0-.14-.02-.27-.02-.41,0-.75,0-1.49,0-2.23l-.41.36v-9.15c-.4-.08-.7-.4-.7-.77,0-.44.4-.79.9-.79.07,0,.13,0,.2.02,0-.79,0-1.58,0-2.36l-3.6,3.17v12.7l-3.04,2.67c.09.12.14.27.14.42,0,.44-.4.79-.9.79s-.9-.35-.9-.79.4-.79.9-.79c.18,0,.34.05.48.12l2.92-2.57v-12.7l.06-.05,3.94-3.47c0-1.52.01-3.03.02-4.53.01-2.09,1.01-3.87,2.57-4.94l-1.92-1.69c-.41.56-.9,1.02-1.44,1.38l.77.68v6.48l-4,3.52v-9.15c-.33-.07-.59-.29-.67-.58-.84,0-1.68,0-2.53,0v24.35c.4.08.7.4.7.77,0,.44-.4.79-.9.79s-.9-.35-.9-.79c0-.38.3-.69.7-.77v-24.35c-2.05,0-4.09,0-6.13,0-.02.08-.06.15-.11.22l3.04,2.67v2.33c.26.19.51.4.73.64,1.1,1.15,1.65,2.64,1.56,4.21-.02.27,0,.55,0,.85.02.66.03,1.42-.2,2.2-.37,1.26-1.11,2.32-2.09,3.06v8.17c.4.08.7.4.7.77,0,.44-.4.79-.9.79s-.9-.35-.9-.79c0-.38.3-.69.7-.77v-7.9c-.9.57-1.96.89-3.1.89-.03,0-.07,0-.1,0v1.52l-3.51,3.09,3.51,3.09v3.06h2.52c.09-.35.45-.62.88-.62.5,0,.9.35.9.79s-.4.79-.9.79c-.43,0-.79-.26-.88-.62h-2.92v-3.27l-3.68-3.24,3.68-3.24v-1.37c-1.07,0-2.13,0-3.2,0v1.62h-3.88l-1.84-1.62c-.69,0-1.39,0-2.08,0,0,.25,0,.49,0,.74.12-.06.26-.09.41-.09.5,0,.9.35.9.79,0,.38-.3.69-.7.77v2.32l3.6,3.16v6.33l6.8,5.98v-5.83l-3.6-3.16v-3.16l-2.92-2.57c-.14.08-.3.12-.48.12-.5,0-.9-.35-.9-.79s.4-.79.9-.79.9.35.9.79c0,.15-.05.3-.14.42l3.04,2.67v3.16l3.6,3.16v6.83l-7.59-6.68v-6.33l-3.6-3.16v-2.47c-.07-.01-.14-.04-.2-.07,0,1.24,0,2.53-.01,3.8-.04,2.43-1.07,4.28-2.98,5.4v2.69l7.2,6.33v19.12l-2.43,2.14c.59.37,1.19.73,1.8,1.09l3.83-3.37v-6.32l7.2-6.33v-11.82c-.4-.08-.7-.4-.7-.77,0-.44.4-.79.9-.79s.9.35.9.79c0,.38-.3.69-.7.77v11.96l-7.2,6.33v6.32l-3.89,3.42c.64.36,1.28.71,1.93,1.05l1.74-1.53h3.7ZM56.92,111.24v2.47l-4,3.52v-9.15c-.4-.08-.7-.4-.7-.77,0-.44.4-.79.9-.79s.9.35.9.79c0,.38-.3.69-.7.77v8.3l3.2-2.81v-2.32c-.4-.08-.7-.4-.7-.77,0-.44.4-.79.9-.79s.9.35.9.79c0,.38-.3.69-.7.77Z"/>
    <path class="cls-1" d="M64.42,116.79c0-.24-.22-.44-.5-.44s-.5.2-.5.44.22.44.5.44.5-.2.5-.44Z"/>
    <ellipse class="cls-1" cx="74.71" cy="110.47" rx=".5" ry=".44"/>
    <path class="cls-1" d="M92.7,104.58s0,0,0,0c.28,0,.5-.2.5-.44s-.22-.44-.5-.44-.5.2-.5.44.22.44.5.44c0,0,0,0,0,0Z"/>
    <path class="cls-1" d="M56.64,129.64h-3.37l-1.55,1.36c2.23,1.14,4.55,2.13,6.94,2.98l1.37-1.36-3.39-2.98Z"/>
    <path class="cls-1" d="M49.33,107.37l-7.2-6.33v-2.61c-.05.03-.1.05-.15.08-.56.27-1.16.43-1.77.49-.4.04-.83.07-1.28.08v1.82l3.6,3.16v19.06s0,.02,0,.03c0,0,0,0,0,.01,0,0,0,.01,0,.02,0,0,0,0,0,.01,0,0,0,.01-.01.02,0,0-.01.01-.02.02,0,0,0,0,0,0l-1.1.96c1.15.95,2.34,1.85,3.56,2.7l.8-.7v-18.14c-.4-.08-.7-.4-.7-.77,0-.44.4-.79.9-.79s.9.35.9.79c0,.38-.3.69-.7.77v18.29l-.88.77c.57.39,1.14.77,1.72,1.14l2.36-2.07v-18.83Z"/>
    <ellipse class="cls-1" cx="53.13" cy="107.3" rx=".5" ry=".44"/>
    <path class="cls-1" d="M46.43,107.3c0-.24-.22-.44-.5-.44s-.5.2-.5.44.22.44.5.44c0,0,0,0,0,0s0,0,0,0c.28,0,.5-.2.5-.44Z"/>
    <path class="cls-1" d="M42.13,104.21l-3.6-3.16v-1.95s-.06,0-.08,0c-.65,0-1.32-.05-2.01-.21-.36-.08-.7-.19-1.03-.33-.09.03-.18.04-.28.04-.46,0-.84-.31-.89-.7-1.49-1.07-2.4-2.8-2.4-4.79,0-1.61,0-3.22,0-4.83l-.1.09v11.83c.39.08.69.4.69.77,0,.44-.4.79-.9.79s-.9-.35-.9-.79c0-.38.31-.7.71-.77v-11.97l.5-.44c0-.65,0-1.31,0-1.96,0-2.32,0-4.69,0-7.06l-3.71,3.29v21.31c.4.08.7.4.7.77,0,.44-.4.79-.9.79s-.9-.35-.9-.79c0-.38.3-.69.7-.77v-21.45l4.11-3.64c0-1.68,0-3.36,0-5.04-.1.03-.2.05-.3.05-.5,0-.9-.35-.9-.79s.4-.79.9-.79c.11,0,.21.02.3.05,0-2.12.04-4.06.48-6.03l-4.18,3.67v5.49c.4.08.7.4.7.77,0,.44-.4.79-.9.79s-.9-.35-.9-.79c0-.38.3-.69.7-.77v-5.63l4.73-4.16s.01-.06.02-.09c.5-1.83,1.32-3.37,2.44-4.63v-6.8l-6.52-5.73c-.14.08-.3.12-.48.12-.15,0-.29-.04-.42-.1-.23.41-.46.83-.69,1.25l4.91,4.32v8.8c.4.08.7.4.7.77,0,.44-.4.79-.9.79s-.9-.35-.9-.79c0-.38.3-.69.7-.77v-8.65l-4.69-4.13c-.71,1.34-1.36,2.7-1.97,4.1l2.79,2.45c.14-.08.3-.12.48-.12.5,0,.9.35.9.79s-.4.79-.9.79-.9-.35-.9-.79c0-.15.05-.3.14-.42l-2.66-2.34c-1.55,3.61-2.75,7.41-3.58,11.36v25.07c.03.13.05.26.08.39.36.1.62.4.62.75,0,.24-.12.45-.31.59.72,3,1.66,5.92,2.81,8.73v-34.71l3.04-2.67c-.09-.12-.14-.27-.14-.42,0-.44.4-.79.9-.79s.9.35.9.79-.4.79-.9.79c-.18,0-.34-.05-.48-.12l-2.92,2.57v35.51c.58,1.35,1.21,2.68,1.88,3.97l5.32,4.68v3.76c1.01,1.34,2.08,2.64,3.2,3.89v-3.64c-.4-.08-.7-.4-.7-.77,0-.44.4-.79.9-.79s.9.35.9.79c0,.38-.3.69-.7.77v4.08c1.79,1.96,3.71,3.79,5.75,5.49l1.05-.92v-18.84ZM38.94,113.56v5.63c.4.08.7.4.7.77,0,.44-.4.79-.9.79s-.9-.35-.9-.79c0-.38.3-.69.7-.77v-5.49l-7.28-6.4,3.8-3.34h2.8c.09-.35.45-.62.88-.62.5,0,.9.35.9.79s-.4.79-.9.79c-.43,0-.78-.26-.88-.62h-2.64l-3.4,2.99,7.11,6.26Z"/>
    <ellipse class="cls-1" cx="60.32" cy="100.97" rx=".5" ry=".44"/>
    <path class="cls-1" d="M74.71,114.07c.28,0,.5-.2.5-.44s-.22-.44-.5-.44-.5.2-.5.44.22.44.5.44Z"/>
    <path class="cls-1" d="M77.81,123.12s0,0,0,0c0,0,0,0,0,0,0,.13.07.25.18.33v-.66c-.11.08-.18.2-.18.33Z"/>
    <path class="cls-1" d="M56.72,110.03c-.28,0-.5.2-.5.44s.22.44.5.44.5-.2.5-.44-.22-.44-.5-.44Z"/>
    <path class="cls-1" d="M95.8,91.48c0,.24.22.44.5.44.02,0,.05,0,.07-.01,0-.28,0-.57,0-.85-.02,0-.04-.01-.07-.01-.28,0-.5.2-.5.44Z"/>
    <path class="cls-1" d="M19.65,77.8c0,3.57.31,7.07.89,10.46v-20.92c-.59,3.4-.89,6.89-.89,10.46Z"/>
    <ellipse class="cls-1" cx="60.32" cy="94.64" rx=".5" ry=".44"/>
    <ellipse class="cls-1" cx="63.92" cy="94.64" rx=".5" ry=".44"/>
    <path class="cls-1" d="M63.92,97.37c-.28,0-.5.2-.5.44s.22.44.5.44.5-.2.5-.44-.22-.44-.5-.44Z"/>
    <path class="cls-1" d="M71.11,103.7c-.28,0-.5.2-.5.44s.22.44.5.44.5-.2.5-.44-.22-.44-.5-.44Z"/>
    <path class="cls-1" d="M85.5,69.76c.28,0,.5-.2.5-.44s-.22-.44-.5-.44-.5.2-.5.44.22.44.5.44Z"/>
    <path class="cls-1" d="M27.44,104.14c0,.24.22.44.5.44s.5-.2.5-.44-.22-.44-.5-.44-.5.2-.5.44Z"/>
    <ellipse class="cls-1" cx="35.14" cy="50.34" rx=".5" ry=".44"/>
    <ellipse class="cls-1" cx="27.94" cy="75.65" rx=".5" ry=".44"/>
    <ellipse class="cls-1" cx="114.29" cy="75.65" rx=".5" ry=".44"/>
    <ellipse class="cls-1" cx="31.54" cy="100.97" rx=".5" ry=".44"/>
    <path class="cls-1" d="M60.32,98.25c.28,0,.5-.2.5-.44s-.22-.44-.5-.44-.5.2-.5.44.22.44.5.44Z"/>
    <ellipse class="cls-1" cx="63.92" cy="53.5" rx=".5" ry=".44"/>
    <ellipse class="cls-1" cx="71.11" cy="37.68" rx=".5" ry=".44"/>
    <path class="cls-1" d="M31.04,72.49c0,.24.22.44.5.44.12,0,.22-.04.3-.1,0-.23,0-.46,0-.68-.08-.06-.19-.1-.3-.1-.28,0-.5.2-.5.44Z"/>
    <ellipse class="cls-1" cx="74.71" cy="31.35" rx=".5" ry=".44"/>
    <path class="cls-1" d="M63.92,28.62c.28,0,.5-.2.5-.44s-.22-.44-.5-.44c-.14,0-.26.05-.35.13,0,0,0,0,0,0,0,0,0,0,0,0-.09.08-.15.19-.15.31,0,.24.22.44.5.44Z"/>
    <path class="cls-1" d="M117.88,43.57c-.28,0-.5.2-.5.44s.22.44.5.44.5-.2.5-.44-.22-.44-.5-.44Z"/>
    <path class="cls-1" d="M74.71,19.13c.28,0,.5-.2.5-.44,0-.09-.04-.17-.09-.24-.28.01-.56.02-.84.04-.04.06-.07.13-.07.2,0,.24.22.44.5.44Z"/>
    <path class="cls-1" d="M114.79,44.01c0-.24-.22-.44-.5-.44s-.5.2-.5.44.22.44.5.44.5-.2.5-.44Z"/>
    <path class="cls-1" d="M100.39,44.01c0-.24-.22-.44-.5-.44s-.5.2-.5.44.22.44.5.44.5-.2.5-.44Z"/>
    <path class="cls-1" d="M75.21,37.68c0-.24-.22-.44-.5-.44s-.5.2-.5.44.22.44.5.44.5-.2.5-.44Z"/>
    <ellipse class="cls-1" cx="67.52" cy="37.68" rx=".5" ry=".44"/>
    <ellipse class="cls-1" cx="78.31" cy="25.02" rx=".5" ry=".44"/>
    <path class="cls-1" d="M52.93,72.31v-2.79c-.16,0-.32,0-.49,0-.68,0-1.36,0-2.05,0-.1.34-.45.59-.87.59s-.77-.25-.87-.59c-.69,0-1.37,0-2.06,0h-.1s-.04,0-.06,0l3.17,2.79h3.31Z"/>
    <path class="cls-1" d="M71.33,91.04c0-1.52,0-3.02-.01-4.5v4.51h.01Z"/>
    <path class="cls-1" d="M78.11,100.8v-1.1c-.15,0-.29,0-.44,0-.41,0-.83-.02-1.26-.09-.53-.09-1.03-.24-1.5-.43v1.62h3.2Z"/>
    <path class="cls-1" d="M70.61,81.98c0,.24.22.44.5.44.07,0,.14-.01.2-.04,0-.27,0-.54,0-.81-.06-.02-.13-.04-.2-.04-.28,0-.5.2-.5.44Z"/>
    <path class="cls-1" d="M75.47,68.12c-.73-.32-1.4-.77-2-1.37-.27-.27-.52-.57-.73-.88-.01.02-.02.05-.03.07-.15.33-.33.64-.52.93l2.04,1.79c.38-.23.8-.42,1.24-.56Z"/>
    <path class="cls-1" d="M57.2,69.99c-.14.08-.3.12-.48.12-.42,0-.76-.25-.87-.59-.85,0-1.69,0-2.53,0v3.14h-3.88l-3.52-3.09c-.34.1-.4.25-.4.54,0,.5,0,1,0,1.5,0,.06,0,.12,0,.18.12-.05.26-.09.4-.09.5,0,.9.35.9.79,0,.15-.05.3-.14.42l.74.65c.76,0,1.52,0,2.28,0,2.34,0,4.76,0,7.14-.02,1.18-.01,2.31.32,3.28.93v-1.91l-2.92-2.57Z"/>
    <path class="cls-1" d="M57.22,44.01c0-.24-.22-.44-.5-.44s-.5.2-.5.44.22.44.5.44.5-.2.5-.44Z"/>
    <path class="cls-1" d="M85.3,97.73v-8.65c-.07-.01-.14-.04-.2-.07,0,1.48,0,2.96,0,4.44,0,1.83-.6,3.39-1.72,4.51-.38.38-.81.69-1.28.94v1.64l3.2-2.81Z"/>
    <path class="cls-1" d="M92.7,84.71s0,0,0,0c-.28,0-.5.2-.5.44s.22.44.5.44.5-.2.5-.44-.22-.44-.5-.44c0,0,0,0,0,0Z"/>
    <path class="cls-1" d="M95.8,75.65c0,.24.22.44.5.44.02,0,.05,0,.07-.01v-.85s-.04-.01-.07-.01c-.28,0-.5.2-.5.44Z"/>
    <path class="cls-1" d="M45.93,73.28c-.15,0-.28-.03-.41-.09,0,.12,0,.24,0,.37.45,0,.89,0,1.34,0l-.45-.4c-.14.08-.3.12-.48.12Z"/>
    <ellipse class="cls-1" cx="92.7" cy="88.31" rx=".5" ry=".44"/>
    <path class="cls-1" d="M85.5,88.75c.28,0,.5-.2.5-.44s-.22-.44-.5-.44c-.17,0-.31.08-.4.19,0,.17,0,.33,0,.5.09.11.23.19.4.19Z"/>
    <path class="cls-1" d="M67.07,69.51c.08.15.25.25.45.25.22,0,.4-.13.47-.3-.25.03-.51.05-.78.05-.05,0-.09,0-.14,0Z"/>
    <path class="cls-1" d="M31.54,43.57c-.28,0-.5.2-.5.44s.22.44.5.44.5-.2.5-.44-.22-.44-.5-.44Z"/>
    <path class="cls-1" d="M67.72,70.1v8.3l3.2-2.81v-6.18l-.71-.62c-.54.3-1.15.51-1.8.63-.04.34-.32.62-.69.69Z"/>
    <path class="cls-1" d="M38.74,46.73c-.28,0-.5.2-.5.44s.22.44.5.44.5-.2.5-.44-.22-.44-.5-.44Z"/>
    <path class="cls-1" d="M45.93,88.75c.28,0,.5-.2.5-.44s-.22-.44-.5-.44c-.17,0-.32.08-.41.2,0,.16,0,.32,0,.49.09.12.23.2.4.2Z"/>
    <path class="cls-1" d="M45.93,72.93c.28,0,.5-.2.5-.44s-.22-.44-.5-.44c-.17,0-.31.08-.4.19,0,.16,0,.33,0,.49.09.11.23.19.4.19Z"/>
    <path class="cls-1" d="M53.63,44.01c0-.24-.22-.44-.5-.44s-.5.2-.5.44.22.44.5.44c.03,0,.06,0,.09,0,.23-.04.4-.22.4-.43Z"/>
    <path class="cls-1" d="M35.14,43.57c-.28,0-.5.2-.5.44s.22.44.5.44.5-.2.5-.44-.22-.44-.5-.44Z"/>
    <ellipse class="cls-1" cx="89.13" cy="113.63" rx=".5" ry=".44"/>
    <path class="cls-1" d="M49.53,69.76c.19,0,.35-.1.44-.24-.29,0-.58,0-.88,0,.08.14.25.24.44.24Z"/>
    <path class="cls-1" d="M52.93,88.14v-1.27c-1.08,0-2.16,0-3.24,0-.5,0-1.01,0-1.51,0l1.44,1.27h3.31Z"/>
    <path class="cls-1" d="M56.72,69.76c.19,0,.35-.1.43-.24-.29,0-.58,0-.87,0,.08.14.24.24.43.24Z"/>
    <ellipse class="cls-1" cx="49.53" cy="91.48" rx=".5" ry=".44"/>
    <path class="cls-1" d="M80.84,68.06s.1.03.15.04c.25.08.49.18.73.29v-.8c-.28.17-.56.33-.87.47Z"/>
    <path class="cls-1" d="M77.81,44.01c0,.24.22.44.5.44s.5-.2.5-.44-.22-.44-.5-.44c0,0,0,0,0,0,0,0,0,0,0,0-.28,0-.5.2-.5.44Z"/>
    <path class="cls-1" d="M100.39,100.97c0-.24-.22-.44-.5-.44s-.5.2-.5.44.22.44.5.44c0,0,0,0,0,0s0,0,0,0c.28,0,.5-.2.5-.44Z"/>
    <path class="cls-1" d="M131.77,59.83c0,.24.22.44.5.44.16,0,.3-.07.39-.18-.07-.22-.14-.45-.21-.67-.06-.02-.11-.03-.18-.03-.28,0-.5.2-.5.44Z"/>
    <ellipse class="cls-1" cx="114.29" cy="72.49" rx=".5" ry=".44"/>
    <path class="cls-1" d="M103.49,104.58c.28,0,.5-.2.5-.44s-.22-.44-.5-.44-.5.2-.5.44.22.44.5.44Z"/>
    <ellipse class="cls-1" cx="78.31" cy="28.18" rx=".5" ry=".44"/>
    <ellipse class="cls-1" cx="99.9" cy="123.12" rx=".5" ry=".44"/>
    <path class="cls-1" d="M70.61,44.01c0,.24.22.44.5.44s.5-.2.5-.44-.22-.44-.5-.44-.5.2-.5.44Z"/>
    <path class="cls-1" d="M96.3,46.73h0c-.28,0-.5.2-.5.44s.22.44.5.44.5-.2.5-.44-.22-.44-.5-.44c0,0,0,0,0,0Z"/>
    <ellipse class="cls-1" cx="110.69" cy="116.79" rx=".5" ry=".44"/>
    <path class="cls-1" d="M99.9,110.9s0,0,0,0c.28,0,.5-.2.5-.44s-.22-.44-.5-.44-.5.2-.5.44.22.44.5.44c0,0,0,0,0,0Z"/>
    <ellipse class="cls-1" cx="110.69" cy="31.35" rx=".5" ry=".44"/>
    <path class="cls-1" d="M102.99,25.02c0,.24.22.44.5.44s.5-.2.5-.44c0,0,0,0,0-.01-.24-.13-.48-.25-.72-.37-.16.07-.28.22-.28.39Z"/>
    <path class="cls-1" d="M95.8,37.68c0,.24.22.44.5.44s.5-.2.5-.44-.22-.44-.5-.44c0,0,0,0,0,0h0c-.28,0-.5.2-.5.44Z"/>
    <path class="cls-1" d="M124.58,97.81c0,.24.22.44.5.44s.5-.2.5-.44-.22-.44-.5-.44-.5.2-.5.44Z"/>
    <path class="cls-1" d="M114.28,85.59s0,0,0,0,0,0,0,0c.28,0,.5-.2.5-.44s-.22-.44-.5-.44-.5.2-.5.44.22.44.5.44Z"/>
    <path class="cls-1" d="M128.18,63c0,.24.22.44.5.44s.5-.2.5-.44-.22-.44-.5-.44-.5.2-.5.44Z"/>
    <ellipse class="cls-1" cx="78.31" cy="34.51" rx=".5" ry=".44"/>
    <path class="cls-1" d="M60.52,53.43l2.92,2.57c.14-.08.3-.12.48-.12.29,0,.54.12.7.31.84,0,1.68,0,2.51,0,2.32,0,4.22,1.12,5.24,2.89.13-.24.26-.46.41-.68l-1.88-1.65v-3.16l-3.6-3.16v-6.47l3.51-3.09-2.84-2.5c-.14.08-.3.12-.48.12-.5,0-.9-.35-.9-.79s.4-.79.9-.79.9.35.9.79c0,.15-.05.3-.14.42l3.12,2.74-3.68,3.24v6.18l3.6,3.16v3.16l1.7,1.5c.97-1.26,2.34-2.1,3.9-2.4l-2.4-2.11v-15.13c-.4-.08-.7-.4-.7-.77,0-.44.4-.79.9-.79s.9.35.9.79c0,.38-.3.69-.7.77v14.98l2.49,2.19c.25-.03.51-.05.78-.05,1.08,0,2.08.25,2.97.68,0,0,0,0,0,0l-3.04-2.67v-5.63c-.4-.08-.7-.4-.7-.77,0-.44.4-.79.9-.79s.9.35.9.79c0,.38-.3.69-.7.77v5.49l2.92,2.57c.14-.08.3-.12.48-.12.5,0,.9.35.9.79,0,.21-.09.4-.24.54.59.52,1.09,1.15,1.46,1.86.35-.57.78-1.06,1.28-1.47v-4.02l-3.6-3.16v-22.15l-2.92-2.57c-.14.08-.3.12-.48.12-.5,0-.9-.35-.9-.79s.4-.79.9-.79.9.35.9.79c0,.15-.05.3-.14.42l3.04,2.67v22.15l3.6,3.16v3.87c.91-.61,2-.96,3.2-.99v-3.92l-3.68-3.24,3.6-3.16-3.6-3.16,3.6-3.16-3.51-3.09v-12.66l-3.6-3.16v-2.19c-1.06-.08-2.12-.13-3.2-.15v2.68c.4.08.7.4.7.77,0,.44-.4.79-.9.79s-.9-.35-.9-.79c0-.38.3-.69.7-.77v-2.68c-.22,0-.43,0-.65,0-.64,0-1.27.01-1.91.04.03.08.05.17.05.26,0,.38-.3.69-.7.77v11.12c.4.08.7.4.7.77,0,.44-.4.79-.9.79s-.9-.35-.9-.79c0-.38.3-.69.7-.77v-11.12c-.4-.08-.7-.4-.7-.77,0-.06,0-.12.02-.18-1.87.12-3.71.33-5.53.62l3.01,2.64v15.13c.4.08.7.4.7.77,0,.44-.4.79-.9.79s-.9-.35-.9-.79c0-.38.3-.69.7-.77v-14.98l-3.08-2.71c-3.64.63-7.16,1.6-10.54,2.89l6.14,5.4c.14-.08.3-.12.48-.12.5,0,.9.35.9.79s-.4.79-.9.79-.9-.35-.9-.79c0-.15.05-.3.14-.42l-6.25-5.5c-.69.27-1.38.55-2.06.85l9.28,8.16v21.45c.4.08.7.4.7.77,0,.44-.4.79-.9.79s-.9-.35-.9-.79c0-.38.3-.69.7-.77v-21.31l-9.25-8.14c-.67.3-1.33.6-1.98.93l8.03,7.07v22.15ZM77.41,28.18c0-.44.4-.79.9-.79s.9.35.9.79c0,.38-.3.69-.7.77v4.79c.4.08.7.4.7.77,0,.44-.4.79-.9.79s-.9-.35-.9-.79c0-.38.3-.69.7-.77v-4.79c-.4-.08-.7-.4-.7-.77ZM74.71,33.72c.5,0,.9.35.9.79,0,.15-.05.3-.14.42l3.04,2.67v5.63c.4.08.7.4.7.77,0,.44-.4.79-.9.79s-.9-.35-.9-.79c0-.38.3-.69.7-.77v-5.49l-2.92-2.57c-.14.08-.3.12-.48.12-.5,0-.9-.35-.9-.79s.4-.79.9-.79ZM72.01,44.01c0,.38-.3.69-.7.77v4.79c.4.08.7.4.7.77,0,.44-.4.79-.9.79s-.9-.35-.9-.79c0-.38.3-.69.7-.77v-4.79c-.4-.08-.7-.4-.7-.77,0-.44.4-.79.9-.79s.9.35.9.79ZM66.62,21.85c0-.44.4-.79.9-.79s.9.35.9.79c0,.38-.3.69-.7.77v11.12c.4.08.7.4.7.77,0,.44-.4.79-.9.79s-.9-.35-.9-.79c0-.38.3-.69.7-.77v-11.12c-.4-.08-.7-.4-.7-.77Z"/>
    <ellipse class="cls-1" cx="121.48" cy="40.84" rx=".5" ry=".44"/>
    <ellipse class="cls-1" cx="114.29" cy="107.3" rx=".5" ry=".44"/>
    <path class="cls-1" d="M118.38,100.97c0-.24-.22-.44-.5-.44s-.5.2-.5.44.22.44.5.44.5-.2.5-.44Z"/>
    <ellipse class="cls-1" cx="103.49" cy="28.18" rx=".5" ry=".44"/>
    <ellipse class="cls-1" cx="103.49" cy="53.5" rx=".5" ry=".44"/>
    <path class="cls-1" d="M102.99,34.51c0,.24.22.44.5.44s.5-.2.5-.44-.22-.44-.5-.44c0,0,0,0,0,0h0c-.28,0-.5.2-.5.44Z"/>
    <path class="cls-1" d="M85.7,23.76v12.66l3.68,3.24-3.6,3.16,3.6,3.16-3.6,3.16,3.51,3.09v4.06c1.07,0,2.13,0,3.2,0V20.43c-1.05-.29-2.12-.55-3.2-.78v14.1c.4.08.7.4.7.77,0,.44-.4.79-.9.79s-.9-.35-.9-.79c0-.38.3-.69.7-.77v-14.18c-2.22-.46-4.49-.79-6.8-.97v2.01l3.6,3.16Z"/>
    <ellipse class="cls-1" cx="89.1" cy="34.51" rx=".5" ry=".44"/>
    <path class="cls-1" d="M117.88,53.06h0c-.28,0-.5.2-.5.44s.22.44.5.44.5-.2.5-.44-.22-.44-.5-.44c0,0,0,0,0,0Z"/>
    <path class="cls-1" d="M134.43,67.64l-1.96,1.67v8.74c.4.08.7.4.7.77,0,.44-.4.79-.9.79s-.9-.35-.9-.79c0-.38.3-.69.7-.77v-8.89s2.28-1.95,2.28-1.95c-.13-.75-.28-1.5-.44-2.25l-5.04,4.43v2.32c.4.08.7.4.7.77,0,.44-.4.79-.9.79s-.9-.35-.9-.79c0-.38.3-.69.7-.77v-2.47l5.35-4.71c-.16-.74-.34-1.47-.53-2.2l-.26.23c.09.12.14.27.14.42,0,.44-.4.79-.9.79s-.9-.35-.9-.79.4-.79.9-.79c.18,0,.34.05.48.12l.44-.38c-.13-.49-.27-.97-.41-1.46-.14.09-.32.14-.5.14-.5,0-.9-.35-.9-.79,0-.38.3-.69.7-.77v-.79c-.86-2.55-1.89-5.01-3.06-7.39l-.14-.12v11.46c.4.08.7.4.7.77,0,.44-.4.79-.9.79s-.9-.35-.9-.79c0-.38.3-.69.7-.77v-12.31l.08.07c-4.92-9.53-12.3-17.52-21.26-23.08v13.76h10.68l7.31,6.43v15.82l3.68,3.24-7.2,6.33,7.2,6.33-7.2,6.33,3.51,3.09v8.8c.4.08.7.4.7.77,0,.44-.4.79-.9.79s-.9-.35-.9-.79c0-.38.3-.69.7-.77v-8.65l-3.68-3.24,7.2-6.33-7.2-6.33,7.2-6.33-3.51-3.09v-15.82l-7.08-6.23h-10.91v-14.36c-.83-.5-1.67-.99-2.53-1.45-.1.35-.45.6-.87.6-.5,0-.9-.35-.9-.79,0-.23.11-.44.29-.58-2-1.01-4.07-1.9-6.2-2.67l-.19.17v14.98c.4.08.7.4.7.77,0,.44-.4.79-.9.79s-.9-.35-.9-.79c0-.38.3-.69.7-.77v-15.13l.19-.17c-1.11-.39-2.24-.75-3.39-1.08v35.76c.87,0,1.74,0,2.6,0,.12-.2.34-.35.59-.4v-4.79c-.4-.08-.7-.4-.7-.77,0-.44.4-.79.9-.79s.9.35.9.79c0,.38-.3.69-.7.77v4.79c.26.05.47.2.59.4.69,0,1.38,0,2.07,0h.53s0-11.52,0-11.52c-.4-.08-.7-.4-.7-.77,0-.44.4-.79.9-.79s.9.35.9.79c0,.38-.3.69-.7.77v11.52h2.61c.15-.25.45-.42.79-.42s.64.17.79.43c1.06,0,2.11,0,3.17,0,1,0,2.02,0,3.03,0v-2.89l3.6-3.16v-5.49c-.4-.08-.7-.4-.7-.77,0-.44.4-.79.9-.79s.9.35.9.79c0,.38-.3.69-.7.77v5.63l-3.6,3.16v2.75c2.07,0,4.16,0,6.22-.05.16-.24.44-.4.78-.4.41,0,.75.24.86.57.93.22,1.8.65,2.54,1.26v-10.46l-2.92-2.57c-.14.08-.3.12-.48.12-.5,0-.9-.35-.9-.79s.4-.79.9-.79.9.35.9.79c0,.15-.05.3-.14.42l3.04,2.67v10.97s.02.02.03.02c1.17,1.18,1.78,2.76,1.72,4.44,0,.21,0,.43-.01.64-.01,1.07-.02,2.29-.66,3.48-.3.57-.67,1.07-1.08,1.49v1.26l-3.6,3.16v6.33l-4,3.52v-5.98c-.4-.08-.7-.4-.7-.77,0-.44.4-.79.9-.79s.9.35.9.79c0,.38-.3.69-.7.77v5.13l3.2-2.81v-6.33l3.6-3.16v-.73c-1,.85-2.26,1.31-3.72,1.35-1.7.04-3.42.03-5.08.02-.78,0-1.56,0-2.33,0,0,2.14,0,4.27,0,6.41,0,5.39-.02,10.96.03,16.43.02,1.75-.67,3.44-1.89,4.62-1.11,1.08-2.58,1.66-4.16,1.66-.09,0-.18,0-.27,0-.06,0-.11,0-.17,0v1.21c.4.08.7.4.7.77,0,.44-.4.79-.9.79s-.9-.35-.9-.79c0-.38.3-.69.7-.77v-1.21c-.06,0-.13,0-.19,0-.5,0-1.01.02-1.55-.06-.71-.1-1.36-.31-1.95-.61l-3.1,2.72v12.66l-.06.05-12.29,10.81v1.61s.3,0,.3,0v.81s7.51-6.61,7.51-6.61c-.1-.13-.16-.28-.16-.45,0-.2.08-.37.22-.51v-1.12s4.08,0,4.08,0v-1.58l3.6-3.16v-2.32c-.4-.08-.7-.4-.7-.77,0-.44.4-.79.9-.79s.9.35.9.79c0,.38-.3.69-.7.77v2.47l-3.6,3.16v1.44h1.68s-.02,7.3-.02,7.3l-.04.04h.34s0,.47,0,.47h12.14l7.2-6.33h.57c.81-.83,1.59-1.69,2.35-2.57-.05-.07-.09-.15-.11-.24h-6.24l-7.2,6.33h-2.8c-.09.35-.45.62-.88.62-.5,0-.9-.35-.9-.79s.4-.79.9-.79c.43,0,.78.26.88.62h2.64l7.2-6.33h6.4c.09-.35.45-.62.88-.62.08,0,.16.01.23.03,2.65-3.24,4.97-6.77,6.91-10.54l-.31-1.16-3.49-1.72c-.11.11-.26.2-.43.24-.48.13-.96-.11-1.07-.53-.11-.42.18-.87.66-1,.48-.13.96.11,1.07.53.04.15.03.3-.03.44l3.63,1.79.24.88c.79-1.57,1.5-3.18,2.16-4.83l-2.57-2.26v-9.49l-2.92-2.57c-.14.08-.3.12-.48.12-.5,0-.9-.35-.9-.79s.4-.79.9-.79.9.35.9.79c0,.15-.05.3-.14.42l3.04,2.67v9.49l2.32,2.04c.57-1.47,1.08-2.96,1.54-4.48l-.65-.58v-6.33l-3.6-3.16v-2.47c-.4-.08-.7-.4-.7-.77,0-.44.4-.79.9-.79s.9.35.9.79c0,.38-.3.69-.7.77v2.32l3.6,3.16v6.33l.37.32c.71-2.44,1.28-4.95,1.68-7.52l-1.77-1.56c-.14.08-.3.12-.48.12-.5,0-.9-.35-.9-.79s.4-.79.9-.79.9.35.9.79c0,.15-.05.3-.14.42l1.56,1.37c.45-2.98.68-6.03.68-9.14,0-3.47-.29-6.86-.85-10.16ZM121.48,41.63c-.5,0-.9-.35-.9-.79,0-.15.05-.3.14-.42l-2.92-2.57h-7.31v-5.73c-.4-.08-.7-.4-.7-.77,0-.44.4-.79.9-.79s.9.35.9.79c0,.38-.3.69-.7.77v5.38h7.08l3.04,2.67c.14-.08.3-.12.48-.12.5,0,.9.35.9.79s-.4.79-.9.79ZM102.59,28.18c0-.44.4-.79.9-.79s.9.35.9.79c0,.38-.3.69-.7.77v4.79c.4.08.7.4.7.77,0,.44-.4.79-.9.79s-.9-.35-.9-.79c0-.38.3-.69.7-.77v-4.79c-.4-.08-.7-.4-.7-.77ZM99.9,41.63c-.43,0-.79-.26-.88-.62h-2.52v5.38c.4.08.7.4.7.77,0,.44-.4.79-.9.79s-.9-.35-.9-.79c0-.38.3-.69.7-.77v-5.73h2.92c.09-.35.45-.62.88-.62.5,0,.9.35.9.79s-.4.79-.9.79ZM100.79,37.68c0,.44-.4.79-.9.79s-.9-.35-.9-.79c0-.38.3-.69.7-.77v-11.12c-.4-.08-.7-.4-.7-.77,0-.44.4-.79.9-.79s.9.35.9.79c0,.38-.3.69-.7.77v11.12c.4.08.7.4.7.77ZM107.29,50.41l-3.04,2.67c.09.12.14.27.14.42,0,.44-.4.79-.9.79s-.9-.35-.9-.79.4-.79.9-.79c.18,0,.34.05.48.12l2.92-2.57v-3.02l-3.6-3.16v-5.63c-.4-.08-.7-.4-.7-.77,0-.44.4-.79.9-.79s.9.35.9.79c0,.38-.3.69-.7.77v5.49l3.6,3.16v3.31ZM117.88,46.38c.5,0,.9.35.9.79,0,.38-.3.69-.7.77v4.79c.4.08.7.4.7.77,0,.44-.4.79-.9.79s-.9-.35-.9-.79c0-.38.3-.69.7-.77v-4.79c-.4-.08-.7-.4-.7-.77,0-.44.4-.79.9-.79ZM117.88,84.36c.18,0,.34.05.48.12l2.92-2.57v-5.49c-.4-.08-.7-.4-.7-.77,0-.44.4-.79.9-.79s.9.35.9.79c0,.38-.3.69-.7.77v5.63l-3.04,2.67c.09.12.14.27.14.42,0,.44-.4.79-.9.79s-.9-.35-.9-.79.4-.79.9-.79ZM114.29,84.36c.5,0,.9.35.9.79,0,.38-.3.69-.7.77v20.61c.4.08.7.4.7.77,0,.44-.4.79-.9.79s-.9-.35-.9-.79c0-.38.3-.69.7-.77v-20.61c-.4-.08-.7-.4-.7-.77,0-.44.4-.79.9-.79ZM103.49,103.34c.43,0,.78.26.88.62h2.64l3.48-3.06v-25.32l3.04-2.67c-.09-.12-.14-.27-.14-.42,0-.44.4-.79.9-.79s.9.35.9.79-.4.79-.9.79c-.18,0-.34-.05-.48-.12l-2.92,2.57v25.32l-3.71,3.27h-2.8c-.09.35-.45.62-.88.62-.5,0-.9-.35-.9-.79s.4-.79.9-.79ZM99.7,107.48v-5.73c-.4-.08-.7-.4-.7-.77,0-.44.4-.79.9-.79s.9.35.9.79c0,.38-.3.69-.7.77v5.38h10.68l3.6,3.16h3.31v-8.55c-.4-.08-.7-.4-.7-.77,0-.44.4-.79.9-.79s.9.35.9.79c0,.38-.3.69-.7.77v8.9h-3.88l-3.6-3.16h-10.91ZM110.69,117.59c-.5,0-.9-.35-.9-.79,0-.38.3-.69.7-.77v-2.32l-3.48-3.06h-3.31v9.49h-3.6v2.22c.4.08.7.4.7.77,0,.44-.4.79-.9.79s-.9-.35-.9-.79c0-.38.3-.69.7-.77v-2.57h3.6v-9.49h3.88l3.71,3.27v2.47c.4.08.7.4.7.77,0,.44-.4.79-.9.79ZM121.68,92.25v21.56h-6.52c-.09.35-.45.62-.88.62-.5,0-.9-.35-.9-.79s.4-.79.9-.79c.43,0,.78.26.88.62h6.12v-21.21c-.4-.08-.7-.4-.7-.77,0-.44.4-.79.9-.79s.9.35.9.79c0,.38-.3.69-.7.77ZM121.48,89.1c-.18,0-.34-.05-.48-.12l-2.92,2.57v5.49c.4.08.7.4.7.77,0,.44-.4.79-.9.79s-.9-.35-.9-.79c0-.38.3-.69.7-.77v-5.63l3.04-2.67c-.09-.12-.14-.27-.14-.42,0-.44.4-.79.9-.79s.9.35.9.79-.4.79-.9.79Z"/>
    <path class="cls-1" d="M88.93,129.4l3.08-2.71v-1.32s-.3,0-.3,0v-3.57s.31,0,.31,0v-.98s-7.57,6.66-7.57,6.66v2.27s-.33,0-.33,0l.02.02v2.92s.75.76.75.76v.69s.41-.41.41-.41v-2.88c-.4-.08-.7-.4-.7-.77,0-.44.4-.79.9-.79s.9.35.9.79c0,.38-.3.69-.7.77v2.99l1.85,1.86-.04.04.04.04-.17.17.31.32c.3-.05.59-.11.89-.17l.34-.34v-6.36Z"/>
    <polygon class="cls-1" points="74.91 132.55 77.97 135.24 77.97 133.83 77.67 133.83 77.68 130.25 78.04 130.25 77.98 130.19 77.98 129.64 74.91 129.64 74.91 132.55"/>
    <path class="cls-1" d="M78.51,137.19c.26,0,.53-.02.79-.03l-.79-.79v.82Z"/>
    <path class="cls-1" d="M99.9,37.24h0c-.28,0-.5.2-.5.44s.22.44.5.44.5-.2.5-.44-.22-.44-.5-.44c0,0,0,0,0,0Z"/>
    <ellipse class="cls-1" cx="71.11" cy="50.34" rx=".5" ry=".44"/>
    <ellipse class="cls-1" cx="99.9" cy="25.02" rx=".5" ry=".44"/>
    <ellipse class="cls-1" cx="103.49" cy="37.68" rx=".5" ry=".44"/>
    <ellipse class="cls-1" cx="99.9" cy="40.84" rx=".5" ry=".44"/>
    <ellipse class="cls-1" cx="67.52" cy="21.85" rx=".5" ry=".44"/>
    <path class="cls-1" d="M117.38,97.81c0,.24.22.44.5.44s.5-.2.5-.44-.22-.44-.5-.44-.5.2-.5.44Z"/>
    <path class="cls-1" d="M114.29,113.19c-.28,0-.5.2-.5.44s.22.44.5.44.5-.2.5-.44c0,0,0,0,0,0,0,0,0,0,0,0,0-.24-.22-.44-.5-.44Z"/>
    <path class="cls-1" d="M121.48,91.04c-.28,0-.5.2-.5.44s.22.44.5.44.5-.2.5-.44-.22-.44-.5-.44Z"/>
    <ellipse class="cls-1" cx="121.48" cy="88.31" rx=".5" ry=".44"/>
    <ellipse class="cls-1" cx="121.48" cy="75.65" rx=".5" ry=".44"/>
    <path class="cls-1" d="M117.88,85.59c.28,0,.5-.2.5-.44s-.22-.44-.5-.44-.5.2-.5.44.22.44.5.44Z"/>
    <ellipse class="cls-1" cx="67.52" cy="34.51" rx=".5" ry=".44"/>
    <path class="cls-1" d="M117.88,47.61c.28,0,.5-.2.5-.44s-.22-.44-.5-.44-.5.2-.5.44.22.44.5.44Z"/>
    <path class="cls-1" d="M77.81,21.85c0,.24.22.44.5.44s.5-.2.5-.44-.22-.44-.5-.44-.5.2-.5.44Z"/>
    <ellipse class="cls-1" cx="74.71" cy="34.51" rx=".5" ry=".44"/>
    <path class="cls-1" d="M120.98,116.79s.01.06.02.09c.15-.17.29-.35.44-.52-.25.02-.46.2-.46.43Z"/>
    <path class="cls-1" d="M98.15,133.28c2.62-1.03,5.16-2.26,7.58-3.65h-7.57v3.65Z"/>
    <path class="cls-1" d="M111.51,125.81c2.3-1.73,4.48-3.63,6.5-5.68h-.05l-6.45,5.68Z"/>
    <ellipse class="cls-1" cx="132.27" cy="78.82" rx=".5" ry=".44"/>
    <path class="cls-1" d="M98.46,129.22h-.3s0,.06,0,.06h8.18c1.47-.87,2.9-1.81,4.29-2.81h-12.16v2.75Z"/>
    <polygon class="cls-1" points="89.33 135.37 92 132.71 92.01 127.19 89.33 129.55 89.33 135.37"/>
    <ellipse class="cls-1" cx="85.5" cy="130.08" rx=".5" ry=".44"/>
    <ellipse class="cls-1" cx="132.27" cy="63" rx=".5" ry=".44"/>
    <ellipse class="cls-1" cx="125.08" cy="85.15" rx=".5" ry=".44"/>
    <ellipse class="cls-1" cx="128.68" cy="81.98" rx=".5" ry=".44"/>
    <path class="cls-1" d="M124.07,101.66c-.27.07-.43.32-.37.55s.33.37.6.3c.27-.07.43-.32.37-.55s-.33-.37-.6-.3Z"/>
    <ellipse class="cls-1" cx="128.68" cy="72.49" rx=".5" ry=".44"/>
    <ellipse class="cls-1" cx="103.49" cy="123.12" rx=".5" ry=".44"/>
    <ellipse class="cls-1" cx="132.27" cy="85.15" rx=".5" ry=".44"/>
    <path class="cls-3" d="M70.91,36.91c-.4.08-.7.4-.7.77,0,.44.4.79.9.79s.9-.35.9-.79c0-.38-.3-.69-.7-.77v-15.13l-3.01-2.64c-.16.03-.32.05-.47.08l3.08,2.71v14.98ZM71.61,37.68c0,.24-.22.44-.5.44s-.5-.2-.5-.44.22-.44.5-.44.5.2.5.44Z"/>
    <path class="cls-3" d="M92.9,56.3V20.54c-.13-.04-.27-.07-.4-.11v35.87c.13,0,.27,0,.4,0Z"/>
    <path class="cls-3" d="M77.41,21.85c0,.44.4.79.9.79s.9-.35.9-.79c0-.38-.3-.69-.7-.77v-2.68c-.13,0-.27,0-.4,0v2.68c-.4.08-.7.4-.7.77ZM78.31,21.42c.28,0,.5.2.5.44s-.22.44-.5.44-.5-.2-.5-.44.22-.44.5-.44Z"/>
    <path class="cls-3" d="M63.72,52.73c-.4.08-.7.4-.7.77,0,.44.4.79.9.79s.9-.35.9-.79c0-.38-.3-.69-.7-.77v-21.45l-9.28-8.16c-.13.05-.25.11-.37.17l9.25,8.14v21.31ZM64.42,53.5c0,.24-.22.44-.5.44s-.5-.2-.5-.44.22-.44.5-.44.5.2.5.44Z"/>
    <path class="cls-3" d="M46.13,108.07c.4-.08.7-.4.7-.77,0-.44-.4-.79-.9-.79s-.9.35-.9.79c0,.38.3.69.7.77v18.14l-.8.7c.1.07.21.15.31.22l.88-.77v-18.29ZM45.93,107.74s0,0,0,0c-.28,0-.5-.2-.5-.44s.22-.44.5-.44.5.2.5.44-.22.44-.5.44c0,0,0,0,0,0Z"/>
    <path class="cls-3" d="M42.53,53.43l-10.23-9c.09-.12.14-.27.14-.42,0-.44-.4-.79-.9-.79s-.9.35-.9.79.4.79.9.79c.18,0,.34-.05.48-.12l10.11,8.9v3.05c.13-.03.27-.05.4-.08v-3.11ZM31.54,44.45c-.28,0-.5-.2-.5-.44s.22-.44.5-.44.5.2.5.44-.22.44-.5.44Z"/>
    <path class="cls-3" d="M49.73,107.23l-7.2-6.33v-2.69c-.13.08-.26.15-.4.22v2.61l7.2,6.33v18.83l-2.36,2.07c.11.07.22.14.33.21l2.43-2.14v-19.12Z"/>
    <path class="cls-3" d="M110.61,126.11h-11.13v.35s11.16,0,11.16,0c.3-.21.59-.43.89-.65l6.45-5.68h.05c.12-.12.23-.23.35-.35h-.57l-7.2,6.33Z"/>
    <path class="cls-3" d="M85.31,23.91v12.66l3.51,3.09-3.6,3.16,3.6,3.16-3.6,3.16,3.68,3.24v3.92s.1,0,.14,0c.09,0,.17,0,.26,0v-4.06l-3.51-3.09,3.6-3.16-3.6-3.16,3.6-3.16-3.68-3.24v-12.66l-3.6-3.16v-2.01c-.13-.01-.27-.02-.4-.03v2.19l3.6,3.16Z"/>
    <path class="cls-3" d="M117.8,41.02l7.08,6.23v15.82l3.51,3.09-7.2,6.33,7.2,6.33-7.2,6.33,3.68,3.24v8.65c-.4.08-.7.4-.7.77,0,.44.4.79.9.79s.9-.35.9-.79c0-.38-.3-.69-.7-.77v-8.8l-3.51-3.09,7.2-6.33-7.2-6.33,7.2-6.33-3.68-3.24v-15.82l-7.31-6.43h-10.68v-13.76c-.13-.08-.27-.16-.4-.24v14.36h10.91ZM125.58,97.81c0,.24-.22.44-.5.44s-.5-.2-.5-.44.22-.44.5-.44.5.2.5.44Z"/>
    <path class="cls-3" d="M95.4,75.65c0,.38.3.69.7.77v11.82l-3.6,3.16v3.34l3.5,3.08-7.04,6.19-.06.05v8.8c-.39.09-.68.4-.68.77,0,.44.4.79.9.79s.9-.35.9-.79c0-.38-.31-.7-.72-.78v-8.65l7.26-6.39-3.66-3.22v-3.05l3.47-3.05c0-2.69,0-5.38,0-8.07v-4.35s-.04.01-.07.01c-.28,0-.5-.2-.5-.44s.22-.44.5-.44c.02,0,.05,0,.07.01v-.36s-.05,0-.07,0c-.5,0-.9.35-.9.79ZM89.63,113.63c0,.24-.22.44-.5.44s-.5-.2-.5-.44.22-.44.5-.44.5.2.5.44Z"/>
    <path class="cls-3" d="M35.14,98.6c.1,0,.19-.02.28-.04-.42-.18-.81-.4-1.17-.66.05.39.43.7.89.7Z"/>
    <path class="cls-3" d="M31.54,72.93c-.28,0-.5-.2-.5-.44s.22-.44.5-.44c.12,0,.22.04.3.1,0-.08,0-.16,0-.24,0-.05,0-.11,0-.16-.09-.03-.19-.05-.3-.05-.5,0-.9.35-.9.79s.4.79.9.79c.11,0,.21-.02.3-.05,0-.13,0-.27,0-.4-.08.06-.19.1-.3.1Z"/>
    <path class="cls-3" d="M38.94,53.43l-3.04-2.67c.09-.12.14-.27.14-.42,0-.44-.4-.79-.9-.79s-.9.35-.9.79.4.79.9.79c.18,0,.34-.05.48-.12l2.92,2.57v4.2c.13-.06.26-.12.4-.17v-4.17ZM35.14,50.78c-.28,0-.5-.2-.5-.44s.22-.44.5-.44.5.2.5.44-.22.44-.5.44Z"/>
    <path class="cls-3" d="M27.74,69.25v5.63c-.4.08-.7.4-.7.77,0,.44.4.79.9.79s.9-.35.9-.79c0-.38-.3-.69-.7-.77v-5.49l4.18-3.67c.05-.21.1-.42.16-.63l-4.73,4.16ZM28.44,75.65c0,.24-.22.44-.5.44s-.5-.2-.5-.44.22-.44.5-.44.5.2.5.44Z"/>
    <path class="cls-3" d="M28.42,47.84l6.52,5.73v6.8c.13-.14.26-.28.4-.42v-6.53l-6.63-5.84c.09-.12.14-.27.14-.42,0-.31-.2-.57-.5-.7-.06.1-.13.21-.19.31.17.07.29.22.29.39,0,.24-.22.44-.5.44-.09,0-.17-.03-.24-.06-.06.11-.12.21-.18.32.13.06.27.1.42.1.18,0,.34-.05.48-.12Z"/>
    <path class="cls-3" d="M31.34,62.22c-.4.08-.7.4-.7.77,0,.44.4.79.9.79s.9-.35.9-.79c0-.38-.3-.69-.7-.77v-8.8l-4.91-4.32c-.06.11-.12.22-.18.34l4.69,4.13v8.65ZM31.54,62.56s0,0,0,0c.28,0,.5.2.5.44s-.22.44-.5.44-.5-.2-.5-.44.22-.44.5-.44c0,0,0,0,0,0Z"/>
    <path class="cls-3" d="M37.86,104.31c.09.35.45.62.88.62.5,0,.9-.35.9-.79s-.4-.79-.9-.79c-.43,0-.78.26-.88.62h-2.8l-3.8,3.34,7.28,6.4v5.49c-.4.08-.7.4-.7.77,0,.44.4.79.9.79s.9-.35.9-.79c0-.38-.3-.69-.7-.77v-5.63l-7.11-6.26,3.4-2.99h2.64ZM38.74,103.7c.28,0,.5.2.5.44s-.22.44-.5.44-.5-.2-.5-.44.22-.44.5-.44ZM39.24,119.96c0,.24-.22.44-.5.44s-.5-.2-.5-.44.22-.44.5-.44.5.2.5.44Z"/>
    <path class="cls-3" d="M50.01,40.17c-.14-.08-.3-.12-.48-.12-.5,0-.9.35-.9.79s.4.79.9.79.9-.35.9-.79c0-.15-.05-.3-.14-.42l3.04-2.67v-3.31l-3.04-2.67c.09-.12.14-.27.14-.42,0-.44-.4-.79-.9-.79s-.9.35-.9.79.4.79.9.79c.18,0,.34-.05.48-.12l2.92,2.57v3.02l-2.92,2.57ZM49.53,41.28c-.28,0-.5-.2-.5-.44s.22-.44.5-.44.5.2.5.44-.22.44-.5.44ZM49.53,31.79c-.28,0-.5-.2-.5-.44s.22-.44.5-.44.5.2.5.44-.22.44-.5.44Z"/>
    <path class="cls-3" d="M53.33,72.67v-3.14c-.13,0-.27,0-.4,0v2.79h-3.31l-3.17-2.79c-.18,0-.35,0-.46.03-.02,0-.03.01-.05.02l3.52,3.09h3.88Z"/>
    <path class="cls-3" d="M52.93,88.14h-3.31l-1.44-1.27c-.19,0-.38,0-.57,0l1.84,1.62h3.88v-1.62c-.13,0-.27,0-.4,0v1.27Z"/>
    <path class="cls-3" d="M103.69,38.45c.4-.08.7-.4.7-.77,0-.44-.4-.79-.9-.79s-.9.35-.9.79c0,.38.3.69.7.77v5.63l3.6,3.16v3.02l-2.92,2.57c-.14-.08-.3-.12-.48-.12-.5,0-.9.35-.9.79s.4.79.9.79.9-.35.9-.79c0-.15-.05-.3-.14-.42l3.04-2.67v-3.31l-3.6-3.16v-5.49ZM103.49,53.94c-.28,0-.5-.2-.5-.44s.22-.44.5-.44.5.2.5.44-.22.44-.5.44ZM102.99,37.68c0-.24.22-.44.5-.44s.5.2.5.44-.22.44-.5.44-.5-.2-.5-.44Z"/>
    <path class="cls-3" d="M117.65,56.29c.07-.03.15-.06.23-.06.13,0,.24.05.33.12.18.03.35.06.53.1-.11-.33-.45-.57-.86-.57-.33,0-.62.16-.78.4.03,0,.07,0,.1,0,.15,0,.29,0,.44.01Z"/>
    <path class="cls-3" d="M110.89,53.57l3.6-3.16v-5.63c.4-.08.7-.4.7-.77,0-.44-.4-.79-.9-.79s-.9.35-.9.79c0,.38.3.69.7.77v5.49l-3.6,3.16v2.89c.13,0,.27,0,.4,0v-2.75ZM113.79,44.01c0-.24.22-.44.5-.44s.5.2.5.44-.22.44-.5.44-.5-.2-.5-.44Z"/>
    <path class="cls-3" d="M121.28,69.25l-3.6,3.16v6.33l-3.2,2.81v-5.13c.4-.08.7-.4.7-.77,0-.44-.4-.79-.9-.79s-.9.35-.9.79c0,.38.3.69.7.77v5.98l4-3.52v-6.33l3.6-3.16v-1.26c-.13.13-.26.26-.4.38v.73ZM113.79,75.65c0-.24.22-.44.5-.44s.5.2.5.44-.22.44-.5.44-.5-.2-.5-.44Z"/>
    <path class="cls-3" d="M121.68,47.1l-3.04-2.67c.09-.12.14-.27.14-.42,0-.44-.4-.79-.9-.79s-.9.35-.9.79.4.79.9.79c.18,0,.34-.05.48-.12l2.92,2.57v10.46c.14.12.27.24.4.36v-10.97ZM117.88,44.45c-.28,0-.5-.2-.5-.44s.22-.44.5-.44.5.2.5.44-.22.44-.5.44Z"/>
    <path class="cls-3" d="M117.88,85.94c.5,0,.9-.35.9-.79,0-.15-.05-.3-.14-.42l3.04-2.67v-5.63c.4-.08.7-.4.7-.77,0-.44-.4-.79-.9-.79s-.9.35-.9.79c0,.38.3.69.7.77v5.49l-2.92,2.57c-.14-.08-.3-.12-.48-.12-.5,0-.9.35-.9.79s.4.79.9.79ZM120.98,75.65c0-.24.22-.44.5-.44s.5.2.5.44-.22.44-.5.44-.5-.2-.5-.44ZM117.88,84.71c.28,0,.5.2.5.44s-.22.44-.5.44-.5-.2-.5-.44.22-.44.5-.44Z"/>
    <path class="cls-3" d="M128.48,62.22c-.4.08-.7.4-.7.77,0,.44.4.79.9.79s.9-.35.9-.79c0-.38-.3-.69-.7-.77v-11.46l.14.12c-.15-.3-.3-.6-.46-.9l-.08-.07v12.31ZM128.68,62.56c.28,0,.5.2.5.44s-.22.44-.5.44-.5-.2-.5-.44.22-.44.5-.44Z"/>
    <path class="cls-3" d="M131.37,59.83c0,.44.4.79.9.79.19,0,.36-.05.5-.14-.04-.13-.08-.26-.11-.39-.09.1-.23.18-.39.18-.28,0-.5-.2-.5-.44s.22-.44.5-.44c.06,0,.12.01.18.03-.12-.39-.25-.77-.38-1.15v.79c-.4.08-.7.4-.7.77Z"/>
    <path class="cls-3" d="M85.7,97.88v-8.8c.4-.08.7-.4.7-.77,0-.44-.4-.79-.9-.79-.14,0-.28.03-.4.09,0,.15,0,.3,0,.45.09-.11.23-.19.4-.19.28,0,.5.2.5.44s-.22.44-.5.44c-.17,0-.31-.08-.4-.19,0,.15,0,.3,0,.45.06.03.13.05.2.07v8.65l-3.2,2.81v-1.64c-.13.07-.26.14-.4.2v2.29l4-3.52Z"/>
    <path class="cls-3" d="M45.93,87.87c.28,0,.5.2.5.44s-.22.44-.5.44c-.17,0-.31-.08-.4-.2,0,.12,0,.24,0,.35,0,.03,0,.07,0,.1.06.03.13.05.2.07v2.47l3.6,3.16v6.33l7.59,6.68v-6.83l-3.6-3.16v-3.16l-3.04-2.67c.09-.12.14-.27.14-.42,0-.44-.4-.79-.9-.79s-.9.35-.9.79.4.79.9.79c.18,0,.34-.05.48-.12l2.92,2.57v3.16l3.6,3.16v5.83l-6.8-5.98v-6.33l-3.6-3.16v-2.32c.4-.08.7-.4.7-.77,0-.44-.4-.79-.9-.79-.15,0-.28.03-.41.09,0,.15,0,.31,0,.46.09-.12.23-.2.41-.2ZM49.53,91.92c-.28,0-.5-.2-.5-.44s.22-.44.5-.44.5.2.5.44-.22.44-.5.44Z"/>
    <path class="cls-3" d="M133.17,85.15c0-.44-.4-.79-.9-.79s-.9.35-.9.79.4.79.9.79c.18,0,.34-.05.48-.12l1.77,1.56c.02-.15.05-.29.07-.44l-1.56-1.37c.09-.12.14-.27.14-.42ZM132.27,85.59c-.28,0-.5-.2-.5-.44s.22-.44.5-.44.5.2.5.44-.22.44-.5.44Z"/>
    <path class="cls-3" d="M132.47,88.24l-3.6-3.16v-2.32c.4-.08.7-.4.7-.77,0-.44-.4-.79-.9-.79s-.9.35-.9.79c0,.38.3.69.7.77v2.47l3.6,3.16v6.33l.65.58c.04-.13.08-.26.11-.4l-.37-.32v-6.33ZM128.18,81.98c0-.24.22-.44.5-.44s.5.2.5.44-.22.44-.5.44-.5-.2-.5-.44Z"/>
    <path class="cls-3" d="M56.72,109.67c-.5,0-.9.35-.9.79,0,.38.3.69.7.77v2.32l-3.2,2.81v-8.3c.4-.08.7-.4.7-.77,0-.44-.4-.79-.9-.79s-.9.35-.9.79c0,.38.3.69.7.77v9.15l4-3.52v-2.47c.4-.08.7-.4.7-.77,0-.44-.4-.79-.9-.79ZM52.63,107.3c0-.24.22-.44.5-.44s.5.2.5.44-.22.44-.5.44-.5-.2-.5-.44ZM56.72,110.9c-.28,0-.5-.2-.5-.44s.22-.44.5-.44.5.2.5.44-.22.44-.5.44Z"/>
    <path class="cls-3" d="M45.03,37.68c0,.44.4.79.9.79s.9-.35.9-.79c0-.38-.3-.69-.7-.77v-9.04c-.13.09-.27.18-.4.27v8.77c-.4.08-.7.4-.7.77ZM45.93,37.24c.28,0,.5.2.5.44s-.22.44-.5.44-.5-.2-.5-.44.22-.44.5-.44Z"/>
    <path class="cls-3" d="M38.74,35.3c.5,0,.9-.35.9-.79,0-.15-.05-.3-.14-.42l3.04-2.67v-.96c-.13.1-.27.21-.4.31v.5l-2.92,2.57c-.14-.08-.3-.12-.48-.12-.01,0-.02,0-.03,0-.29.27-.58.55-.87.82.02.42.41.76.9.76ZM38.74,34.07c.28,0,.5.2.5.44s-.22.44-.5.44-.5-.2-.5-.44.22-.44.5-.44Z"/>
    <path class="cls-3" d="M67.38,81.82l-.06.05v12.7l-2.92,2.57c-.14-.08-.3-.12-.48-.12-.5,0-.9.35-.9.79s.4.79.9.79.9-.35.9-.79c0-.15-.05-.3-.14-.42l3.04-2.67v-12.7l3.6-3.17c0-.17,0-.33,0-.5l-3.94,3.47ZM63.92,98.25c-.28,0-.5-.2-.5-.44s.22-.44.5-.44.5.2.5.44-.22.44-.5.44Z"/>
    <path class="cls-3" d="M72.2,66.88c-.07.11-.14.21-.21.31l1.92,1.69c.11-.07.22-.14.33-.21l-2.04-1.79Z"/>
    <path class="cls-3" d="M60.05,56.18l-3.12-2.75v-8.65c.4-.08.7-.4.7-.77,0-.44-.4-.79-.9-.79s-.9.35-.9.79c0,.38.3.69.7.77v8.8l2.96,2.61h.51s.04,0,.05,0ZM56.22,44.01c0-.24.22-.44.5-.44s.5.2.5.44-.22.44-.5.44-.5-.2-.5-.44Z"/>
    <path class="cls-3" d="M128.48,71.72c-.4.08-.7.4-.7.77,0,.44.4.79.9.79s.9-.35.9-.79c0-.38-.3-.69-.7-.77v-2.32l5.04-4.43c-.03-.14-.06-.28-.09-.42l-5.35,4.71v2.47ZM129.18,72.49c0,.24-.22.44-.5.44s-.5-.2-.5-.44.22-.44.5-.44.5.2.5.44Z"/>
    <path class="cls-3" d="M99.69,129.7l6.04-.07c.2-.12.41-.23.61-.35l-6.65.07v.35Z"/>
    <path class="cls-3" d="M21.65,91.48c0-.35-.26-.64-.62-.75.03.16.07.32.1.48.07.08.12.17.12.27,0,.04-.01.07-.03.11.04.16.08.32.11.48.19-.15.31-.36.31-.59Z"/>
    <path class="cls-3" d="M20.55,67.34v20.92c.12.7.26,1.39.4,2.07v-25.07c-.14.69-.28,1.38-.4,2.07Z"/>
    <path class="cls-3" d="M31.35,88.23v11.97c-.41.08-.71.39-.71.77,0,.44.4.79.9.79s.9-.35.9-.79c0-.37-.29-.68-.69-.77v-11.83l.1-.09c0-.17,0-.33,0-.5l-.5.44ZM32.04,100.97c0,.24-.22.44-.5.44s-.5-.2-.5-.44.22-.44.5-.44.5.2.5.44Z"/>
    <path class="cls-3" d="M49.53,70.12c.42,0,.76-.25.87-.59-.14,0-.29,0-.43,0-.08.14-.25.24-.44.24s-.35-.1-.44-.24c-.14,0-.29,0-.43,0,.1.34.45.59.87.59Z"/>
    <path class="cls-3" d="M60.12,93.87c-.4.08-.7.4-.7.77,0,.44.4.79.9.79s.9-.35.9-.79c0-.38-.3-.69-.7-.77v-8.17c-.13.1-.26.19-.4.27v7.9ZM60.82,94.64c0,.24-.22.44-.5.44s-.5-.2-.5-.44.22-.44.5-.44.5.2.5.44Z"/>
    <path class="cls-3" d="M56.72,69.76c-.19,0-.35-.1-.43-.24-.14,0-.29,0-.43,0,.1.34.45.59.87.59.18,0,.34-.05.48-.12l2.92,2.57v1.91c.14.09.27.18.4.27v-2.33l-3.04-2.67c.05-.07.08-.14.11-.22-.14,0-.29,0-.43,0-.08.14-.24.24-.43.24Z"/>
    <path class="cls-3" d="M56.52,88.24l-3.68,3.24,3.68,3.24v3.27h2.92c.09.35.45.62.88.62.5,0,.9-.35.9-.79s-.4-.79-.9-.79c-.43,0-.79.26-.88.62h-2.52v-3.06l-3.51-3.09,3.51-3.09v-1.52c-.13,0-.27,0-.4,0v1.37ZM60.32,97.37c.28,0,.5.2.5.44s-.22.44-.5.44-.5-.2-.5-.44.22-.44.5-.44Z"/>
    <path class="cls-3" d="M71.31,91.05v-4.51c0-1.4,0-2.78,0-4.15-.06.02-.13.04-.2.04-.28,0-.5-.2-.5-.44s.22-.44.5-.44c.07,0,.14.01.2.04,0-.12,0-.25,0-.37-.06-.01-.13-.02-.2-.02-.5,0-.9.35-.9.79,0,.38.3.69.7.77v9.15l.41-.36c0-.16,0-.33,0-.5h-.01Z"/>
    <path class="cls-3" d="M46.83,72.49c0-.44-.4-.79-.9-.79-.15,0-.28.03-.4.09,0,.15,0,.3,0,.46.09-.11.23-.19.4-.19.28,0,.5.2.5.44s-.22.44-.5.44c-.17,0-.31-.08-.4-.19,0,.15,0,.3,0,.46.12.06.26.09.41.09.18,0,.34-.05.48-.12l.45.4c.19,0,.38,0,.57,0l-.74-.65c.09-.12.14-.27.14-.42Z"/>
    <path class="cls-3" d="M27.04,56.67c0,.44.4.79.9.79s.9-.35.9-.79-.4-.79-.9-.79c-.18,0-.34.05-.48.12l-2.79-2.45c-.05.12-.1.24-.15.36l2.66,2.34c-.09.12-.14.27-.14.42ZM27.94,56.23c.28,0,.5.2.5.44s-.22.44-.5.44-.5-.2-.5-.44.22-.44.5-.44Z"/>
    <path class="cls-3" d="M53.33,44.78c.41-.08.7-.4.7-.77,0-.44-.4-.79-.9-.79s-.9.35-.9.79c0,.38.3.69.7.77v11.41c.13,0,.27,0,.4,0v-11.4ZM53.13,44.45c-.28,0-.5-.2-.5-.44s.22-.44.5-.44.5.2.5.44c0,.21-.17.39-.4.43-.03,0-.06,0-.09,0Z"/>
    <path class="cls-3" d="M63.72,93.87c-.4.08-.7.4-.7.77,0,.44.4.79.9.79s.9-.35.9-.79c0-.38-.3-.69-.7-.77v-24.35c-.13,0-.27,0-.4,0v24.35ZM64.42,94.64c0,.24-.22.44-.5.44s-.5-.2-.5-.44.22-.44.5-.44.5.2.5.44Z"/>
    <path class="cls-3" d="M38.74,38.47c.5,0,.9-.35.9-.79s-.4-.79-.9-.79c-.43,0-.78.26-.88.62h-2.87c-.11.12-.21.23-.32.35h3.18c.09.35.45.62.88.62ZM38.74,37.24c.28,0,.5.2.5.44s-.22.44-.5.44-.5-.2-.5-.44.22-.44.5-.44Z"/>
    <path class="cls-3" d="M46.64,56.18c-.13-.14-.3-.24-.5-.28v-2.47l-6.63-5.84c.09-.12.14-.27.14-.42,0-.44-.4-.79-.9-.79s-.9.35-.9.79.4.79.9.79c.18,0,.34-.05.48-.12l6.52,5.73v2.32c-.22.04-.41.16-.53.32.41-.02.82-.04,1.24-.04.07,0,.13,0,.2,0ZM38.74,47.61c-.28,0-.5-.2-.5-.44s.22-.44.5-.44.5.2.5.44-.22.44-.5.44Z"/>
    <path class="cls-3" d="M42.33,41.63c.5,0,.9-.35.9-.79s-.4-.79-.9-.79c-.43,0-.79.26-.88.62h-9.11c-.09.12-.18.23-.28.35h9.39c.09.35.45.62.88.62ZM42.33,40.4c.28,0,.5.2.5.44s-.22.44-.5.44-.5-.2-.5-.44.22-.44.5-.44Z"/>
    <path class="cls-3" d="M27.47,63.66c.14.08.3.12.48.12.5,0,.9-.35.9-.79s-.4-.79-.9-.79-.9.35-.9.79c0,.15.05.3.14.42l-3.04,2.67v34.71c.13.32.26.63.4.95v-35.51l2.92-2.57ZM27.94,62.56c.28,0,.5.2.5.44s-.22.44-.5.44-.5-.2-.5-.44.22-.44.5-.44Z"/>
    <path class="cls-3" d="M26.43,105.72c.16.31.33.62.5.93l4.42,3.89v3.08c.13.18.27.36.4.54v-3.76l-5.32-4.68Z"/>
    <path class="cls-3" d="M53.33,120.03l7.2-6.33v-11.96c.4-.08.7-.4.7-.77,0-.44-.4-.79-.9-.79s-.9.35-.9.79c0,.38.3.69.7.77v11.82l-7.2,6.33v6.32l-3.83,3.37c.11.07.23.13.34.2l3.89-3.42v-6.32ZM59.82,100.97c0-.24.22-.44.5-.44s.5.2.5.44-.22.44-.5.44-.5-.2-.5-.44Z"/>
    <path class="cls-3" d="M36.04,113.63c0-.44-.4-.79-.9-.79s-.9.35-.9.79c0,.38.3.69.7.77v3.64c.13.15.27.29.4.44v-4.08c.4-.08.7-.4.7-.77ZM35.14,114.07s0,0,0,0,0,0,0,0c-.28,0-.5-.2-.5-.44s.22-.44.5-.44.5.2.5.44-.22.44-.5.44Z"/>
    <path class="cls-3" d="M60.12,53.57l2.96,2.61c.51,0,1.03,0,1.54,0-.16-.18-.42-.31-.7-.31-.18,0-.34.05-.48.12l-2.92-2.57v-22.15l-8.03-7.07c-.12.06-.24.12-.36.18l7.99,7.03v22.15Z"/>
    <path class="cls-3" d="M110.89,116.02v-2.47l-3.71-3.27h-3.88v9.49h-3.6v2.57c-.4.08-.7.4-.7.77,0,.44.4.79.9.79s.9-.35.9-.79c0-.38-.3-.69-.7-.77v-2.22h3.6v-9.49h3.31l3.48,3.06v2.32c-.4.08-.7.4-.7.77,0,.44.4.79.9.79s.9-.35.9-.79c0-.38-.3-.69-.7-.77ZM100.39,123.12c0,.24-.22.44-.5.44s-.5-.2-.5-.44.22-.44.5-.44.5.2.5.44ZM110.69,117.23c-.28,0-.5-.2-.5-.44s.22-.44.5-.44.5.2.5.44-.22.44-.5.44Z"/>
    <path class="cls-3" d="M74.91,53.43v-14.98c.4-.08.7-.4.7-.77,0-.44-.4-.79-.9-.79s-.9.35-.9.79c0,.38.3.69.7.77v15.13l2.4,2.11c.16-.03.32-.05.48-.07l-2.49-2.19ZM74.21,37.68c0-.24.22-.44.5-.44s.5.2.5.44-.22.44-.5.44-.5-.2-.5-.44Z"/>
    <path class="cls-3" d="M70.22,44.01c0,.38.3.69.7.77v4.79c-.4.08-.7.4-.7.77,0,.44.4.79.9.79s.9-.35.9-.79c0-.38-.3-.69-.7-.77v-4.79c.4-.08.7-.4.7-.77,0-.44-.4-.79-.9-.79s-.9.35-.9.79ZM71.61,50.34c0,.24-.22.44-.5.44s-.5-.2-.5-.44.22-.44.5-.44.5.2.5.44ZM71.61,44.01c0,.24-.22.44-.5.44s-.5-.2-.5-.44.22-.44.5-.44.5.2.5.44Z"/>
    <path class="cls-3" d="M84.61,69.32c0,.38.3.69.7.77v15.13l3.6,3.16v9.35l-7.08,6.23h-9.83c-.09-.35-.45-.62-.88-.62-.5,0-.9.35-.9.79s.4.79.9.79c.43,0,.79-.26.88-.62h10l7.25-6.38.06-.05v-9.64l-3.6-3.16v-14.98c.4-.08.7-.4.7-.77,0-.03,0-.06-.01-.09-.38-.19-.74-.42-1.07-.69-.41.07-.72.39-.72.78ZM71.11,104.58c-.28,0-.5-.2-.5-.44s.22-.44.5-.44.5.2.5.44-.22.44-.5.44ZM85.5,68.89c.28,0,.5.2.5.44s-.22.44-.5.44-.5-.2-.5-.44.22-.44.5-.44Z"/>
    <path class="cls-3" d="M78.51,101.15v-1.46c-.08,0-.15,0-.23,0-.06,0-.12,0-.17,0v1.1h-3.2v-1.62c-.14-.06-.27-.12-.4-.19v2.16h4Z"/>
    <path class="cls-3" d="M114.09,85.92v20.61c-.4.08-.7.4-.7.77,0,.44.4.79.9.79s.9-.35.9-.79c0-.38-.3-.69-.7-.77v-20.61c.4-.08.7-.4.7-.77,0-.44-.4-.79-.9-.79s-.9.35-.9.79c0,.38.3.69.7.77ZM114.79,107.3c0,.24-.22.44-.5.44s-.5-.2-.5-.44.22-.44.5-.44.5.2.5.44ZM114.29,84.71c.28,0,.5.2.5.44s-.22.44-.5.44c0,0,0,0,0,0s0,0,0,0c-.28,0-.5-.2-.5-.44s.22-.44.5-.44Z"/>
    <path class="cls-3" d="M117.68,47.94v4.79c-.4.08-.7.4-.7.77,0,.44.4.79.9.79s.9-.35.9-.79c0-.38-.3-.69-.7-.77v-4.79c.4-.08.7-.4.7-.77,0-.44-.4-.79-.9-.79s-.9.35-.9.79c0,.38.3.69.7.77ZM118.38,53.5c0,.24-.22.44-.5.44s-.5-.2-.5-.44.22-.44.5-.44h0s0,0,0,0c.28,0,.5.2.5.44ZM117.88,46.73c.28,0,.5.2.5.44s-.22.44-.5.44-.5-.2-.5-.44.22-.44.5-.44Z"/>
    <path class="cls-3" d="M96.1,36.91c-.4.08-.7.4-.7.77,0,.44.4.79.9.79s.9-.35.9-.79c0-.38-.3-.69-.7-.77v-14.98l.19-.17c-.13-.05-.27-.1-.4-.14l-.19.17v15.13ZM96.3,37.24h0s0,0,0,0c.28,0,.5.2.5.44s-.22.44-.5.44-.5-.2-.5-.44.22-.44.5-.44Z"/>
    <path class="cls-3" d="M100.79,25.02c0-.44-.4-.79-.9-.79s-.9.35-.9.79c0,.38.3.69.7.77v11.12c-.4.08-.7.4-.7.77,0,.44.4.79.9.79s.9-.35.9-.79c0-.38-.3-.69-.7-.77v-11.12c.4-.08.7-.4.7-.77ZM100.39,37.68c0,.24-.22.44-.5.44s-.5-.2-.5-.44.22-.44.5-.44h0s0,0,0,0c.28,0,.5.2.5.44ZM99.9,25.46c-.28,0-.5-.2-.5-.44s.22-.44.5-.44.5.2.5.44-.22.44-.5.44Z"/>
    <path class="cls-3" d="M102.59,34.51c0,.44.4.79.9.79s.9-.35.9-.79c0-.38-.3-.69-.7-.77v-4.79c.4-.08.7-.4.7-.77,0-.44-.4-.79-.9-.79s-.9.35-.9.79c0,.38.3.69.7.77v4.79c-.4.08-.7.4-.7.77ZM102.99,28.18c0-.24.22-.44.5-.44s.5.2.5.44-.22.44-.5.44-.5-.2-.5-.44ZM103.49,34.07h0s0,0,0,0c.28,0,.5.2.5.44s-.22.44-.5.44-.5-.2-.5-.44.22-.44.5-.44Z"/>
    <path class="cls-3" d="M96.3,56.23h0s0,0,0,0c.1,0,.18.03.26.07.18,0,.36,0,.54,0-.12-.2-.34-.35-.59-.4v-4.79c.4-.08.7-.4.7-.77,0-.44-.4-.79-.9-.79s-.9.35-.9.79c0,.38.3.69.7.77v4.79c-.26.05-.47.2-.59.4.18,0,.36,0,.54,0,.08-.04.16-.07.26-.07ZM95.8,50.34c0-.24.22-.44.5-.44s.5.2.5.44-.22.44-.5.44-.5-.2-.5-.44Z"/>
    <path class="cls-3" d="M99.9,40.05c-.43,0-.79.26-.88.62h-2.92v5.73c-.4.08-.7.4-.7.77,0,.44.4.79.9.79s.9-.35.9-.79c0-.38-.3-.69-.7-.77v-5.38h2.52c.09.35.45.62.88.62.5,0,.9-.35.9-.79s-.4-.79-.9-.79ZM96.8,47.17c0,.24-.22.44-.5.44s-.5-.2-.5-.44.22-.44.5-.44h0s0,0,0,0c.28,0,.5.2.5.44ZM99.9,41.28c-.28,0-.5-.2-.5-.44s.22-.44.5-.44.5.2.5.44-.22.44-.5.44Z"/>
    <path class="cls-3" d="M103.49,56.23c.1,0,.18.03.26.07.18,0,.36,0,.53,0-.15-.25-.45-.43-.79-.43s-.64.17-.79.42h.54c.08-.04.16-.07.26-.07Z"/>
    <path class="cls-3" d="M102.59,25.02c0,.44.4.79.9.79.42,0,.77-.26.87-.6-.12-.07-.25-.14-.37-.2,0,0,0,0,0,.01,0,.24-.22.44-.5.44s-.5-.2-.5-.44c0-.17.11-.32.28-.39-.13-.07-.25-.13-.38-.2-.18.14-.29.35-.29.58Z"/>
    <path class="cls-3" d="M100.09,44.78c.4-.08.7-.4.7-.77,0-.44-.4-.79-.9-.79s-.9.35-.9.79c0,.38.3.69.7.77v11.52h.4s0-11.52,0-11.52ZM99.4,44.01c0-.24.22-.44.5-.44s.5.2.5.44-.22.44-.5.44-.5-.2-.5-.44Z"/>
    <path class="cls-3" d="M66.62,34.51c0,.44.4.79.9.79s.9-.35.9-.79c0-.38-.3-.69-.7-.77v-11.12c.4-.08.7-.4.7-.77,0-.44-.4-.79-.9-.79s-.9.35-.9.79c0,.38.3.69.7.77v11.12c-.4.08-.7.4-.7.77ZM67.02,21.85c0-.24.22-.44.5-.44s.5.2.5.44-.22.44-.5.44-.5-.2-.5-.44ZM67.52,34.07c.28,0,.5.2.5.44s-.22.44-.5.44-.5-.2-.5-.44.22-.44.5-.44Z"/>
    <path class="cls-3" d="M74.51,19.46v11.12c-.4.08-.7.4-.7.77,0,.44.4.79.9.79s.9-.35.9-.79c0-.38-.3-.69-.7-.77v-11.12c.4-.08.7-.4.7-.77,0-.09-.02-.18-.05-.26-.15,0-.29.01-.44.02.06.07.09.15.09.24,0,.24-.22.44-.5.44s-.5-.2-.5-.44c0-.08.03-.14.07-.2-.15,0-.29.02-.44.03-.01.06-.02.12-.02.18,0,.38.3.69.7.77ZM75.21,31.35c0,.24-.22.44-.5.44s-.5-.2-.5-.44.22-.44.5-.44.5.2.5.44Z"/>
    <path class="cls-3" d="M132.27,62.2c-.5,0-.9.35-.9.79s.4.79.9.79.9-.35.9-.79c0-.15-.05-.3-.14-.42l.26-.23c-.04-.13-.07-.27-.11-.4l-.44.38c-.14-.08-.3-.12-.48-.12ZM132.27,63.43c-.28,0-.5-.2-.5-.44s.22-.44.5-.44.5.2.5.44-.22.44-.5.44Z"/>
    <path class="cls-3" d="M103.29,100.2c-.4.08-.7.4-.7.77,0,.44.4.79.9.79s.9-.35.9-.79c0-.38-.3-.69-.7-.77v-1.21c-.13,0-.27,0-.4,0v1.21ZM103.99,100.97c0,.24-.22.44-.5.44s-.5-.2-.5-.44.22-.44.5-.44.5.2.5.44Z"/>
    <path class="cls-3" d="M103.49,104.93c.43,0,.78-.26.88-.62h2.8l3.71-3.27v-25.32l2.92-2.57c.14.08.3.12.48.12.5,0,.9-.35.9-.79s-.4-.79-.9-.79-.9.35-.9.79c0,.15.05.3.14.42l-3.04,2.67v25.32l-3.48,3.06h-2.64c-.09-.35-.45-.62-.88-.62-.5,0-.9.35-.9.79s.4.79.9.79ZM114.29,72.05c.28,0,.5.2.5.44s-.22.44-.5.44-.5-.2-.5-.44.22-.44.5-.44ZM103.49,103.7c.28,0,.5.2.5.44s-.22.44-.5.44-.5-.2-.5-.44.22-.44.5-.44Z"/>
    <path class="cls-3" d="M85.3,104.91v15.46l7.54-6.61.06-.05v-8.8c.4-.08.7-.4.7-.77,0-.44-.4-.79-.9-.79s-.9.35-.9.79c0,.38.3.69.7.77v8.65l-6.8,5.96v-14.61c.4-.08.7-.4.7-.77,0-.44-.4-.79-.9-.79s-.9.35-.9.79c0,.38.3.69.7.77ZM92.2,104.14c0-.24.22-.44.5-.44s.5.2.5.44-.22.44-.5.44c0,0,0,0,0,0s0,0,0,0c-.28,0-.5-.2-.5-.44ZM85.5,103.7c.28,0,.5.2.5.44s-.22.44-.5.44c0,0,0,0,0,0,0,0,0,0,0,0-.28,0-.5-.2-.5-.44s.22-.44.5-.44Z"/>
    <path class="cls-3" d="M81.01,116.79c0,.44.4.79.9.79s.9-.35.9-.79c0-.38-.3-.69-.7-.77v-7.95c.4-.08.7-.4.7-.77,0-.44-.4-.79-.9-.79s-.9.35-.9.79c0,.38.3.69.7.77v7.95c-.4.08-.7.4-.7.77ZM81.41,107.3c0-.24.22-.44.5-.44s.5.2.5.44-.22.44-.5.44-.5-.2-.5-.44ZM81.91,116.36c.28,0,.5.2.5.44s-.22.44-.5.44-.5-.2-.5-.44.22-.44.5-.44Z"/>
    <path class="cls-3" d="M74.71,35.3c.18,0,.34-.05.48-.12l2.92,2.57v5.49c-.4.08-.7.4-.7.77,0,.44.4.79.9.79s.9-.35.9-.79c0-.38-.3-.69-.7-.77v-5.63l-3.04-2.67c.09-.12.14-.27.14-.42,0-.44-.4-.79-.9-.79s-.9.35-.9.79.4.79.9.79ZM78.31,43.57s0,0,0,0c.28,0,.5.2.5.44s-.22.44-.5.44-.5-.2-.5-.44.22-.44.5-.44c0,0,0,0,0,0ZM74.71,34.07c.28,0,.5.2.5.44s-.22.44-.5.44-.5-.2-.5-.44.22-.44.5-.44Z"/>
    <path class="cls-3" d="M88.2,34.51c0,.44.4.79.9.79s.9-.35.9-.79c0-.38-.3-.69-.7-.77v-14.1c-.13-.03-.27-.06-.4-.08v14.18c-.4.08-.7.4-.7.77ZM89.1,34.07c.28,0,.5.2.5.44s-.22.44-.5.44-.5-.2-.5-.44.22-.44.5-.44Z"/>
    <path class="cls-3" d="M71.31,56.59v-3.16l-3.6-3.16v-6.18l3.68-3.24-3.12-2.74c.09-.12.14-.27.14-.42,0-.44-.4-.79-.9-.79s-.9.35-.9.79.4.79.9.79c.18,0,.34-.05.48-.12l2.84,2.5-3.51,3.09v6.47l3.6,3.16v3.16l1.88,1.65c.07-.1.15-.2.22-.3l-1.7-1.5ZM67.52,38.12c-.28,0-.5-.2-.5-.44s.22-.44.5-.44.5.2.5.44-.22.44-.5.44Z"/>
    <path class="cls-3" d="M81.71,67.59v.8c.14.06.27.13.4.21v-1.28c-.13.1-.26.19-.4.28Z"/>
    <path class="cls-3" d="M64.12,101.04l7.29-6.41c-.02-.15-.04-.3-.05-.45l-7.58,6.67-.06.05v12.57l-4.31,3.84h.56s4.15-3.69,4.15-3.69v-12.57Z"/>
    <path class="cls-3" d="M63.02,28.18c0,.44.4.79.9.79s.9-.35.9-.79-.4-.79-.9-.79c-.18,0-.34.05-.48.12l-6.14-5.4c-.13.05-.26.1-.39.15l6.25,5.5c-.09.12-.14.27-.14.42ZM63.57,27.87s0,0,0,0c0,0,0,0,0,0,.09-.08.22-.13.35-.13.28,0,.5.2.5.44s-.22.44-.5.44-.5-.2-.5-.44c0-.12.06-.23.15-.31Z"/>
    <path class="cls-3" d="M114.2,110.64h3.88v-8.9c.4-.08.7-.4.7-.77,0-.44-.4-.79-.9-.79s-.9.35-.9.79c0,.38.3.69.7.77v8.55h-3.31l-3.6-3.16h-10.68v-5.38c.4-.08.7-.4.7-.77,0-.44-.4-.79-.9-.79s-.9.35-.9.79c0,.38.3.69.7.77v5.73h10.91l3.6,3.16ZM117.38,100.97c0-.24.22-.44.5-.44s.5.2.5.44-.22.44-.5.44-.5-.2-.5-.44ZM99.9,101.41s0,0,0,0c-.28,0-.5-.2-.5-.44s.22-.44.5-.44.5.2.5.44-.22.44-.5.44c0,0,0,0,0,0Z"/>
    <path class="cls-3" d="M121.48,87.52c-.5,0-.9.35-.9.79,0,.15.05.3.14.42l-3.04,2.67v5.63c-.4.08-.7.4-.7.77,0,.44.4.79.9.79s.9-.35.9-.79c0-.38-.3-.69-.7-.77v-5.49l2.92-2.57c.14.08.3.12.48.12.5,0,.9-.35.9-.79s-.4-.79-.9-.79ZM118.38,97.81c0,.24-.22.44-.5.44s-.5-.2-.5-.44.22-.44.5-.44.5.2.5.44ZM121.48,88.75c-.28,0-.5-.2-.5-.44s.22-.44.5-.44.5.2.5.44-.22.44-.5.44Z"/>
    <path class="cls-3" d="M121.48,90.69c-.5,0-.9.35-.9.79,0,.38.3.69.7.77v21.21h-6.12c-.09-.35-.45-.62-.88-.62-.5,0-.9.35-.9.79s.4.79.9.79c.43,0,.78-.26.88-.62h6.52v-21.56c.4-.08.7-.4.7-.77,0-.44-.4-.79-.9-.79ZM114.79,113.63c0,.24-.22.44-.5.44s-.5-.2-.5-.44.22-.44.5-.44.5.2.5.44c0,0,0,0,0,0,0,0,0,0,0,0ZM121.48,91.92c-.28,0-.5-.2-.5-.44s.22-.44.5-.44.5.2.5.44-.22.44-.5.44Z"/>
    <path class="cls-3" d="M85.7,53.43l-3.6-3.16v-22.15l-3.04-2.67c.09-.12.14-.27.14-.42,0-.44-.4-.79-.9-.79s-.9.35-.9.79.4.79.9.79c.18,0,.34-.05.48-.12l2.92,2.57v22.15l3.6,3.16v4.02c.13-.1.26-.2.4-.3v-3.87ZM78.31,25.46c-.28,0-.5-.2-.5-.44s.22-.44.5-.44.5.2.5.44-.22.44-.5.44Z"/>
    <path class="cls-3" d="M77.41,34.51c0,.44.4.79.9.79s.9-.35.9-.79c0-.38-.3-.69-.7-.77v-4.79c.4-.08.7-.4.7-.77,0-.44-.4-.79-.9-.79s-.9.35-.9.79c0,.38.3.69.7.77v4.79c-.4.08-.7.4-.7.77ZM77.81,28.18c0-.24.22-.44.5-.44s.5.2.5.44-.22.44-.5.44-.5-.2-.5-.44ZM78.31,34.07c.28,0,.5.2.5.44s-.22.44-.5.44-.5-.2-.5-.44.22-.44.5-.44Z"/>
    <path class="cls-3" d="M49.53,44.8c.5,0,.9-.35.9-.79,0-.15-.05-.3-.14-.42l2.92-2.57h3.71v-6.58l-6.63-5.84c.09-.12.14-.27.14-.42,0-.44-.4-.79-.9-.79s-.9.35-.9.79.4.79.9.79c.18,0,.34-.05.48-.12l6.52,5.73v6.08h-3.48l-3.04,2.67c-.14-.08-.3-.12-.48-.12-.5,0-.9.35-.9.79s.4.79.9.79ZM49.53,28.62c-.28,0-.5-.2-.5-.44s.22-.44.5-.44.5.2.5.44-.22.44-.5.44ZM49.53,43.57c.28,0,.5.2.5.44s-.22.44-.5.44-.5-.2-.5-.44.22-.44.5-.44Z"/>
    <path class="cls-3" d="M81.91,56.23c.28,0,.5.2.5.44,0,.11-.05.22-.13.29.1.08.2.16.29.24.15-.14.24-.33.24-.54,0-.44-.4-.79-.9-.79-.18,0-.34.05-.48.12l-2.92-2.57v-5.49c.4-.08.7-.4.7-.77,0-.44-.4-.79-.9-.79s-.9.35-.9.79c0,.38.3.69.7.77v5.63l3.04,2.67s0,0,0,0c.12.06.23.12.35.18.09-.12.24-.21.42-.21ZM77.81,47.17c0-.24.22-.44.5-.44s.5.2.5.44-.22.44-.5.44-.5-.2-.5-.44Z"/>
    <path class="cls-3" d="M121.48,40.05c-.18,0-.34.05-.48.12l-3.04-2.67h-7.08v-5.38c.4-.08.7-.4.7-.77,0-.44-.4-.79-.9-.79s-.9.35-.9.79c0,.38.3.69.7.77v5.73h7.31l2.92,2.57c-.09.12-.14.27-.14.42,0,.44.4.79.9.79s.9-.35.9-.79-.4-.79-.9-.79ZM110.19,31.35c0-.24.22-.44.5-.44s.5.2.5.44-.22.44-.5.44-.5-.2-.5-.44ZM121.48,41.28c-.28,0-.5-.2-.5-.44s.22-.44.5-.44.5.2.5.44-.22.44-.5.44Z"/>
    <path class="cls-3" d="M91.94,87.89c-.09.12-.14.27-.14.42,0,.44.4.79.9.79s.9-.35.9-.79-.4-.79-.9-.79c-.18,0-.34.05-.48.12l-2.92-2.57v-15.19h-.12c-.09,0-.19,0-.28-.01v15.35l3.04,2.67ZM92.7,87.87c.28,0,.5.2.5.44s-.22.44-.5.44-.5-.2-.5-.44.22-.44.5-.44Z"/>
    <path class="cls-3" d="M68.42,110.47c0-.38-.3-.69-.7-.77v-8.65l2.92-2.57c.14.08.3.12.48.12.5,0,.9-.35.9-.79s-.4-.79-.9-.79-.9.35-.9.79c0,.15.05.3.14.42l-3.04,2.67v8.8c-.4.08-.7.4-.7.77,0,.44.4.79.9.79s.9-.35.9-.79ZM71.11,97.37c.28,0,.5.2.5.44s-.22.44-.5.44-.5-.2-.5-.44.22-.44.5-.44ZM67.02,110.47c0-.24.22-.44.5-.44s.5.2.5.44-.22.44-.5.44-.5-.2-.5-.44Z"/>
    <path class="cls-3" d="M78.51,116.72v-9.6h-6.52c-.09-.35-.45-.62-.88-.62-.5,0-.9.35-.9.79s.4.79.9.79c.43,0,.79-.26.88-.62h6.12v9.39l.33.14h.57s-.5-.28-.5-.28ZM71.11,107.74c-.28,0-.5-.2-.5-.44s.22-.44.5-.44.5.2.5.44-.22.44-.5.44Z"/>
    <path class="cls-3" d="M71.31,113.81h2.52c.09.35.45.62.88.62.5,0,.9-.35.9-.79s-.4-.79-.9-.79c-.43,0-.78.26-.88.62h-2.92s.02,3.05.02,3.05h.4s-.02-2.7-.02-2.7ZM74.71,113.19c.28,0,.5.2.5.44s-.22.44-.5.44-.5-.2-.5-.44.22-.44.5-.44Z"/>
    <path class="cls-3" d="M57.43,56.18c-.16-.18-.42-.3-.7-.3s-.54.12-.7.31c.13,0,.27,0,.4,0h1Z"/>
    <path class="cls-3" d="M70.91,69.4v6.18l-3.2,2.81v-8.3c.37-.07.65-.35.69-.69-.14.02-.28.05-.42.06-.07.17-.25.3-.47.3-.2,0-.37-.1-.45-.25-.14,0-.28,0-.42,0,.08.29.34.51.67.58v9.15l4-3.52v-6.48l-.77-.68c-.11.07-.22.14-.34.2l.71.62Z"/>
    <path class="cls-3" d="M128.88,88.24l-3.04-2.67c.09-.12.14-.27.14-.42,0-.44-.4-.79-.9-.79s-.9.35-.9.79.4.79.9.79c.18,0,.34-.05.48-.12l2.92,2.57v9.49l2.57,2.26c.05-.12.1-.25.15-.37l-2.32-2.04v-9.49ZM125.08,85.59c-.28,0-.5-.2-.5-.44s.22-.44.5-.44.5.2.5.44-.22.44-.5.44Z"/>
    <path class="cls-3" d="M96.5,116.87l3.6-3.16v-2.47c.4-.08.7-.4.7-.77,0-.44-.4-.79-.9-.79s-.9.35-.9.79c0,.38.3.69.7.77v2.32l-3.6,3.16v1h.4s0-.86,0-.86ZM99.4,110.47c0-.24.22-.44.5-.44s.5.2.5.44-.22.44-.5.44c0,0,0,0,0,0,0,0,0,0,0,0-.28,0-.5-.2-.5-.44Z"/>
    <path class="cls-3" d="M120.6,116.62h-6.4l-7.2,6.33h-2.64c-.09-.35-.45-.62-.88-.62-.5,0-.9.35-.9.79s.4.79.9.79c.43,0,.78-.26.88-.62h2.8l7.2-6.33h6.24c.02.09.06.17.11.24.09-.11.19-.22.28-.33,0-.03-.02-.06-.02-.09,0-.23.2-.41.46-.43.09-.11.18-.22.27-.33-.07-.02-.15-.03-.23-.03-.43,0-.78.26-.88.62ZM103.49,123.56c-.28,0-.5-.2-.5-.44s.22-.44.5-.44.5.2.5.44-.22.44-.5.44Z"/>
    <path class="cls-3" d="M42.48,123.24s.01-.01.02-.02c0,0,0-.01.01-.02,0,0,0,0,0-.01,0,0,0-.01,0-.02,0,0,0,0,0-.01,0-.01,0-.02,0-.03v-19.06l-3.6-3.16v-1.82c-.13,0-.26.01-.4.01v1.95l3.6,3.16v18.84l-1.05.92c.1.08.19.16.29.24l1.1-.96s0,0,0,0Z"/>
    <path class="cls-3" d="M95.4,91.48c0,.44.4.79.9.79.02,0,.05,0,.07,0,0-.12,0-.24,0-.36-.02,0-.05.01-.07.01-.28,0-.5-.2-.5-.44s.22-.44.5-.44c.02,0,.05,0,.07.01,0-.12,0-.24,0-.36-.02,0-.05,0-.07,0-.5,0-.9.35-.9.79Z"/>
    <path class="cls-3" d="M96.1,100.9v12.66l-11.07,9.76v.5s11.41-10.06,11.41-10.06l.06-.05v-12.66l3.1-2.72c-.12-.06-.24-.12-.35-.19l-3.15,2.77Z"/>
    <path class="cls-3" d="M125.03,102.29c.05-.14.07-.29.03-.44-.11-.42-.59-.66-1.07-.53-.48.13-.78.58-.66,1,.11.42.59.66,1.07.53.17-.05.32-.13.43-.24l3.49,1.72.31,1.16c.09-.18.18-.35.27-.53l-.24-.88-3.63-1.79ZM124.3,102.51c-.27.07-.53-.06-.6-.3s.1-.48.37-.55c.27-.07.53.06.6.3s-.1.48-.37.55Z"/>
    <path class="cls-3" d="M93.33,69.89c-.42,0-.84,0-1.26,0,.16.14.39.23.63.23s.46-.09.63-.23Z"/>
    <path class="cls-3" d="M92.5,75.58v8.8c-.4.08-.7.4-.7.77,0,.44.4.79.9.79s.9-.35.9-.79c0-.38-.3-.69-.7-.77v-8.65s3.46-3.05,3.46-3.05c0-.93,0-1.87,0-2.8-.09,0-.18,0-.27,0v2.54l-3.6,3.16ZM93.2,85.15c0,.24-.22.44-.5.44s-.5-.2-.5-.44.22-.44.5-.44c0,0,0,0,0,0s0,0,0,0c.28,0,.5.2.5.44Z"/>
    <path class="cls-3" d="M49.73,53.43l-3.6-3.16v-3.16l-3.71-3.27h-6.4c-.09-.35-.45-.62-.88-.62-.5,0-.9.35-.9.79s.4.79.9.79c.43,0,.78-.26.88-.62h6.24l3.48,3.06v3.16l3.6,3.16v2.61c.13,0,.27,0,.4,0v-2.76ZM35.14,44.45c-.28,0-.5-.2-.5-.44s.22-.44.5-.44.5.2.5.44-.22.44-.5.44Z"/>
    <path class="cls-3" d="M27.74,81.91v21.45c-.4.08-.7.4-.7.77,0,.44.4.79.9.79s.9-.35.9-.79c0-.38-.3-.69-.7-.77v-21.31l3.71-3.29c0-.17,0-.33,0-.5l-4.11,3.64ZM28.44,104.14c0,.24-.22.44-.5.44s-.5-.2-.5-.44.22-.44.5-.44.5.2.5.44Z"/>
    <path class="cls-3" d="M132.07,78.05c-.4.08-.7.4-.7.77,0,.44.4.79.9.79s.9-.35.9-.79c0-.38-.3-.69-.7-.77v-8.74s1.96-1.67,1.96-1.67c-.02-.14-.05-.29-.07-.43l-2.28,1.95v8.89ZM132.77,78.82c0,.24-.22.44-.5.44s-.5-.2-.5-.44.22-.44.5-.44.5.2.5.44Z"/>
    <path class="cls-5" d="M67.52,68.89c-.28,0-.5.2-.5.44,0,.07.02.13.05.19.05,0,.09,0,.14,0,.27,0,.52-.02.78-.05.02-.04.03-.09.03-.14,0-.24-.22-.44-.5-.44Z"/>
    <path class="cls-5" d="M85.11,88.56c0-.17,0-.33,0-.5-.06.07-.1.16-.1.25s.04.18.1.25Z"/>
    <path class="cls-5" d="M57.22,69.32c0-.24-.22-.44-.5-.44s-.5.2-.5.44c0,.07.03.14.06.2.29,0,.58,0,.87,0,.04-.06.06-.13.06-.2Z"/>
    <path class="cls-5" d="M85.01,88.31c0-.1.04-.18.1-.25,0-.15,0-.3,0-.45-.3.13-.5.4-.5.71s.2.58.5.71c0-.15,0-.3,0-.45-.06-.07-.1-.16-.1-.25Z"/>
    <path class="cls-5" d="M56.72,68.53c-.5,0-.9.35-.9.79,0,.07.01.14.03.2.14,0,.29,0,.43,0-.04-.06-.06-.13-.06-.2,0-.24.22-.44.5-.44s.5.2.5.44c0,.07-.03.14-.06.2.14,0,.29,0,.43,0,.02-.07.03-.13.03-.2,0-.44-.4-.79-.9-.79Z"/>
    <path class="cls-5" d="M85.5,68.53c-.06,0-.12,0-.18.02.33.26.68.49,1.07.69-.05-.39-.43-.7-.89-.7Z"/>
    <path class="cls-5" d="M67.02,69.32c0-.24.22-.44.5-.44s.5.2.5.44c0,.05-.01.1-.03.14.14-.02.29-.04.42-.06,0-.03,0-.05,0-.08,0-.44-.4-.79-.9-.79s-.9.35-.9.79c0,.07.01.13.03.19.14,0,.28,0,.42,0-.03-.06-.05-.12-.05-.19Z"/>
  </g>
</svg>