%TF.GenerationSoftware,KiCad,Pcbnew,8.0.2-1*%
%TF.CreationDate,2024-09-20T10:56:36-06:00*%
%TF.ProjectId,FIT-Basic,4649542d-4261-4736-9963-2e6b69636164,rev?*%
%TF.SameCoordinates,Original*%
%TF.FileFunction,Copper,L2,Bot*%
%TF.FilePolarity,Positive*%
%FSLAX46Y46*%
G04 Gerber Fmt 4.6, Leading zero omitted, Abs format (unit mm)*
G04 Created by KiCad (PCBNEW 8.0.2-1) date 2024-09-20 10:56:36*
%MOMM*%
%LPD*%
G01*
G04 APERTURE LIST*
G04 Aperture macros list*
%AMHorizOval*
0 Thick line with rounded ends*
0 $1 width*
0 $2 $3 position (X,Y) of the first rounded end (center of the circle)*
0 $4 $5 position (X,Y) of the second rounded end (center of the circle)*
0 Add line between two ends*
20,1,$1,$2,$3,$4,$5,0*
0 Add two circle primitives to create the rounded ends*
1,1,$1,$2,$3*
1,1,$1,$4,$5*%
G04 Aperture macros list end*
%TA.AperFunction,SMDPad,CuDef*%
%ADD10R,6.100000X7.100000*%
%TD*%
%TA.AperFunction,SMDPad,CuDef*%
%ADD11C,17.800000*%
%TD*%
%TA.AperFunction,ComponentPad*%
%ADD12C,2.700000*%
%TD*%
%TA.AperFunction,ComponentPad*%
%ADD13C,1.800000*%
%TD*%
%TA.AperFunction,ComponentPad*%
%ADD14R,1.800000X1.800000*%
%TD*%
%TA.AperFunction,ComponentPad*%
%ADD15HorizOval,1.208000X-0.141421X0.141421X0.141421X-0.141421X0*%
%TD*%
%TA.AperFunction,Conductor*%
%ADD16C,1.000000*%
%TD*%
G04 APERTURE END LIST*
D10*
%TO.P,REF\u002A\u002A,1*%
%TO.N,+3V0*%
X196400000Y-61576244D03*
X225000000Y-61576244D03*
D11*
%TO.P,REF\u002A\u002A,2*%
%TO.N,GNDREF*%
X210200000Y-61576244D03*
%TD*%
D12*
%TO.P,,2,A*%
%TO.N,N/C*%
X210700000Y-42300000D03*
%TD*%
D13*
%TO.P,D1,2,A*%
%TO.N,/diode_flag*%
X191800000Y-62700000D03*
D14*
%TO.P,D1,1,K*%
%TO.N,GNDREF*%
X191800000Y-60160000D03*
%TD*%
D13*
%TO.P,D2,2,A*%
%TO.N,/diode_flag*%
X229500000Y-62700000D03*
D14*
%TO.P,D2,1,K*%
%TO.N,GNDREF*%
X229500000Y-60160000D03*
%TD*%
D15*
%TO.P,REF\u002A\u002A,1*%
%TO.N,+3V0*%
X224900000Y-73400000D03*
%TO.P,REF\u002A\u002A,2*%
%TO.N,/diode_flag*%
X223485789Y-74814213D03*
%TO.P,REF\u002A\u002A,3*%
%TO.N,N/C*%
X222071578Y-76228426D03*
%TD*%
D16*
%TO.N,/diode_flag*%
X223485789Y-74814213D02*
X223671576Y-75000000D01*
X223671576Y-75000000D02*
X226600000Y-75000000D01*
X226600000Y-75000000D02*
X229500000Y-72100000D01*
X229500000Y-72100000D02*
X229500000Y-62700000D01*
%TO.N,+3V0*%
X196400000Y-61576244D02*
X196400000Y-69100000D01*
X200200000Y-72900000D02*
X224400000Y-72900000D01*
X196400000Y-69100000D02*
X200200000Y-72900000D01*
X224400000Y-72900000D02*
X224900000Y-73400000D01*
%TO.N,/diode_flag*%
X191800000Y-62700000D02*
X191800000Y-67400000D01*
X198700000Y-74300000D02*
X222971576Y-74300000D01*
X191800000Y-67400000D02*
X198700000Y-74300000D01*
X222971576Y-74300000D02*
X223485789Y-74814213D01*
%TO.N,+3V0*%
X224900000Y-73400000D02*
X224900000Y-61676244D01*
X224900000Y-61676244D02*
X225000000Y-61576244D01*
%TD*%
%TA.AperFunction,Conductor*%
%TO.N,GNDREF*%
G36*
X211408956Y-38808724D02*
G01*
X211414150Y-38808888D01*
X212356518Y-38858607D01*
X212361660Y-38858988D01*
X213301069Y-38948389D01*
X213306229Y-38948990D01*
X214241029Y-39077912D01*
X214246128Y-39078725D01*
X215174683Y-39246943D01*
X215179753Y-39247972D01*
X216100390Y-39455186D01*
X216105439Y-39456435D01*
X217016489Y-39702266D01*
X217021455Y-39703719D01*
X217921375Y-39987753D01*
X217926270Y-39989413D01*
X218813380Y-40311118D01*
X218818198Y-40312980D01*
X219691014Y-40671821D01*
X219695755Y-40673888D01*
X220552609Y-41069177D01*
X220557278Y-41071451D01*
X220996490Y-41296994D01*
X221396695Y-41502506D01*
X221401295Y-41504992D01*
X222221769Y-41971035D01*
X222226260Y-41973712D01*
X223026411Y-42473962D01*
X223030739Y-42476797D01*
X223809074Y-43010323D01*
X223813299Y-43013352D01*
X224183488Y-43290749D01*
X224568444Y-43579211D01*
X224572561Y-43582434D01*
X225303160Y-44179609D01*
X225307138Y-44183003D01*
X225513615Y-44366824D01*
X226011927Y-44810458D01*
X226015726Y-44813986D01*
X226413161Y-45199046D01*
X226693456Y-45470614D01*
X226697133Y-45474331D01*
X227346530Y-46158894D01*
X227350048Y-46162762D01*
X227970039Y-46874128D01*
X227973390Y-46878141D01*
X228562821Y-47614982D01*
X228566001Y-47619133D01*
X229123865Y-48380198D01*
X229126860Y-48384471D01*
X229387634Y-48773635D01*
X229652137Y-49168364D01*
X229654956Y-49172769D01*
X230146713Y-49978101D01*
X230149343Y-49982619D01*
X230606725Y-50807985D01*
X230609162Y-50812611D01*
X231031331Y-51656502D01*
X231033569Y-51661222D01*
X231419795Y-52522177D01*
X231421834Y-52526992D01*
X231771409Y-53403434D01*
X231773244Y-53408330D01*
X232085576Y-54298772D01*
X232087202Y-54303741D01*
X232361715Y-55206544D01*
X232363130Y-55211578D01*
X232599332Y-56125127D01*
X232600534Y-56130215D01*
X232798022Y-57052941D01*
X232799008Y-57058076D01*
X232957416Y-57988284D01*
X232958185Y-57993456D01*
X233077241Y-58929529D01*
X233077791Y-58934728D01*
X233157278Y-59874969D01*
X233157609Y-59880188D01*
X233197403Y-60823308D01*
X233197511Y-60827881D01*
X233199996Y-61299346D01*
X233199996Y-61300654D01*
X233197511Y-61772118D01*
X233197403Y-61776691D01*
X233157609Y-62719811D01*
X233157278Y-62725030D01*
X233077791Y-63665271D01*
X233077241Y-63670470D01*
X232958185Y-64606543D01*
X232957416Y-64611715D01*
X232799008Y-65541923D01*
X232798022Y-65547058D01*
X232600534Y-66469784D01*
X232599332Y-66474872D01*
X232363130Y-67388421D01*
X232361715Y-67393455D01*
X232087202Y-68296258D01*
X232085576Y-68301227D01*
X231773244Y-69191669D01*
X231771409Y-69196565D01*
X231421834Y-70073007D01*
X231419795Y-70077822D01*
X231033571Y-70938773D01*
X231031331Y-70943497D01*
X230735397Y-71535052D01*
X230687799Y-71586201D01*
X230620104Y-71603496D01*
X230553804Y-71581447D01*
X230509950Y-71527054D01*
X230500500Y-71479574D01*
X230500500Y-65548769D01*
X231498500Y-65548769D01*
X231777053Y-65548769D01*
X231818267Y-65356202D01*
X231970486Y-64462336D01*
X232023341Y-64046769D01*
X231498500Y-64046769D01*
X231498500Y-65548769D01*
X230500500Y-65548769D01*
X230500500Y-63729377D01*
X230520185Y-63662338D01*
X230533264Y-63645401D01*
X230608979Y-63563153D01*
X230735924Y-63368849D01*
X230829157Y-63156300D01*
X230886134Y-62931305D01*
X230903226Y-62725030D01*
X230905300Y-62700006D01*
X230905300Y-62699993D01*
X230886135Y-62468702D01*
X230886133Y-62468691D01*
X230829157Y-62243699D01*
X230735924Y-62031151D01*
X230608981Y-61836849D01*
X230560328Y-61783997D01*
X231717301Y-61783997D01*
X231751384Y-61861697D01*
X231753345Y-61866430D01*
X231764613Y-61895306D01*
X231766376Y-61900117D01*
X231779776Y-61939146D01*
X231781340Y-61944026D01*
X231790191Y-61973752D01*
X231791553Y-61978698D01*
X231858663Y-62243707D01*
X231859819Y-62248705D01*
X231866184Y-62279067D01*
X231867131Y-62284103D01*
X231873922Y-62324806D01*
X231874661Y-62329877D01*
X231878494Y-62360632D01*
X231879022Y-62365727D01*
X231901595Y-62638148D01*
X231901913Y-62643265D01*
X231903194Y-62674245D01*
X231903300Y-62679368D01*
X231903300Y-62720632D01*
X231903194Y-62725755D01*
X231901913Y-62756735D01*
X231901595Y-62761852D01*
X231879022Y-63034273D01*
X231878494Y-63039368D01*
X231877322Y-63048769D01*
X232128350Y-63048769D01*
X232161271Y-62659335D01*
X232199609Y-61750736D01*
X232200685Y-61546769D01*
X231817251Y-61546769D01*
X231765970Y-61684261D01*
X231762581Y-61692441D01*
X231740323Y-61741177D01*
X231736362Y-61749091D01*
X231717301Y-61783997D01*
X230560328Y-61783997D01*
X230513832Y-61733489D01*
X230482910Y-61670835D01*
X230490770Y-61601409D01*
X230534918Y-61547253D01*
X230561730Y-61533325D01*
X230642084Y-61503355D01*
X230642093Y-61503350D01*
X230757187Y-61417190D01*
X230757190Y-61417187D01*
X230843350Y-61302093D01*
X230843354Y-61302086D01*
X230893596Y-61167379D01*
X230893598Y-61167372D01*
X230899999Y-61107844D01*
X230900000Y-61107827D01*
X230900000Y-60410000D01*
X229875278Y-60410000D01*
X229919333Y-60333694D01*
X229950000Y-60219244D01*
X229950000Y-60100756D01*
X229919333Y-59986306D01*
X229875278Y-59910000D01*
X230900000Y-59910000D01*
X230900000Y-59212172D01*
X230899999Y-59212155D01*
X230893598Y-59152627D01*
X230893596Y-59152620D01*
X230843354Y-59017913D01*
X230843350Y-59017906D01*
X230757190Y-58902812D01*
X230757187Y-58902809D01*
X230642093Y-58816649D01*
X230642086Y-58816645D01*
X230507379Y-58766403D01*
X230507372Y-58766401D01*
X230447844Y-58760000D01*
X229750000Y-58760000D01*
X229750000Y-59784722D01*
X229673694Y-59740667D01*
X229559244Y-59710000D01*
X229440756Y-59710000D01*
X229326306Y-59740667D01*
X229250000Y-59784722D01*
X229250000Y-58760000D01*
X228674499Y-58760000D01*
X228607460Y-58740315D01*
X228561705Y-58687511D01*
X228550499Y-58636000D01*
X228550499Y-57978373D01*
X228550498Y-57978367D01*
X228550497Y-57978360D01*
X228544615Y-57923638D01*
X228544091Y-57918760D01*
X228523914Y-57864663D01*
X230945526Y-57864663D01*
X231024261Y-57894030D01*
X231032441Y-57897419D01*
X231081177Y-57919677D01*
X231089091Y-57923638D01*
X231151681Y-57957815D01*
X231159295Y-57962333D01*
X231204362Y-57991297D01*
X231211632Y-57996345D01*
X231281661Y-58048769D01*
X231955349Y-58048769D01*
X231818268Y-57243800D01*
X231669085Y-56546769D01*
X230945526Y-56546769D01*
X230945526Y-57864663D01*
X228523914Y-57864663D01*
X228493797Y-57783915D01*
X228493793Y-57783908D01*
X228407547Y-57668699D01*
X228407544Y-57668696D01*
X228292335Y-57582450D01*
X228292328Y-57582446D01*
X228157482Y-57532152D01*
X228157483Y-57532152D01*
X228097883Y-57525745D01*
X228097881Y-57525744D01*
X228097873Y-57525744D01*
X228097864Y-57525744D01*
X221902129Y-57525744D01*
X221902123Y-57525745D01*
X221842516Y-57532152D01*
X221707671Y-57582446D01*
X221707664Y-57582450D01*
X221592455Y-57668696D01*
X221592452Y-57668699D01*
X221506206Y-57783908D01*
X221506202Y-57783915D01*
X221455908Y-57918761D01*
X221451710Y-57957815D01*
X221449501Y-57978367D01*
X221449500Y-57978379D01*
X221449500Y-65174114D01*
X221449501Y-65174120D01*
X221455908Y-65233727D01*
X221506202Y-65368572D01*
X221506206Y-65368579D01*
X221592452Y-65483788D01*
X221592455Y-65483791D01*
X221707664Y-65570037D01*
X221707671Y-65570041D01*
X221842517Y-65620335D01*
X221842516Y-65620335D01*
X221849444Y-65621079D01*
X221902127Y-65626744D01*
X223775500Y-65626743D01*
X223842539Y-65646428D01*
X223888294Y-65699231D01*
X223899500Y-65750743D01*
X223899500Y-71775500D01*
X223879815Y-71842539D01*
X223827011Y-71888294D01*
X223775500Y-71899500D01*
X200665783Y-71899500D01*
X200598744Y-71879815D01*
X200578102Y-71863181D01*
X199263690Y-70548769D01*
X200945526Y-70548769D01*
X202447526Y-70548769D01*
X203445526Y-70548769D01*
X204938342Y-70548769D01*
X204435648Y-70236175D01*
X204432224Y-70233967D01*
X204408442Y-70218072D01*
X204405119Y-70215772D01*
X203881640Y-69840652D01*
X203878383Y-69838237D01*
X203855690Y-69820825D01*
X203852509Y-69818300D01*
X203445526Y-69484295D01*
X203445526Y-70548769D01*
X202447526Y-70548769D01*
X202447526Y-69046769D01*
X200945526Y-69046769D01*
X200945526Y-70548769D01*
X199263690Y-70548769D01*
X197436819Y-68721898D01*
X197403334Y-68660575D01*
X197400500Y-68634217D01*
X197400500Y-68397598D01*
X203732198Y-68397598D01*
X203998818Y-68647314D01*
X203998838Y-68647331D01*
X204474577Y-69037761D01*
X204474576Y-69037761D01*
X204974844Y-69396248D01*
X204974854Y-69396254D01*
X205497473Y-69721239D01*
X205497495Y-69721252D01*
X206040240Y-70011354D01*
X206040267Y-70011367D01*
X206600844Y-70265362D01*
X206600867Y-70265371D01*
X207176840Y-70482152D01*
X207176855Y-70482157D01*
X207765790Y-70660808D01*
X207765798Y-70660811D01*
X208365171Y-70800565D01*
X208972401Y-70900819D01*
X209584869Y-70961142D01*
X210200000Y-70981279D01*
X210815130Y-70961142D01*
X211427598Y-70900819D01*
X212034828Y-70800565D01*
X212634201Y-70660811D01*
X212634209Y-70660808D01*
X213223144Y-70482157D01*
X213223159Y-70482152D01*
X213799132Y-70265371D01*
X213799155Y-70265362D01*
X213837734Y-70247882D01*
X215945526Y-70247882D01*
X215945526Y-70548769D01*
X217447526Y-70548769D01*
X218445526Y-70548769D01*
X219947526Y-70548769D01*
X220945526Y-70548769D01*
X222447526Y-70548769D01*
X222447526Y-69046769D01*
X220945526Y-69046769D01*
X220945526Y-70548769D01*
X219947526Y-70548769D01*
X219947526Y-69046769D01*
X218445526Y-69046769D01*
X218445526Y-70548769D01*
X217447526Y-70548769D01*
X217447526Y-69046769D01*
X217434623Y-69046769D01*
X217072974Y-69385489D01*
X217069972Y-69388211D01*
X217048468Y-69407071D01*
X217045370Y-69409699D01*
X216547491Y-69818300D01*
X216544310Y-69820825D01*
X216521617Y-69838237D01*
X216518360Y-69840652D01*
X215994881Y-70215772D01*
X215991558Y-70218072D01*
X215967776Y-70233967D01*
X215964352Y-70236176D01*
X215945526Y-70247882D01*
X213837734Y-70247882D01*
X214359732Y-70011367D01*
X214359759Y-70011354D01*
X214902504Y-69721252D01*
X214902526Y-69721239D01*
X215425145Y-69396254D01*
X215425155Y-69396248D01*
X215925422Y-69037761D01*
X216401161Y-68647331D01*
X216401181Y-68647314D01*
X216667800Y-68397598D01*
X216667801Y-68397598D01*
X210200000Y-61929797D01*
X203732198Y-68397598D01*
X197400500Y-68397598D01*
X197400500Y-66624743D01*
X198445526Y-66624743D01*
X198445526Y-68048769D01*
X199947526Y-68048769D01*
X200945526Y-68048769D01*
X202060557Y-68048769D01*
X201957944Y-67923735D01*
X201955419Y-67920554D01*
X201938007Y-67897861D01*
X201935592Y-67894604D01*
X201560472Y-67371125D01*
X201558172Y-67367802D01*
X201542277Y-67344020D01*
X201540069Y-67340596D01*
X201199951Y-66793640D01*
X201197867Y-66790163D01*
X201183565Y-66765393D01*
X201181592Y-66761843D01*
X201066633Y-66546769D01*
X200945526Y-66546769D01*
X200945526Y-68048769D01*
X199947526Y-68048769D01*
X199947526Y-66546769D01*
X199929419Y-66546769D01*
X199877018Y-66566313D01*
X199869679Y-66568792D01*
X199824828Y-66582397D01*
X199817352Y-66584412D01*
X199756637Y-66598760D01*
X199749045Y-66600305D01*
X199702840Y-66608216D01*
X199695167Y-66609285D01*
X199591244Y-66620456D01*
X199587939Y-66620766D01*
X199567899Y-66622379D01*
X199564578Y-66622602D01*
X199537895Y-66624030D01*
X199534582Y-66624163D01*
X199514534Y-66624699D01*
X199511220Y-66624743D01*
X198445526Y-66624743D01*
X197400500Y-66624743D01*
X197400500Y-65750743D01*
X197420185Y-65683704D01*
X197472989Y-65637949D01*
X197524500Y-65626743D01*
X199497871Y-65626743D01*
X199497872Y-65626743D01*
X199557483Y-65620335D01*
X199692331Y-65570040D01*
X199807546Y-65483790D01*
X199893796Y-65368575D01*
X199944091Y-65233727D01*
X199950500Y-65174117D01*
X199950499Y-61576244D01*
X200794964Y-61576244D01*
X200815101Y-62191374D01*
X200875424Y-62803842D01*
X200975678Y-63411072D01*
X201115432Y-64010445D01*
X201115435Y-64010453D01*
X201294086Y-64599388D01*
X201294091Y-64599403D01*
X201510872Y-65175376D01*
X201510881Y-65175399D01*
X201764876Y-65735976D01*
X201764889Y-65736003D01*
X202054991Y-66278748D01*
X202055004Y-66278770D01*
X202379989Y-66801389D01*
X202379995Y-66801399D01*
X202738482Y-67301666D01*
X203128912Y-67777405D01*
X203128929Y-67777425D01*
X203378645Y-68044045D01*
X209846447Y-61576244D01*
X209846447Y-61576243D01*
X210553553Y-61576243D01*
X210553553Y-61576244D01*
X217021353Y-68044045D01*
X217021354Y-68044044D01*
X217138169Y-67919322D01*
X218445526Y-67919322D01*
X218445526Y-68048769D01*
X219947526Y-68048769D01*
X220945526Y-68048769D01*
X222447526Y-68048769D01*
X222447526Y-66624743D01*
X221888752Y-66624744D01*
X221885428Y-66624699D01*
X221865326Y-66624160D01*
X221862006Y-66624027D01*
X221835320Y-66622595D01*
X221832011Y-66622373D01*
X221812018Y-66620763D01*
X221808715Y-66620452D01*
X221704825Y-66609282D01*
X221697157Y-66608215D01*
X221650971Y-66600308D01*
X221643381Y-66598763D01*
X221582670Y-66584418D01*
X221575191Y-66582402D01*
X221530328Y-66568794D01*
X221522989Y-66566315D01*
X221470583Y-66546769D01*
X220945526Y-66546769D01*
X220945526Y-68048769D01*
X219947526Y-68048769D01*
X219947526Y-66546769D01*
X219333367Y-66546769D01*
X219218408Y-66761843D01*
X219216435Y-66765393D01*
X219202133Y-66790163D01*
X219200049Y-66793640D01*
X218859931Y-67340596D01*
X218857723Y-67344020D01*
X218841828Y-67367802D01*
X218839528Y-67371125D01*
X218464408Y-67894604D01*
X218461993Y-67897861D01*
X218445526Y-67919322D01*
X217138169Y-67919322D01*
X217271070Y-67777425D01*
X217271087Y-67777405D01*
X217661517Y-67301666D01*
X218020004Y-66801399D01*
X218020010Y-66801389D01*
X218344995Y-66278770D01*
X218345008Y-66278748D01*
X218635110Y-65736003D01*
X218635123Y-65735976D01*
X218889118Y-65175399D01*
X218889127Y-65175376D01*
X219105908Y-64599403D01*
X219105913Y-64599388D01*
X219284564Y-64010453D01*
X219284567Y-64010445D01*
X219424321Y-63411072D01*
X219524575Y-62803842D01*
X219584898Y-62191374D01*
X219605035Y-61576244D01*
X219584898Y-60961113D01*
X219524575Y-60348645D01*
X219424321Y-59741415D01*
X219284567Y-59142042D01*
X219284564Y-59142034D01*
X219105913Y-58553099D01*
X219105908Y-58553084D01*
X218889127Y-57977111D01*
X218889118Y-57977088D01*
X218635123Y-57416511D01*
X218635110Y-57416484D01*
X218345008Y-56873739D01*
X218344995Y-56873717D01*
X218141686Y-56546769D01*
X219301858Y-56546769D01*
X219522021Y-56958666D01*
X219523876Y-56962277D01*
X219536527Y-56987932D01*
X219538261Y-56991598D01*
X219804061Y-57578230D01*
X219805674Y-57581950D01*
X219816621Y-57608376D01*
X219818113Y-57612153D01*
X219947526Y-57955995D01*
X219947526Y-56576369D01*
X228445526Y-56576369D01*
X228469672Y-56583694D01*
X228477012Y-56586173D01*
X228674502Y-56659831D01*
X228682682Y-56663219D01*
X228731419Y-56685477D01*
X228739333Y-56689439D01*
X228801923Y-56723616D01*
X228809537Y-56728134D01*
X228854604Y-56757098D01*
X228861874Y-56762146D01*
X229034173Y-56891130D01*
X229041064Y-56896683D01*
X229081549Y-56931763D01*
X229088028Y-56937795D01*
X229138449Y-56988216D01*
X229144481Y-56994695D01*
X229179561Y-57035180D01*
X229185114Y-57042071D01*
X229314098Y-57214370D01*
X229319146Y-57221640D01*
X229348110Y-57266707D01*
X229352628Y-57274321D01*
X229386805Y-57336911D01*
X229390767Y-57344825D01*
X229413025Y-57393562D01*
X229416413Y-57401742D01*
X229490069Y-57599226D01*
X229492548Y-57606565D01*
X229506153Y-57651416D01*
X229508168Y-57658892D01*
X229522516Y-57719607D01*
X229524061Y-57727199D01*
X229530659Y-57765738D01*
X229549454Y-57762000D01*
X229947526Y-57762000D01*
X229947526Y-56546769D01*
X228445526Y-56546769D01*
X228445526Y-56576369D01*
X219947526Y-56576369D01*
X219947526Y-56546769D01*
X219301858Y-56546769D01*
X218141686Y-56546769D01*
X218020010Y-56351098D01*
X218020004Y-56351088D01*
X217661517Y-55850821D01*
X217271087Y-55375082D01*
X217271070Y-55375062D01*
X217138169Y-55233165D01*
X218445526Y-55233165D01*
X218461993Y-55254627D01*
X218464408Y-55257884D01*
X218672853Y-55548769D01*
X219947526Y-55548769D01*
X220945526Y-55548769D01*
X222447526Y-55548769D01*
X223445526Y-55548769D01*
X224947526Y-55548769D01*
X225945526Y-55548769D01*
X227447526Y-55548769D01*
X228445526Y-55548769D01*
X229947526Y-55548769D01*
X229947526Y-54046769D01*
X228445526Y-54046769D01*
X228445526Y-55548769D01*
X227447526Y-55548769D01*
X227447526Y-54046769D01*
X225945526Y-54046769D01*
X225945526Y-55548769D01*
X224947526Y-55548769D01*
X224947526Y-54046769D01*
X223445526Y-54046769D01*
X223445526Y-55548769D01*
X222447526Y-55548769D01*
X222447526Y-54046769D01*
X220945526Y-54046769D01*
X220945526Y-55548769D01*
X219947526Y-55548769D01*
X219947526Y-54046769D01*
X218445526Y-54046769D01*
X218445526Y-55233165D01*
X217138169Y-55233165D01*
X217021354Y-55108442D01*
X210553553Y-61576243D01*
X209846447Y-61576243D01*
X203378645Y-55108442D01*
X203128914Y-55375079D01*
X203128912Y-55375082D01*
X202738482Y-55850821D01*
X202379995Y-56351088D01*
X202379989Y-56351098D01*
X202055004Y-56873717D01*
X202054991Y-56873739D01*
X201764889Y-57416484D01*
X201764876Y-57416511D01*
X201510881Y-57977088D01*
X201510872Y-57977111D01*
X201294091Y-58553084D01*
X201294086Y-58553099D01*
X201115435Y-59142034D01*
X201115432Y-59142042D01*
X200975678Y-59741415D01*
X200875424Y-60348645D01*
X200815101Y-60961113D01*
X200794964Y-61576244D01*
X199950499Y-61576244D01*
X199950499Y-57978372D01*
X199944615Y-57923638D01*
X199944091Y-57918760D01*
X199893797Y-57783915D01*
X199893793Y-57783908D01*
X199807547Y-57668699D01*
X199807544Y-57668696D01*
X199692335Y-57582450D01*
X199692328Y-57582446D01*
X199557482Y-57532152D01*
X199557483Y-57532152D01*
X199497883Y-57525745D01*
X199497881Y-57525744D01*
X199497873Y-57525744D01*
X199497864Y-57525744D01*
X193302129Y-57525744D01*
X193302123Y-57525745D01*
X193242516Y-57532152D01*
X193107671Y-57582446D01*
X193107664Y-57582450D01*
X192992455Y-57668696D01*
X192992452Y-57668699D01*
X192906206Y-57783908D01*
X192906202Y-57783915D01*
X192855908Y-57918761D01*
X192851710Y-57957815D01*
X192849501Y-57978367D01*
X192849500Y-57978379D01*
X192849500Y-58636000D01*
X192829815Y-58703039D01*
X192777011Y-58748794D01*
X192725500Y-58760000D01*
X192050000Y-58760000D01*
X192050000Y-59784722D01*
X191973694Y-59740667D01*
X191859244Y-59710000D01*
X191740756Y-59710000D01*
X191626306Y-59740667D01*
X191550000Y-59784722D01*
X191550000Y-58760000D01*
X190852155Y-58760000D01*
X190792627Y-58766401D01*
X190792620Y-58766403D01*
X190657913Y-58816645D01*
X190657906Y-58816649D01*
X190542812Y-58902809D01*
X190542809Y-58902812D01*
X190456649Y-59017906D01*
X190456645Y-59017913D01*
X190406403Y-59152620D01*
X190406401Y-59152627D01*
X190400000Y-59212155D01*
X190400000Y-59910000D01*
X191424722Y-59910000D01*
X191380667Y-59986306D01*
X191350000Y-60100756D01*
X191350000Y-60219244D01*
X191380667Y-60333694D01*
X191424722Y-60410000D01*
X190400000Y-60410000D01*
X190400000Y-61107844D01*
X190406401Y-61167372D01*
X190406403Y-61167379D01*
X190456645Y-61302086D01*
X190456649Y-61302093D01*
X190542809Y-61417187D01*
X190542812Y-61417190D01*
X190657906Y-61503350D01*
X190657913Y-61503354D01*
X190738270Y-61533325D01*
X190794204Y-61575196D01*
X190818621Y-61640660D01*
X190803770Y-61708933D01*
X190786168Y-61733489D01*
X190691021Y-61836847D01*
X190691019Y-61836848D01*
X190691016Y-61836853D01*
X190564075Y-62031151D01*
X190470842Y-62243699D01*
X190413866Y-62468691D01*
X190413864Y-62468702D01*
X190394700Y-62699993D01*
X190394700Y-62700006D01*
X190413864Y-62931297D01*
X190413866Y-62931308D01*
X190470842Y-63156300D01*
X190564075Y-63368848D01*
X190691016Y-63563147D01*
X190691019Y-63563151D01*
X190691021Y-63563153D01*
X190766731Y-63645396D01*
X190797652Y-63708049D01*
X190799500Y-63729377D01*
X190799500Y-67498541D01*
X190799500Y-67498543D01*
X190799499Y-67498543D01*
X190837947Y-67691829D01*
X190837950Y-67691839D01*
X190913364Y-67873907D01*
X190913371Y-67873920D01*
X191022859Y-68037780D01*
X191022860Y-68037781D01*
X191022861Y-68037782D01*
X191162218Y-68177139D01*
X191162219Y-68177139D01*
X191169286Y-68184206D01*
X191169285Y-68184206D01*
X191169289Y-68184209D01*
X198062215Y-75077137D01*
X198062219Y-75077140D01*
X198226079Y-75186628D01*
X198226085Y-75186631D01*
X198226086Y-75186632D01*
X198408165Y-75262052D01*
X198601455Y-75300500D01*
X198601458Y-75300501D01*
X198601460Y-75300501D01*
X198804655Y-75300501D01*
X198804675Y-75300500D01*
X220892986Y-75300500D01*
X220960025Y-75320185D01*
X221005780Y-75372989D01*
X221015724Y-75442147D01*
X220993302Y-75497388D01*
X220985505Y-75508118D01*
X220906575Y-75663026D01*
X220852854Y-75828365D01*
X220825658Y-76000073D01*
X220825658Y-76173936D01*
X220852854Y-76345644D01*
X220906575Y-76510983D01*
X220969964Y-76635390D01*
X220985504Y-76665889D01*
X221087692Y-76806538D01*
X221493466Y-77212312D01*
X221634115Y-77314500D01*
X221726205Y-77361422D01*
X221789020Y-77393428D01*
X221812171Y-77400950D01*
X221954361Y-77447150D01*
X222031902Y-77459431D01*
X222126068Y-77474346D01*
X222126073Y-77474346D01*
X222299930Y-77474346D01*
X222394096Y-77459431D01*
X222471637Y-77447150D01*
X222636980Y-77393427D01*
X222791883Y-77314500D01*
X222932532Y-77212312D01*
X223055464Y-77089380D01*
X223157652Y-76948731D01*
X223236579Y-76793828D01*
X223290302Y-76628485D01*
X223308912Y-76510983D01*
X223317498Y-76456778D01*
X223317498Y-76282915D01*
X223302271Y-76186777D01*
X223311226Y-76117484D01*
X223356222Y-76064032D01*
X223422973Y-76043392D01*
X223444142Y-76044906D01*
X223540279Y-76060133D01*
X223540284Y-76060133D01*
X223714141Y-76060133D01*
X223790024Y-76048113D01*
X223885848Y-76032937D01*
X223967001Y-76006569D01*
X224005319Y-76000500D01*
X226698543Y-76000500D01*
X226769881Y-75986309D01*
X226805552Y-75979214D01*
X226891836Y-75962051D01*
X226953301Y-75936591D01*
X227073914Y-75886632D01*
X227237782Y-75777139D01*
X227377139Y-75637782D01*
X227377139Y-75637780D01*
X227387347Y-75627573D01*
X227387348Y-75627570D01*
X228881456Y-74133463D01*
X228942775Y-74099981D01*
X229012467Y-74104965D01*
X229068400Y-74146837D01*
X229092817Y-74212301D01*
X229077965Y-74280574D01*
X229069143Y-74294455D01*
X228566001Y-74980866D01*
X228562821Y-74985017D01*
X227973390Y-75721858D01*
X227970039Y-75725871D01*
X227350048Y-76437237D01*
X227346530Y-76441105D01*
X226697133Y-77125668D01*
X226693456Y-77129385D01*
X226015742Y-77785998D01*
X226011911Y-77789556D01*
X225307138Y-78416996D01*
X225303160Y-78420390D01*
X224572561Y-79017565D01*
X224568444Y-79020788D01*
X223813311Y-79586638D01*
X223809062Y-79589684D01*
X223030762Y-80123187D01*
X223026388Y-80126052D01*
X222226260Y-80626287D01*
X222221769Y-80628964D01*
X221401295Y-81095007D01*
X221396695Y-81097493D01*
X220557294Y-81528540D01*
X220552593Y-81530830D01*
X219695781Y-81926099D01*
X219690989Y-81928189D01*
X218818227Y-82287007D01*
X218813350Y-82288892D01*
X217926298Y-82610576D01*
X217921346Y-82612255D01*
X217021481Y-82896272D01*
X217016463Y-82897740D01*
X216105453Y-83143560D01*
X216100377Y-83144816D01*
X215179780Y-83352021D01*
X215174656Y-83353061D01*
X214246160Y-83521269D01*
X214240997Y-83522092D01*
X213306245Y-83651007D01*
X213301052Y-83651612D01*
X212361697Y-83741008D01*
X212356482Y-83741394D01*
X211414166Y-83791110D01*
X211408940Y-83791275D01*
X210465394Y-83801223D01*
X210460166Y-83801168D01*
X209517037Y-83771330D01*
X209511816Y-83771055D01*
X208570750Y-83701481D01*
X208565545Y-83700985D01*
X207628298Y-83591808D01*
X207623118Y-83591094D01*
X206691276Y-83442498D01*
X206686131Y-83441566D01*
X205761390Y-83253819D01*
X205756289Y-83252671D01*
X204840283Y-83026108D01*
X204835235Y-83024746D01*
X204060617Y-82798104D01*
X210945526Y-82798104D01*
X211379981Y-82793524D01*
X212285487Y-82745751D01*
X212447526Y-82730330D01*
X212447526Y-82624351D01*
X213445526Y-82624351D01*
X214086382Y-82535969D01*
X214947526Y-82379962D01*
X214947526Y-82153019D01*
X215945526Y-82153019D01*
X216738672Y-81939003D01*
X217447526Y-81715272D01*
X217447526Y-81546769D01*
X215945526Y-81546769D01*
X215945526Y-82153019D01*
X214947526Y-82153019D01*
X214947526Y-81546769D01*
X213445526Y-81546769D01*
X213445526Y-82624351D01*
X212447526Y-82624351D01*
X212447526Y-81546769D01*
X210945526Y-81546769D01*
X210945526Y-82798104D01*
X204060617Y-82798104D01*
X203929585Y-82759766D01*
X203924599Y-82758192D01*
X203842401Y-82730330D01*
X203700572Y-82682255D01*
X208445526Y-82682255D01*
X208662715Y-82707555D01*
X209567010Y-82774411D01*
X209947526Y-82786449D01*
X209947526Y-81546769D01*
X208445526Y-81546769D01*
X208445526Y-82682255D01*
X203700572Y-82682255D01*
X203030923Y-82455268D01*
X203026014Y-82453487D01*
X202555130Y-82271401D01*
X205945526Y-82271401D01*
X205978024Y-82279439D01*
X206866652Y-82459854D01*
X207447526Y-82552482D01*
X207447526Y-81546769D01*
X205945526Y-81546769D01*
X205945526Y-82271401D01*
X202555130Y-82271401D01*
X202145931Y-82113168D01*
X202141095Y-82111180D01*
X201276127Y-81734057D01*
X201271379Y-81731867D01*
X200423056Y-81318604D01*
X200418405Y-81316215D01*
X200013706Y-81097493D01*
X199588279Y-80867569D01*
X199583759Y-80865001D01*
X199168286Y-80617277D01*
X198909543Y-80463002D01*
X200945526Y-80463002D01*
X201121582Y-80548769D01*
X202447526Y-80548769D01*
X203445526Y-80548769D01*
X204947526Y-80548769D01*
X205945526Y-80548769D01*
X207447526Y-80548769D01*
X208445526Y-80548769D01*
X209947526Y-80548769D01*
X210945526Y-80548769D01*
X212447526Y-80548769D01*
X213445526Y-80548769D01*
X214947526Y-80548769D01*
X215945526Y-80548769D01*
X217447526Y-80548769D01*
X218445526Y-80548769D01*
X219947526Y-80548769D01*
X219947526Y-80206128D01*
X220945526Y-80206128D01*
X221712829Y-79770286D01*
X222447526Y-79310958D01*
X222447526Y-79046769D01*
X220945526Y-79046769D01*
X220945526Y-80206128D01*
X219947526Y-80206128D01*
X219947526Y-79046769D01*
X218445526Y-79046769D01*
X218445526Y-80548769D01*
X217447526Y-80548769D01*
X217447526Y-79046769D01*
X215945526Y-79046769D01*
X215945526Y-80548769D01*
X214947526Y-80548769D01*
X214947526Y-79046769D01*
X213445526Y-79046769D01*
X213445526Y-80548769D01*
X212447526Y-80548769D01*
X212447526Y-79046769D01*
X210945526Y-79046769D01*
X210945526Y-80548769D01*
X209947526Y-80548769D01*
X209947526Y-79046769D01*
X208445526Y-79046769D01*
X208445526Y-80548769D01*
X207447526Y-80548769D01*
X207447526Y-79046769D01*
X205945526Y-79046769D01*
X205945526Y-80548769D01*
X204947526Y-80548769D01*
X204947526Y-79046769D01*
X203445526Y-79046769D01*
X203445526Y-80548769D01*
X202447526Y-80548769D01*
X202447526Y-79046769D01*
X200945526Y-79046769D01*
X200945526Y-80463002D01*
X198909543Y-80463002D01*
X198773269Y-80381749D01*
X198768835Y-80378977D01*
X197979445Y-79861991D01*
X197975133Y-79859035D01*
X197208263Y-79309250D01*
X197204078Y-79306115D01*
X196872771Y-79046769D01*
X198556252Y-79046769D01*
X199300194Y-79533990D01*
X199947526Y-79919960D01*
X199947526Y-79046769D01*
X198556252Y-79046769D01*
X196872771Y-79046769D01*
X196461031Y-78724460D01*
X196456983Y-78721151D01*
X195739131Y-78108703D01*
X195735226Y-78105226D01*
X195573730Y-77955229D01*
X195043830Y-77463058D01*
X195040086Y-77459431D01*
X195004600Y-77423569D01*
X194524605Y-76938486D01*
X195945526Y-76938486D01*
X196400883Y-77361422D01*
X197090713Y-77949962D01*
X197216935Y-78048769D01*
X197447526Y-78048769D01*
X198445526Y-78048769D01*
X199947526Y-78048769D01*
X200945526Y-78048769D01*
X202447526Y-78048769D01*
X203445526Y-78048769D01*
X204947526Y-78048769D01*
X205945526Y-78048769D01*
X207447526Y-78048769D01*
X208445526Y-78048769D01*
X209947526Y-78048769D01*
X210945526Y-78048769D01*
X212447526Y-78048769D01*
X213445526Y-78048769D01*
X214947526Y-78048769D01*
X215945526Y-78048769D01*
X217447526Y-78048769D01*
X218445526Y-78048769D01*
X219947526Y-78048769D01*
X223479145Y-78048769D01*
X224180853Y-78048769D01*
X224657285Y-77659344D01*
X224947526Y-77400950D01*
X224947526Y-76998500D01*
X224219437Y-76998500D01*
X224179676Y-77120871D01*
X224178080Y-77125472D01*
X224167881Y-77153117D01*
X224166106Y-77157653D01*
X224151104Y-77193869D01*
X224149153Y-77198329D01*
X224136824Y-77225072D01*
X224134700Y-77229452D01*
X224037979Y-77419276D01*
X224035684Y-77423569D01*
X224021294Y-77449265D01*
X224018832Y-77453466D01*
X223998350Y-77486890D01*
X223995724Y-77490992D01*
X223979355Y-77515490D01*
X223976571Y-77519485D01*
X223851339Y-77691851D01*
X223848399Y-77695734D01*
X223830162Y-77718867D01*
X223827074Y-77722630D01*
X223801616Y-77752437D01*
X223798381Y-77756077D01*
X223778388Y-77777705D01*
X223775014Y-77781214D01*
X223624366Y-77931862D01*
X223620857Y-77935236D01*
X223599229Y-77955229D01*
X223595589Y-77958464D01*
X223565782Y-77983922D01*
X223562019Y-77987010D01*
X223538886Y-78005247D01*
X223535002Y-78008187D01*
X223479145Y-78048769D01*
X219947526Y-78048769D01*
X219947526Y-76788926D01*
X219897639Y-76635390D01*
X219896225Y-76630728D01*
X219888225Y-76602360D01*
X219886995Y-76597646D01*
X219877846Y-76559530D01*
X219876803Y-76554776D01*
X219875211Y-76546769D01*
X218445526Y-76546769D01*
X218445526Y-78048769D01*
X217447526Y-78048769D01*
X217447526Y-76546769D01*
X215945526Y-76546769D01*
X215945526Y-78048769D01*
X214947526Y-78048769D01*
X214947526Y-76546769D01*
X213445526Y-76546769D01*
X213445526Y-78048769D01*
X212447526Y-78048769D01*
X212447526Y-76546769D01*
X210945526Y-76546769D01*
X210945526Y-78048769D01*
X209947526Y-78048769D01*
X209947526Y-76546769D01*
X208445526Y-76546769D01*
X208445526Y-78048769D01*
X207447526Y-78048769D01*
X207447526Y-76546769D01*
X205945526Y-76546769D01*
X205945526Y-78048769D01*
X204947526Y-78048769D01*
X204947526Y-76546769D01*
X203445526Y-76546769D01*
X203445526Y-78048769D01*
X202447526Y-78048769D01*
X202447526Y-76546769D01*
X200945526Y-76546769D01*
X200945526Y-78048769D01*
X199947526Y-78048769D01*
X199947526Y-76546769D01*
X198445526Y-76546769D01*
X198445526Y-78048769D01*
X197447526Y-78048769D01*
X197447526Y-76546769D01*
X195945526Y-76546769D01*
X195945526Y-76938486D01*
X194524605Y-76938486D01*
X194376380Y-76788690D01*
X194372791Y-76784906D01*
X193737934Y-76086763D01*
X193734499Y-76082822D01*
X193129660Y-75358564D01*
X193126394Y-75354481D01*
X192552620Y-74605363D01*
X192549529Y-74601146D01*
X192276917Y-74212301D01*
X192219123Y-74129865D01*
X193445526Y-74129865D01*
X193907490Y-74733004D01*
X194488682Y-75428947D01*
X194597642Y-75548769D01*
X194947526Y-75548769D01*
X195945526Y-75548769D01*
X197122463Y-75548769D01*
X195945526Y-74371831D01*
X195945526Y-75548769D01*
X194947526Y-75548769D01*
X194947526Y-74046769D01*
X193445526Y-74046769D01*
X193445526Y-74129865D01*
X192219123Y-74129865D01*
X192007838Y-73828494D01*
X192004936Y-73824164D01*
X191950777Y-73739535D01*
X191508718Y-73048769D01*
X193445526Y-73048769D01*
X194622464Y-73048769D01*
X193445526Y-71871830D01*
X193445526Y-73048769D01*
X191508718Y-73048769D01*
X191496307Y-73029376D01*
X191493583Y-73024915D01*
X191018904Y-72209380D01*
X191016370Y-72204807D01*
X190845128Y-71879815D01*
X190576495Y-71369988D01*
X190574159Y-71365317D01*
X190392058Y-70981279D01*
X190169859Y-70512679D01*
X190167742Y-70507959D01*
X189861716Y-69785359D01*
X190945526Y-69785359D01*
X191079519Y-70101751D01*
X191291484Y-70548769D01*
X192122464Y-70548769D01*
X190945526Y-69371830D01*
X190945526Y-69785359D01*
X189861716Y-69785359D01*
X189799739Y-69639016D01*
X189797824Y-69634215D01*
X189466786Y-68750550D01*
X189465056Y-68745619D01*
X189432891Y-68647331D01*
X189171561Y-67848772D01*
X189170055Y-67843820D01*
X188914625Y-66935383D01*
X188913336Y-66930397D01*
X188696428Y-66011995D01*
X188695336Y-66006891D01*
X188626101Y-65646428D01*
X188517347Y-65080216D01*
X188516473Y-65075081D01*
X188377705Y-64141708D01*
X188377052Y-64136569D01*
X188367550Y-64046769D01*
X189372559Y-64046769D01*
X189500912Y-64910091D01*
X189623586Y-65548769D01*
X189801500Y-65548769D01*
X189801500Y-64046769D01*
X189372559Y-64046769D01*
X188367550Y-64046769D01*
X188277755Y-63198157D01*
X188277315Y-63192947D01*
X188260742Y-62931297D01*
X188217665Y-62251196D01*
X188217448Y-62246032D01*
X188197554Y-61302608D01*
X188197554Y-61297386D01*
X188199129Y-61222690D01*
X188217448Y-60353965D01*
X188217665Y-60348805D01*
X188277315Y-59407049D01*
X188277755Y-59401842D01*
X188297825Y-59212172D01*
X188377052Y-58463424D01*
X188377705Y-58458297D01*
X188438591Y-58048769D01*
X189447560Y-58048769D01*
X189947526Y-58048769D01*
X189947526Y-57762000D01*
X190945526Y-57762000D01*
X191750546Y-57762000D01*
X191797998Y-57771439D01*
X191800000Y-57772268D01*
X191802002Y-57771439D01*
X191849454Y-57762000D01*
X191869981Y-57762000D01*
X191875936Y-57727215D01*
X191877481Y-57719625D01*
X191891826Y-57658914D01*
X191893842Y-57651435D01*
X191907450Y-57606572D01*
X191909929Y-57599232D01*
X191983587Y-57401742D01*
X191986975Y-57393562D01*
X192009233Y-57344825D01*
X192013195Y-57336911D01*
X192047372Y-57274321D01*
X192051890Y-57266707D01*
X192080854Y-57221640D01*
X192085902Y-57214370D01*
X192214886Y-57042071D01*
X192220439Y-57035180D01*
X192255519Y-56994695D01*
X192261551Y-56988216D01*
X192311972Y-56937795D01*
X192318451Y-56931763D01*
X192358936Y-56896683D01*
X192365827Y-56891130D01*
X192447526Y-56829969D01*
X192447526Y-56546769D01*
X190945526Y-56546769D01*
X190945526Y-57762000D01*
X189947526Y-57762000D01*
X189947526Y-56546769D01*
X189731623Y-56546769D01*
X189671941Y-56799467D01*
X189500913Y-57689902D01*
X189447560Y-58048769D01*
X188438591Y-58048769D01*
X188516477Y-57524891D01*
X188517346Y-57519790D01*
X188695340Y-56593089D01*
X188696430Y-56587995D01*
X188913338Y-55669590D01*
X188914622Y-55664627D01*
X188947198Y-55548769D01*
X190945526Y-55548769D01*
X192447526Y-55548769D01*
X193445526Y-55548769D01*
X194947526Y-55548769D01*
X195945526Y-55548769D01*
X197447526Y-55548769D01*
X198445526Y-55548769D01*
X199947526Y-55548769D01*
X200945526Y-55548769D01*
X201727147Y-55548769D01*
X201935592Y-55257884D01*
X201938007Y-55254627D01*
X201955419Y-55231934D01*
X201957944Y-55228753D01*
X202346836Y-54754889D01*
X203732198Y-54754889D01*
X210199999Y-61222690D01*
X216667801Y-54754889D01*
X216401181Y-54505173D01*
X216401161Y-54505156D01*
X215925422Y-54114726D01*
X215925423Y-54114726D01*
X215425155Y-53756239D01*
X215425145Y-53756233D01*
X214902526Y-53431248D01*
X214902504Y-53431235D01*
X214359759Y-53141133D01*
X214359732Y-53141120D01*
X213837734Y-52904605D01*
X215945526Y-52904605D01*
X215964353Y-52916313D01*
X215967776Y-52918521D01*
X215991558Y-52934416D01*
X215994881Y-52936716D01*
X216151251Y-53048769D01*
X217447526Y-53048769D01*
X218445526Y-53048769D01*
X219947526Y-53048769D01*
X220945526Y-53048769D01*
X222447526Y-53048769D01*
X223445526Y-53048769D01*
X224947526Y-53048769D01*
X225945526Y-53048769D01*
X227447526Y-53048769D01*
X228445526Y-53048769D01*
X229947526Y-53048769D01*
X229947526Y-51720687D01*
X229860520Y-51546769D01*
X228445526Y-51546769D01*
X228445526Y-53048769D01*
X227447526Y-53048769D01*
X227447526Y-51546769D01*
X225945526Y-51546769D01*
X225945526Y-53048769D01*
X224947526Y-53048769D01*
X224947526Y-51546769D01*
X223445526Y-51546769D01*
X223445526Y-53048769D01*
X222447526Y-53048769D01*
X222447526Y-51546769D01*
X220945526Y-51546769D01*
X220945526Y-53048769D01*
X219947526Y-53048769D01*
X219947526Y-51546769D01*
X218445526Y-51546769D01*
X218445526Y-53048769D01*
X217447526Y-53048769D01*
X217447526Y-51546769D01*
X215945526Y-51546769D01*
X215945526Y-52904605D01*
X213837734Y-52904605D01*
X213799155Y-52887125D01*
X213799132Y-52887116D01*
X213223159Y-52670335D01*
X213223144Y-52670330D01*
X212634209Y-52491679D01*
X212634201Y-52491676D01*
X212034828Y-52351922D01*
X211427598Y-52251668D01*
X210815130Y-52191345D01*
X210200000Y-52171208D01*
X209584869Y-52191345D01*
X208972401Y-52251668D01*
X208365171Y-52351922D01*
X207765798Y-52491676D01*
X207765790Y-52491679D01*
X207176855Y-52670330D01*
X207176840Y-52670335D01*
X206600867Y-52887116D01*
X206600844Y-52887125D01*
X206040267Y-53141120D01*
X206040240Y-53141133D01*
X205497495Y-53431235D01*
X205497473Y-53431248D01*
X204974854Y-53756233D01*
X204974844Y-53756239D01*
X204474577Y-54114726D01*
X203998838Y-54505156D01*
X203998835Y-54505158D01*
X203732198Y-54754889D01*
X202346836Y-54754889D01*
X202366545Y-54730874D01*
X202369175Y-54727774D01*
X202388035Y-54706271D01*
X202390754Y-54703271D01*
X202447526Y-54642654D01*
X202447526Y-54046769D01*
X200945526Y-54046769D01*
X200945526Y-55548769D01*
X199947526Y-55548769D01*
X199947526Y-54046769D01*
X198445526Y-54046769D01*
X198445526Y-55548769D01*
X197447526Y-55548769D01*
X197447526Y-54046769D01*
X195945526Y-54046769D01*
X195945526Y-55548769D01*
X194947526Y-55548769D01*
X194947526Y-54046769D01*
X193445526Y-54046769D01*
X193445526Y-55548769D01*
X192447526Y-55548769D01*
X192447526Y-54046769D01*
X190945526Y-54046769D01*
X190945526Y-55548769D01*
X188947198Y-55548769D01*
X189170059Y-54756165D01*
X189171557Y-54751240D01*
X189465061Y-53854363D01*
X189466787Y-53849446D01*
X189797830Y-52965768D01*
X189799732Y-52960999D01*
X189861717Y-52814637D01*
X190945526Y-52814637D01*
X190945526Y-53048769D01*
X192447526Y-53048769D01*
X193445526Y-53048769D01*
X194947526Y-53048769D01*
X195945526Y-53048769D01*
X197447526Y-53048769D01*
X198445526Y-53048769D01*
X199947526Y-53048769D01*
X200945526Y-53048769D01*
X202447526Y-53048769D01*
X203445526Y-53048769D01*
X204248749Y-53048769D01*
X204405119Y-52936716D01*
X204408442Y-52934416D01*
X204432224Y-52918521D01*
X204435648Y-52916313D01*
X204947526Y-52598007D01*
X204947526Y-51694879D01*
X213445526Y-51694879D01*
X213526581Y-51719468D01*
X213530459Y-51720715D01*
X213557544Y-51729913D01*
X213561349Y-51731275D01*
X214164091Y-51958131D01*
X214167868Y-51959623D01*
X214194294Y-51970570D01*
X214198014Y-51972183D01*
X214784646Y-52237983D01*
X214788312Y-52239717D01*
X214813967Y-52252368D01*
X214817578Y-52254223D01*
X214947526Y-52323681D01*
X214947526Y-51546769D01*
X213445526Y-51546769D01*
X213445526Y-51694879D01*
X204947526Y-51694879D01*
X204947526Y-51546769D01*
X203445526Y-51546769D01*
X203445526Y-53048769D01*
X202447526Y-53048769D01*
X202447526Y-51546769D01*
X200945526Y-51546769D01*
X200945526Y-53048769D01*
X199947526Y-53048769D01*
X199947526Y-51546769D01*
X198445526Y-51546769D01*
X198445526Y-53048769D01*
X197447526Y-53048769D01*
X197447526Y-51546769D01*
X195945526Y-51546769D01*
X195945526Y-53048769D01*
X194947526Y-53048769D01*
X194947526Y-51546769D01*
X193445526Y-51546769D01*
X193445526Y-53048769D01*
X192447526Y-53048769D01*
X192447526Y-51546769D01*
X191537657Y-51546769D01*
X191468023Y-51678922D01*
X191079519Y-52498246D01*
X190945526Y-52814637D01*
X189861717Y-52814637D01*
X190167750Y-52092022D01*
X190169851Y-52087338D01*
X190574171Y-51234657D01*
X190576486Y-51230029D01*
X190935449Y-50548769D01*
X193445526Y-50548769D01*
X194947526Y-50548769D01*
X195945526Y-50548769D01*
X197447526Y-50548769D01*
X198445526Y-50548769D01*
X199947526Y-50548769D01*
X200945526Y-50548769D01*
X202447526Y-50548769D01*
X203445526Y-50548769D01*
X204947526Y-50548769D01*
X205945526Y-50548769D01*
X207447526Y-50548769D01*
X208445526Y-50548769D01*
X209947526Y-50548769D01*
X210945526Y-50548769D01*
X212447526Y-50548769D01*
X213445526Y-50548769D01*
X214947526Y-50548769D01*
X215945526Y-50548769D01*
X217447526Y-50548769D01*
X218445526Y-50548769D01*
X219947526Y-50548769D01*
X220945526Y-50548769D01*
X222447526Y-50548769D01*
X223445526Y-50548769D01*
X224947526Y-50548769D01*
X225945526Y-50548769D01*
X227447526Y-50548769D01*
X228445526Y-50548769D01*
X229322085Y-50548769D01*
X229285344Y-50482469D01*
X228812797Y-49708596D01*
X228445526Y-49160501D01*
X228445526Y-50548769D01*
X227447526Y-50548769D01*
X227447526Y-49046769D01*
X225945526Y-49046769D01*
X225945526Y-50548769D01*
X224947526Y-50548769D01*
X224947526Y-49046769D01*
X223445526Y-49046769D01*
X223445526Y-50548769D01*
X222447526Y-50548769D01*
X222447526Y-49046769D01*
X220945526Y-49046769D01*
X220945526Y-50548769D01*
X219947526Y-50548769D01*
X219947526Y-49046769D01*
X218445526Y-49046769D01*
X218445526Y-50548769D01*
X217447526Y-50548769D01*
X217447526Y-49046769D01*
X215945526Y-49046769D01*
X215945526Y-50548769D01*
X214947526Y-50548769D01*
X214947526Y-49046769D01*
X213445526Y-49046769D01*
X213445526Y-50548769D01*
X212447526Y-50548769D01*
X212447526Y-49046769D01*
X210945526Y-49046769D01*
X210945526Y-50548769D01*
X209947526Y-50548769D01*
X209947526Y-49046769D01*
X208445526Y-49046769D01*
X208445526Y-50548769D01*
X207447526Y-50548769D01*
X207447526Y-49046769D01*
X205945526Y-49046769D01*
X205945526Y-50548769D01*
X204947526Y-50548769D01*
X204947526Y-49046769D01*
X203445526Y-49046769D01*
X203445526Y-50548769D01*
X202447526Y-50548769D01*
X202447526Y-49046769D01*
X200945526Y-49046769D01*
X200945526Y-50548769D01*
X199947526Y-50548769D01*
X199947526Y-49046769D01*
X198445526Y-49046769D01*
X198445526Y-50548769D01*
X197447526Y-50548769D01*
X197447526Y-49046769D01*
X195945526Y-49046769D01*
X195945526Y-50548769D01*
X194947526Y-50548769D01*
X194947526Y-49046769D01*
X193445526Y-49046769D01*
X193445526Y-50548769D01*
X190935449Y-50548769D01*
X191016383Y-50395167D01*
X191018890Y-50390643D01*
X191493596Y-49575061D01*
X191496294Y-49570644D01*
X192004960Y-48775798D01*
X192007822Y-48771527D01*
X192514534Y-48048769D01*
X193768262Y-48048769D01*
X194947526Y-48048769D01*
X195945526Y-48048769D01*
X197447526Y-48048769D01*
X198445526Y-48048769D01*
X199947526Y-48048769D01*
X200945526Y-48048769D01*
X202447526Y-48048769D01*
X203445526Y-48048769D01*
X204947526Y-48048769D01*
X205945526Y-48048769D01*
X207447526Y-48048769D01*
X208445526Y-48048769D01*
X209947526Y-48048769D01*
X210945526Y-48048769D01*
X212447526Y-48048769D01*
X213445526Y-48048769D01*
X214947526Y-48048769D01*
X215945526Y-48048769D01*
X217447526Y-48048769D01*
X218445526Y-48048769D01*
X219947526Y-48048769D01*
X220945526Y-48048769D01*
X222447526Y-48048769D01*
X223445526Y-48048769D01*
X224947526Y-48048769D01*
X225945526Y-48048769D01*
X227447526Y-48048769D01*
X227447526Y-47818412D01*
X227205576Y-47515954D01*
X226609794Y-46832364D01*
X226338870Y-46546769D01*
X225945526Y-46546769D01*
X225945526Y-48048769D01*
X224947526Y-48048769D01*
X224947526Y-46546769D01*
X223445526Y-46546769D01*
X223445526Y-48048769D01*
X222447526Y-48048769D01*
X222447526Y-46546769D01*
X220945526Y-46546769D01*
X220945526Y-48048769D01*
X219947526Y-48048769D01*
X219947526Y-46546769D01*
X218445526Y-46546769D01*
X218445526Y-48048769D01*
X217447526Y-48048769D01*
X217447526Y-46546769D01*
X215945526Y-46546769D01*
X215945526Y-48048769D01*
X214947526Y-48048769D01*
X214947526Y-46546769D01*
X213445526Y-46546769D01*
X213445526Y-48048769D01*
X212447526Y-48048769D01*
X212447526Y-46546769D01*
X210945526Y-46546769D01*
X210945526Y-48048769D01*
X209947526Y-48048769D01*
X209947526Y-46546769D01*
X208445526Y-46546769D01*
X208445526Y-48048769D01*
X207447526Y-48048769D01*
X207447526Y-46546769D01*
X205945526Y-46546769D01*
X205945526Y-48048769D01*
X204947526Y-48048769D01*
X204947526Y-46546769D01*
X203445526Y-46546769D01*
X203445526Y-48048769D01*
X202447526Y-48048769D01*
X202447526Y-46546769D01*
X200945526Y-46546769D01*
X200945526Y-48048769D01*
X199947526Y-48048769D01*
X199947526Y-46546769D01*
X198445526Y-46546769D01*
X198445526Y-48048769D01*
X197447526Y-48048769D01*
X197447526Y-46546769D01*
X195945526Y-46546769D01*
X195945526Y-48048769D01*
X194947526Y-48048769D01*
X194947526Y-46666467D01*
X194488682Y-47171050D01*
X193907490Y-47866993D01*
X193768262Y-48048769D01*
X192514534Y-48048769D01*
X192549535Y-47998844D01*
X192552620Y-47994636D01*
X192841838Y-47617034D01*
X193126403Y-47245506D01*
X193129660Y-47241435D01*
X193188440Y-47171050D01*
X193734508Y-46517165D01*
X193737934Y-46513236D01*
X194372791Y-45815093D01*
X194376357Y-45811332D01*
X194636166Y-45548769D01*
X196066910Y-45548769D01*
X197447526Y-45548769D01*
X198445526Y-45548769D01*
X199947526Y-45548769D01*
X200945526Y-45548769D01*
X202447526Y-45548769D01*
X203445526Y-45548769D01*
X204947526Y-45548769D01*
X205945526Y-45548769D01*
X207447526Y-45548769D01*
X208445526Y-45548769D01*
X209947526Y-45548769D01*
X209947526Y-45138215D01*
X210945526Y-45138215D01*
X210945526Y-45548769D01*
X212447526Y-45548769D01*
X213445526Y-45548769D01*
X214947526Y-45548769D01*
X215945526Y-45548769D01*
X217447526Y-45548769D01*
X218445526Y-45548769D01*
X219947526Y-45548769D01*
X220945526Y-45548769D01*
X222447526Y-45548769D01*
X223445526Y-45548769D01*
X224947526Y-45548769D01*
X224947526Y-45199046D01*
X224657285Y-44940654D01*
X223955247Y-44366824D01*
X223528129Y-44046769D01*
X223445526Y-44046769D01*
X223445526Y-45548769D01*
X222447526Y-45548769D01*
X222447526Y-44046769D01*
X220945526Y-44046769D01*
X220945526Y-45548769D01*
X219947526Y-45548769D01*
X219947526Y-44046769D01*
X218445526Y-44046769D01*
X218445526Y-45548769D01*
X217447526Y-45548769D01*
X217447526Y-44046769D01*
X215945526Y-44046769D01*
X215945526Y-45548769D01*
X214947526Y-45548769D01*
X214947526Y-44046769D01*
X213445526Y-44046769D01*
X213445526Y-45548769D01*
X212447526Y-45548769D01*
X212447526Y-44550035D01*
X212286833Y-44670328D01*
X212283246Y-44672915D01*
X212261266Y-44688177D01*
X212257589Y-44690634D01*
X212227613Y-44709901D01*
X212223840Y-44712232D01*
X212200795Y-44725905D01*
X212196949Y-44728095D01*
X211933334Y-44872041D01*
X211929410Y-44874094D01*
X211905446Y-44886089D01*
X211901449Y-44888001D01*
X211869033Y-44902803D01*
X211864973Y-44904570D01*
X211840250Y-44914809D01*
X211836137Y-44916427D01*
X211554756Y-45021376D01*
X211550587Y-45022847D01*
X211525199Y-45031298D01*
X211520975Y-45032621D01*
X211486784Y-45042662D01*
X211482514Y-45043833D01*
X211456549Y-45050461D01*
X211452237Y-45051480D01*
X211158746Y-45115325D01*
X211154404Y-45116189D01*
X211128031Y-45120947D01*
X211123654Y-45121656D01*
X211088381Y-45126725D01*
X211083997Y-45127276D01*
X211057395Y-45130136D01*
X211052986Y-45130530D01*
X210945526Y-45138215D01*
X209947526Y-45138215D01*
X209947526Y-45051423D01*
X209943451Y-45050461D01*
X209917486Y-45043833D01*
X209913216Y-45042662D01*
X209879025Y-45032621D01*
X209874801Y-45031298D01*
X209849413Y-45022847D01*
X209845244Y-45021376D01*
X209563863Y-44916427D01*
X209559750Y-44914809D01*
X209535027Y-44904570D01*
X209530967Y-44902803D01*
X209498551Y-44888001D01*
X209494554Y-44886089D01*
X209470590Y-44874094D01*
X209466666Y-44872041D01*
X209203051Y-44728095D01*
X209199205Y-44725905D01*
X209176160Y-44712232D01*
X209172387Y-44709901D01*
X209142411Y-44690634D01*
X209138734Y-44688177D01*
X209116754Y-44672915D01*
X209113167Y-44670328D01*
X208872748Y-44490354D01*
X208869251Y-44487638D01*
X208848410Y-44470843D01*
X208845019Y-44468009D01*
X208818086Y-44444674D01*
X208814788Y-44441711D01*
X208795181Y-44423456D01*
X208791996Y-44420383D01*
X208579617Y-44208004D01*
X208576544Y-44204819D01*
X208558289Y-44185212D01*
X208555326Y-44181914D01*
X208531991Y-44154981D01*
X208529157Y-44151590D01*
X208512362Y-44130749D01*
X208509646Y-44127252D01*
X208449397Y-44046769D01*
X208445526Y-44046769D01*
X208445526Y-45548769D01*
X207447526Y-45548769D01*
X207447526Y-44046769D01*
X205945526Y-44046769D01*
X205945526Y-45548769D01*
X204947526Y-45548769D01*
X204947526Y-44046769D01*
X203445526Y-44046769D01*
X203445526Y-45548769D01*
X202447526Y-45548769D01*
X202447526Y-44046769D01*
X200945526Y-44046769D01*
X200945526Y-45548769D01*
X199947526Y-45548769D01*
X199947526Y-44046769D01*
X198445526Y-44046769D01*
X198445526Y-45548769D01*
X197447526Y-45548769D01*
X197447526Y-44370722D01*
X197090713Y-44650035D01*
X196400883Y-45238575D01*
X196066910Y-45548769D01*
X194636166Y-45548769D01*
X195040121Y-45140533D01*
X195043805Y-45136964D01*
X195735254Y-44494747D01*
X195739103Y-44491320D01*
X196456993Y-43878839D01*
X196461031Y-43875539D01*
X197204102Y-43293865D01*
X197208238Y-43290767D01*
X197975143Y-42740956D01*
X197979445Y-42738008D01*
X197994679Y-42728031D01*
X198768856Y-42221008D01*
X198773246Y-42218263D01*
X198909547Y-42136994D01*
X200945526Y-42136994D01*
X200945526Y-43048769D01*
X202447526Y-43048769D01*
X203445526Y-43048769D01*
X204947526Y-43048769D01*
X205945526Y-43048769D01*
X207447526Y-43048769D01*
X207447526Y-42299998D01*
X208844773Y-42299998D01*
X208844773Y-42300001D01*
X208863657Y-42564027D01*
X208863658Y-42564034D01*
X208919921Y-42822673D01*
X209012426Y-43070690D01*
X209012428Y-43070694D01*
X209139280Y-43303005D01*
X209139285Y-43303013D01*
X209297906Y-43514907D01*
X209297922Y-43514925D01*
X209485074Y-43702077D01*
X209485092Y-43702093D01*
X209696986Y-43860714D01*
X209696994Y-43860719D01*
X209929305Y-43987571D01*
X209929309Y-43987573D01*
X209929311Y-43987574D01*
X210177322Y-44080077D01*
X210177325Y-44080077D01*
X210177326Y-44080078D01*
X210372552Y-44122546D01*
X210435974Y-44136343D01*
X210679660Y-44153772D01*
X210699999Y-44155227D01*
X210700000Y-44155227D01*
X210700001Y-44155227D01*
X210718885Y-44153876D01*
X210964026Y-44136343D01*
X211222678Y-44080077D01*
X211470689Y-43987574D01*
X211703011Y-43860716D01*
X211914915Y-43702087D01*
X212102087Y-43514915D01*
X212260716Y-43303011D01*
X212387574Y-43070689D01*
X212480077Y-42822678D01*
X212536343Y-42564026D01*
X212555227Y-42300000D01*
X212536343Y-42035974D01*
X212494929Y-41845596D01*
X212480078Y-41777326D01*
X212478614Y-41773401D01*
X212394085Y-41546769D01*
X213451245Y-41546769D01*
X213451480Y-41547763D01*
X213515325Y-41841254D01*
X213516189Y-41845596D01*
X213520947Y-41871969D01*
X213521656Y-41876346D01*
X213526725Y-41911619D01*
X213527276Y-41916003D01*
X213530136Y-41942605D01*
X213530530Y-41947014D01*
X213551955Y-42246574D01*
X213552192Y-42250993D01*
X213553148Y-42277755D01*
X213553227Y-42282182D01*
X213553227Y-42317818D01*
X213553148Y-42322245D01*
X213552192Y-42349007D01*
X213551955Y-42353426D01*
X213530530Y-42652986D01*
X213530136Y-42657395D01*
X213527276Y-42683997D01*
X213526725Y-42688381D01*
X213521656Y-42723654D01*
X213520947Y-42728031D01*
X213516189Y-42754404D01*
X213515325Y-42758746D01*
X213452234Y-43048769D01*
X214947526Y-43048769D01*
X215945526Y-43048769D01*
X217447526Y-43048769D01*
X218445526Y-43048769D01*
X219947526Y-43048769D01*
X219947526Y-41889114D01*
X219294468Y-41587842D01*
X219194564Y-41546769D01*
X218445526Y-41546769D01*
X218445526Y-43048769D01*
X217447526Y-43048769D01*
X217447526Y-41546769D01*
X215945526Y-41546769D01*
X215945526Y-43048769D01*
X214947526Y-43048769D01*
X214947526Y-41546769D01*
X213451245Y-41546769D01*
X212394085Y-41546769D01*
X212387574Y-41529311D01*
X212372937Y-41502506D01*
X212260719Y-41296994D01*
X212260714Y-41296986D01*
X212102093Y-41085092D01*
X212102077Y-41085074D01*
X211914925Y-40897922D01*
X211914907Y-40897906D01*
X211703013Y-40739285D01*
X211703005Y-40739280D01*
X211470694Y-40612428D01*
X211470690Y-40612426D01*
X211300018Y-40548769D01*
X213445526Y-40548769D01*
X214947526Y-40548769D01*
X214947526Y-40220035D01*
X214086382Y-40064028D01*
X213445526Y-39975645D01*
X213445526Y-40548769D01*
X211300018Y-40548769D01*
X211222673Y-40519921D01*
X210964034Y-40463658D01*
X210964027Y-40463657D01*
X210700001Y-40444773D01*
X210699999Y-40444773D01*
X210435972Y-40463657D01*
X210435965Y-40463658D01*
X210177326Y-40519921D01*
X209929309Y-40612426D01*
X209929305Y-40612428D01*
X209696994Y-40739280D01*
X209696986Y-40739285D01*
X209485092Y-40897906D01*
X209485074Y-40897922D01*
X209297922Y-41085074D01*
X209297906Y-41085092D01*
X209139285Y-41296986D01*
X209139280Y-41296994D01*
X209012428Y-41529305D01*
X209012426Y-41529309D01*
X208919921Y-41777326D01*
X208863658Y-42035965D01*
X208863657Y-42035972D01*
X208844773Y-42299998D01*
X207447526Y-42299998D01*
X207447526Y-41546769D01*
X205945526Y-41546769D01*
X205945526Y-43048769D01*
X204947526Y-43048769D01*
X204947526Y-41546769D01*
X203445526Y-41546769D01*
X203445526Y-43048769D01*
X202447526Y-43048769D01*
X202447526Y-41546769D01*
X202211694Y-41546769D01*
X201691889Y-41773401D01*
X200945526Y-42136994D01*
X198909547Y-42136994D01*
X199583794Y-41734977D01*
X199588243Y-41732450D01*
X200418445Y-41283763D01*
X200423016Y-41281415D01*
X201271413Y-40868116D01*
X201276092Y-40865957D01*
X202141108Y-40488813D01*
X202145917Y-40486836D01*
X202555135Y-40328596D01*
X205945526Y-40328596D01*
X205945526Y-40548769D01*
X207447526Y-40548769D01*
X207447526Y-40047514D01*
X206866652Y-40140143D01*
X205978024Y-40320558D01*
X205945526Y-40328596D01*
X202555135Y-40328596D01*
X203026062Y-40146494D01*
X203030881Y-40144746D01*
X203924641Y-39841793D01*
X203929543Y-39840245D01*
X204835270Y-39575243D01*
X204840249Y-39573900D01*
X205756300Y-39347325D01*
X205761379Y-39346182D01*
X206686174Y-39158425D01*
X206691232Y-39157508D01*
X207623139Y-39008902D01*
X207628277Y-39008193D01*
X208565562Y-38899012D01*
X208570732Y-38898519D01*
X209511862Y-38828941D01*
X209516990Y-38828671D01*
X210460194Y-38798830D01*
X210465365Y-38798776D01*
X211408956Y-38808724D01*
G37*
%TD.AperFunction*%
%TD*%
M02*
